<svg width="355" height="380" viewBox="0 0 355 380" fill="none" xmlns="http://www.w3.org/2000/svg">
<path d="M305.889 187.513V13" stroke="white" stroke-opacity="0.7" stroke-width="25" stroke-miterlimit="10" stroke-linecap="round" stroke-linejoin="round"/>
<path d="M305.889 13H49.6111V187.513" stroke="white" stroke-opacity="0.7" stroke-width="25" stroke-miterlimit="10" stroke-linecap="round" stroke-linejoin="round"/>
<path d="M238.769 240.123L342.5 159.444V366.907H13V159.444L117.39 240.636" stroke="white" stroke-opacity="0.7" stroke-width="25" stroke-miterlimit="10" stroke-linecap="round" stroke-linejoin="round"/>
<path d="M13 348.602L177.75 232.667L342.5 348.602" stroke="white" stroke-opacity="0.7" stroke-width="25" stroke-miterlimit="10" stroke-linecap="round" stroke-linejoin="round"/>
<path d="M305.828 129.57L342.5 159.445" stroke="white" stroke-opacity="0.7" stroke-width="25" stroke-miterlimit="10" stroke-linecap="round" stroke-linejoin="round"/>
<path d="M13 159.445L49.6111 129.619" stroke="white" stroke-opacity="0.7" stroke-width="25" stroke-miterlimit="10" stroke-linecap="round" stroke-linejoin="round"/>
<path d="M238.427 110.385C238.647 112.472 238.756 114.584 238.756 116.731C238.756 150.438 211.432 177.75 177.738 177.75C144.043 177.75 116.719 150.438 116.719 116.731C116.719 83.037 144.043 55.7129 177.738 55.7129C188.965 55.7129 199.473 58.7516 208.516 64.0358" stroke="white" stroke-opacity="0.7" stroke-width="25" stroke-miterlimit="10" stroke-linecap="round" stroke-linejoin="round"/>
<path d="M236.206 73.7871L177.738 132.255L149.559 104.101" stroke="white" stroke-opacity="0.7" stroke-width="25" stroke-miterlimit="10" stroke-linecap="round" stroke-linejoin="round"/>
<path d="M305.889 187.513V13" stroke="white" stroke-opacity="0.7" stroke-width="25" stroke-miterlimit="10" stroke-linecap="round" stroke-linejoin="round"/>
<path d="M305.889 13H49.6111V187.513" stroke="white" stroke-opacity="0.7" stroke-width="25" stroke-miterlimit="10" stroke-linecap="round" stroke-linejoin="round"/>
<path d="M238.769 240.123L342.5 159.444V366.907H13V159.444L117.39 240.636" stroke="white" stroke-opacity="0.7" stroke-width="25" stroke-miterlimit="10" stroke-linecap="round" stroke-linejoin="round"/>
<path d="M13 348.602L177.75 232.667L342.5 348.602" stroke="white" stroke-opacity="0.7" stroke-width="25" stroke-miterlimit="10" stroke-linecap="round" stroke-linejoin="round"/>
<path d="M305.828 129.57L342.5 159.445" stroke="white" stroke-opacity="0.7" stroke-width="25" stroke-miterlimit="10" stroke-linecap="round" stroke-linejoin="round"/>
<path d="M13 159.445L49.6111 129.619" stroke="white" stroke-opacity="0.7" stroke-width="25" stroke-miterlimit="10" stroke-linecap="round" stroke-linejoin="round"/>
<path d="M238.427 110.385C238.647 112.472 238.756 114.584 238.756 116.731C238.756 150.438 211.432 177.75 177.738 177.75C144.043 177.75 116.719 150.438 116.719 116.731C116.719 83.037 144.043 55.7129 177.738 55.7129C188.965 55.7129 199.473 58.7516 208.516 64.0358" stroke="white" stroke-opacity="0.7" stroke-width="25" stroke-miterlimit="10" stroke-linecap="round" stroke-linejoin="round"/>
<path d="M236.206 73.7871L177.738 132.255L149.559 104.101" stroke="white" stroke-opacity="0.7" stroke-width="25" stroke-miterlimit="10" stroke-linecap="round" stroke-linejoin="round"/>
</svg>
