<svg width="271" height="319" viewBox="0 0 271 319" fill="none" xmlns="http://www.w3.org/2000/svg">
<g opacity="0.2">
<path d="M146.586 318.792C207.537 318.792 256.949 311.123 256.949 301.663C256.949 292.203 207.537 284.534 146.586 284.534C85.6338 284.534 36.2227 292.203 36.2227 301.663C36.2227 311.123 85.6338 318.792 146.586 318.792Z" fill="#5C0000"/>
</g>
<path d="M268.184 191.729C268.184 191.729 268.185 191.735 268.178 191.741C267.92 192.601 250.859 247.96 162.088 252.11L166.853 236.65L172.123 219.546L178.909 197.534C178.909 197.534 236.126 190.833 266.422 191.669C267.017 191.687 267.607 191.705 268.184 191.729Z" fill="#58DA3F"/>
<g opacity="0.6">
<path d="M268.184 191.729C268.184 191.729 268.185 191.735 268.178 191.741C268.13 191.909 267.433 194.171 265.676 197.727C235.199 197.017 178.903 203.61 178.903 203.61L172.117 225.622L166.847 242.726L163.983 252.008C163.358 252.05 162.726 252.08 162.088 252.11L166.853 236.65L172.123 219.546L178.909 197.534C178.909 197.534 236.126 190.833 266.422 191.669C267.017 191.687 267.607 191.705 268.184 191.729Z" fill="white"/>
</g>
<path d="M162.086 254.514C161.345 254.514 160.641 254.171 160.184 253.582C159.705 252.962 159.556 252.148 159.787 251.399L176.607 196.823C176.888 195.912 177.68 195.253 178.627 195.142C179.224 195.072 238.655 188.167 268.277 189.322C269.568 189.372 270.589 190.434 270.589 191.727C270.589 191.996 270.543 192.264 270.455 192.517C270.034 193.865 265.348 207.993 249.972 222.443C240.839 231.025 229.743 238.032 216.991 243.271C201.172 249.769 182.738 253.551 162.199 254.511C162.161 254.513 162.124 254.514 162.086 254.514ZM180.743 199.745L165.403 249.515C208.48 246.786 233.33 231.476 246.676 218.936C257.423 208.836 262.635 198.859 264.719 194.037C237.408 193.544 189.921 198.71 180.743 199.745Z" fill="#5C0000"/>
<path d="M268.176 191.739C267.918 192.599 250.857 247.957 162.086 252.108L166.851 236.647C239.403 231.293 267.629 192.497 268.176 191.739Z" fill="#FFDF46"/>
<path d="M162.086 253.912C161.53 253.912 161.002 253.655 160.659 253.213C160.299 252.748 160.188 252.137 160.361 251.576L165.126 236.115C165.345 235.405 165.977 234.901 166.718 234.847C203.889 232.104 229.008 220.339 243.536 210.953C259.357 200.731 266.42 191.087 266.713 190.681C267.229 189.967 268.186 189.73 268.976 190.12C269.766 190.51 270.158 191.414 269.904 192.258C269.722 192.863 265.266 207.243 249.559 222.004C240.48 230.536 229.445 237.503 216.762 242.714C201.007 249.186 182.64 252.953 162.17 253.91C162.142 253.911 162.114 253.912 162.086 253.912ZM168.214 238.352L164.572 250.168C208.362 247.58 233.58 232.067 247.087 219.374C253.952 212.922 258.553 206.601 261.539 201.585C248.62 213.66 219.476 234.276 168.214 238.352Z" fill="#5C0000"/>
<path d="M247.89 222.892C246.981 222.892 246.199 222.208 246.098 221.283C245.619 216.895 242.728 214.228 242.699 214.202C241.963 213.535 241.901 212.396 242.564 211.656C243.228 210.918 244.36 210.849 245.102 211.509C245.263 211.652 249.052 215.077 249.686 220.891C249.794 221.882 249.079 222.773 248.088 222.881C248.022 222.889 247.955 222.892 247.89 222.892Z" fill="#5C0000"/>
<path d="M230.514 235.731C230.476 235.731 230.438 235.73 230.4 235.728C229.405 235.665 228.649 234.808 228.711 233.814C229.031 228.697 225.643 222.914 225.608 222.856C225.101 221.999 225.383 220.892 226.239 220.383C227.095 219.874 228.201 220.155 228.711 221.011C228.874 221.285 232.704 227.796 232.314 234.038C232.254 234.995 231.459 235.731 230.514 235.731Z" fill="#5C0000"/>
<path d="M210.659 244.932C210.614 244.932 210.569 244.93 210.524 244.927C209.53 244.854 208.784 243.989 208.857 242.995C209.285 237.182 206.143 230.043 206.111 229.971C205.706 229.061 206.115 227.994 207.025 227.588C207.936 227.184 209.001 227.591 209.407 228.501C209.552 228.825 212.953 236.53 212.457 243.26C212.387 244.209 211.595 244.932 210.659 244.932Z" fill="#5C0000"/>
<path d="M260.318 191.738C260.318 191.738 255.162 182.446 251.294 181.157C251.294 181.157 249.388 184.273 247.892 191.868L260.318 191.738Z" fill="white"/>
<path d="M241.691 192.143C241.691 192.143 239.176 185.347 234.729 182.06C234.729 182.06 230.212 187.296 230.537 192.799L241.691 192.143Z" fill="white"/>
<path d="M247.892 193.673C247.356 193.673 246.847 193.434 246.504 193.022C246.157 192.604 246.016 192.052 246.121 191.519C247.662 183.697 249.67 180.354 249.755 180.216C250.193 179.498 251.068 179.179 251.865 179.445C256.18 180.884 260.978 189.208 261.896 190.863C262.205 191.419 262.198 192.096 261.878 192.646C261.558 193.196 260.973 193.537 260.337 193.543L247.911 193.673C247.904 193.673 247.898 193.673 247.892 193.673ZM252.081 183.709C251.556 184.985 250.828 187.055 250.13 190.04L257.143 189.967C255.582 187.555 253.662 185.026 252.081 183.709Z" fill="#5C0000"/>
<path d="M230.535 195.205C229.27 195.205 228.21 194.219 228.135 192.94C227.757 186.537 232.697 180.732 232.907 180.488C233.729 179.534 235.147 179.375 236.16 180.125C241.127 183.796 243.836 191.003 243.949 191.308C244.213 192.023 244.123 192.821 243.706 193.459C243.289 194.097 242.595 194.5 241.833 194.545L230.678 195.201C230.63 195.204 230.583 195.205 230.535 195.205ZM235.111 185.675C234.375 186.875 233.553 188.495 233.16 190.234L238.02 189.948C237.297 188.604 236.314 187.024 235.111 185.675Z" fill="#5C0000"/>
<g opacity="0.2">
<path d="M268.185 191.899C268.185 191.899 268.185 191.905 268.179 191.911C268.125 192.097 267.264 194.894 265.027 199.19C265.027 199.196 265.021 199.196 265.021 199.196C253.633 214.272 225.809 239.226 164.646 243.972L166.853 236.819L172.123 219.716C222.242 222.213 254.096 201.734 266.422 191.838C267.018 191.856 267.607 191.875 268.185 191.899Z" fill="#5C0000"/>
</g>
<path d="M226.029 158.593C226.029 158.593 229.94 176.713 229.94 193.606C229.94 194.605 229.928 195.591 229.897 196.578C229.699 203.454 225.289 209.494 218.852 211.93C212.066 214.493 202.158 217.044 190.193 216.635L169.305 142.026L164.926 126.366C164.926 126.366 192.106 119.225 216.422 118.66C218.985 118.606 221.301 120.164 222.257 122.54C224.501 128.129 228.538 139.072 231.064 151.23C231.78 154.671 229.494 158.016 226.029 158.593Z" fill="#FF1B40"/>
<g opacity="0.6">
<path d="M228.227 156.603C225.701 144.445 221.664 133.502 219.42 127.913C218.464 125.537 216.148 123.979 213.585 124.033C194.948 124.466 174.632 128.761 166.155 130.746L164.928 126.367C164.928 126.367 192.108 119.226 216.424 118.661C218.987 118.606 221.303 120.164 222.26 122.541C224.503 128.13 228.54 139.073 231.067 151.231C231.608 153.823 230.441 156.362 228.354 157.704C228.348 157.337 228.306 156.976 228.227 156.603Z" fill="white"/>
</g>
<path d="M192.701 218.783C191.851 218.783 190.991 218.768 190.12 218.739C189.203 218.707 188.412 218.086 188.165 217.202L167.278 142.593L162.898 126.933C162.746 126.39 162.819 125.809 163.099 125.319C163.38 124.829 163.845 124.473 164.391 124.33C164.665 124.258 192.09 117.12 216.373 116.555C219.768 116.477 222.93 118.572 224.21 121.754C226.439 127.305 230.561 138.459 233.126 150.802C233.59 153.033 233.137 155.298 231.85 157.178C230.985 158.441 229.822 159.416 228.47 160.032C229.468 165.137 232.045 179.664 232.045 193.606C232.045 194.703 232.031 195.696 232.002 196.642C231.779 204.356 226.91 211.132 219.597 213.899C213.567 216.177 204.161 218.783 192.701 218.783ZM191.8 214.566C203.038 214.715 212.256 212.171 218.108 209.96C223.817 207.8 227.619 202.523 227.793 196.517C227.82 195.611 227.834 194.66 227.834 193.606C227.834 177.144 224.01 159.216 223.971 159.037C223.85 158.475 223.964 157.887 224.287 157.41C224.611 156.934 225.115 156.612 225.683 156.517C226.787 156.333 227.743 155.723 228.375 154.799C229.009 153.874 229.232 152.758 229.003 151.659C226.504 139.633 222.48 128.745 220.303 123.325C219.673 121.759 218.138 120.718 216.466 120.765C196.515 121.229 174.32 126.243 167.537 127.886L191.8 214.566Z" fill="#5C0000"/>
<path d="M229.94 193.606C229.94 194.604 229.928 195.591 229.898 196.577C229.699 203.454 225.289 209.494 218.852 211.93C212.067 214.493 202.158 217.044 190.193 216.635L169.306 142.026C183.679 130.898 203.141 129.408 211.864 129.349C214.557 129.331 216.949 131.061 217.792 133.619L226.029 158.593C226.029 158.593 229.94 176.713 229.94 193.606Z" fill="#0096F0"/>
<g opacity="0.6">
<path d="M229.941 193.606C229.941 194.605 229.929 195.592 229.899 196.578C229.833 198.912 229.279 201.15 228.329 203.184C228.329 203.129 228.335 203.075 228.335 203.021C228.365 202.035 228.377 201.048 228.377 200.049C228.377 183.157 224.467 165.037 224.467 165.037L216.231 140.065C215.389 137.508 212.995 135.776 210.299 135.794C202.13 135.848 184.551 137.159 170.546 146.46L169.307 142.026C183.679 130.897 203.14 129.405 211.863 129.351C214.559 129.333 216.947 131.059 217.789 133.622L226.031 158.594C226.031 158.594 229.941 176.714 229.941 193.606Z" fill="white"/>
</g>
<g opacity="0.2">
<path d="M229.941 193.607C229.941 194.605 229.929 195.592 229.899 196.579C229.701 203.455 225.291 209.495 218.854 211.931C212.068 214.494 202.16 217.045 190.194 216.636L184.708 197.03C194.574 196.747 202.791 194.533 208.669 192.319C215.106 189.883 219.516 183.843 219.714 176.967C219.744 175.98 219.756 174.994 219.756 173.995C219.756 157.102 215.846 138.983 215.846 138.983L212.681 129.405C215.034 129.694 217.037 131.324 217.789 133.622L226.031 158.594C226.031 158.594 229.941 176.714 229.941 193.607Z" fill="#5C0000"/>
</g>
<path d="M192.701 218.482C191.855 218.482 190.998 218.468 190.131 218.438C189.344 218.411 188.666 217.878 188.454 217.121L167.567 142.512C167.369 141.805 167.62 141.048 168.201 140.598C183.208 128.979 203.726 127.599 211.851 127.545C211.869 127.545 211.888 127.544 211.906 127.544C215.368 127.544 218.417 129.752 219.506 133.054L227.743 158.028C227.763 158.089 227.78 158.151 227.793 158.213C227.833 158.396 231.744 176.716 231.744 193.606C231.744 194.7 231.73 195.69 231.701 196.633C231.482 204.225 226.689 210.894 219.491 213.618C213.484 215.887 204.116 218.482 192.701 218.482ZM191.571 214.864C202.957 215.04 212.299 212.476 218.214 210.242C224.038 208.037 227.916 202.653 228.093 196.526C228.121 195.617 228.135 194.663 228.135 193.606C228.135 177.703 224.58 160.47 224.284 159.065L216.078 134.184C215.479 132.369 213.805 131.154 211.905 131.154C211.896 131.154 211.886 131.154 211.875 131.154C204.293 131.205 185.425 132.45 171.376 142.726L191.571 214.864Z" fill="#5C0000"/>
<path d="M234.524 191.716C227.817 194.73 215.616 199.158 204.974 197.425L194.104 162.263L201.714 159.411L226.481 150.135C229.05 149.172 231.919 150.441 232.942 152.986L236.931 162.93C237.628 164.663 237.31 166.636 236.112 168.068C236.112 168.068 236.672 170.071 237.346 172.971C238.019 175.877 238.802 179.679 239.253 183.288C239.698 186.837 237.785 190.254 234.524 191.716Z" fill="#FF8D06"/>
<g opacity="0.2">
<path d="M234.526 191.887C227.818 194.901 215.618 199.328 204.976 197.596L194.105 162.433L199.23 160.514L204.776 178.453C205.792 181.74 208.854 183.999 212.294 183.915C221.265 183.698 230.415 180.291 235.897 177.827C236.703 177.466 237.431 176.985 238.057 176.402C238.52 178.633 238.959 181.088 239.254 183.458C239.699 187.008 237.786 190.425 234.526 191.887Z" fill="#5C0000"/>
</g>
<g opacity="0.6">
<path d="M237.588 189.323C237.131 185.924 236.403 182.417 235.771 179.698C235.097 176.798 234.538 174.795 234.538 174.795C235.735 173.363 236.054 171.39 235.356 169.657L231.367 159.713C230.345 157.168 227.475 155.899 224.906 156.861L200.139 166.138L195.807 167.762L194.105 162.264L201.715 159.412L226.482 150.136C229.051 149.173 231.921 150.442 232.944 152.987L236.932 162.931C237.63 164.664 237.311 166.637 236.114 168.069C236.114 168.069 236.673 170.072 237.347 172.972C238.021 175.878 238.803 179.68 239.254 183.289C239.531 185.497 238.893 187.657 237.588 189.323Z" fill="white"/>
</g>
<path d="M209.989 199.616C208.202 199.616 206.425 199.49 204.684 199.206C204.008 199.096 203.452 198.612 203.25 197.958L192.379 162.795C192.096 161.882 192.575 160.907 193.47 160.572L225.848 148.444C229.305 147.149 233.238 148.884 234.616 152.313L238.605 162.258C239.427 164.297 239.215 166.579 238.077 168.42C238.304 169.279 238.68 170.741 239.103 172.562C239.724 175.238 240.564 179.231 241.043 183.063C241.591 187.428 239.267 191.567 235.262 193.363C229.683 195.869 219.715 199.616 209.989 199.616ZM206.36 195.798C216.399 197.009 227.771 192.772 233.784 190.07C233.784 190.069 233.785 190.069 233.785 190.069C236.333 188.927 237.81 186.292 237.462 183.512C237.002 179.833 236.188 175.97 235.587 173.378C234.932 170.557 234.379 168.572 234.374 168.553C234.214 167.98 234.346 167.365 234.728 166.909C235.502 165.984 235.704 164.718 235.256 163.605L231.267 153.658C230.614 152.034 228.75 151.211 227.114 151.824L196.33 163.355L206.36 195.798Z" fill="#5C0000"/>
<path d="M211.426 177.826C210.382 177.826 209.358 177.529 208.456 176.954C207.198 176.152 206.331 174.907 206.013 173.449C205.322 170.268 203.667 164.369 200.358 160.602C199.966 160.157 199.819 159.547 199.963 158.971C200.107 158.396 200.525 157.929 201.081 157.721L225.848 148.444C229.305 147.149 233.239 148.884 234.617 152.313L238.605 162.258C239.551 164.606 239.127 167.276 237.497 169.225C237.332 169.421 237.128 169.581 236.898 169.692C236.495 169.887 226.869 174.495 212.651 177.69C212.244 177.781 211.833 177.826 211.426 177.826ZM204.626 160.247C207.277 164.176 208.748 169.038 209.541 172.681C209.652 173.193 209.956 173.63 210.397 173.911C210.834 174.19 211.355 174.282 211.86 174.168C224.099 171.418 233.026 167.499 234.944 166.621C235.536 165.731 235.66 164.606 235.256 163.605L231.267 153.658C230.614 152.034 228.751 151.21 227.114 151.824L204.626 160.247Z" fill="#5C0000"/>
<path d="M204.972 199.23C204.105 199.23 203.341 198.604 203.194 197.721C203.03 196.737 203.695 195.808 204.678 195.644C207.518 195.172 209.485 193.944 210.694 191.889C213.981 186.297 210.591 176.634 210.557 176.537C210.222 175.599 210.71 174.566 211.647 174.231C212.586 173.895 213.618 174.381 213.954 175.319C214.119 175.778 217.95 186.656 213.811 193.709C212.052 196.707 209.178 198.556 205.27 199.205C205.17 199.222 205.07 199.23 204.972 199.23Z" fill="#5C0000"/>
<path d="M222.013 169.065C218.849 169.065 216.276 166.491 216.276 163.328C216.276 160.165 218.849 157.591 222.013 157.591C225.176 157.591 227.749 160.165 227.749 163.328C227.749 166.491 225.176 169.065 222.013 169.065ZM222.013 161.201C220.84 161.201 219.885 162.155 219.885 163.328C219.885 164.501 220.84 165.455 222.013 165.455C223.185 165.455 224.14 164.501 224.14 163.328C224.14 162.155 223.186 161.201 222.013 161.201Z" fill="#5C0000"/>
<path d="M226.958 266.91C224.563 277.956 216.695 300.377 191.596 309.304C189.1 310.195 186.387 309.936 184.149 308.697C183.234 308.197 182.404 307.53 181.7 306.711C178.007 302.434 174.59 294.818 181.171 283.773L178.536 278.509L174.981 271.392C174.981 271.392 171.997 271.789 167.19 269.611L167.142 269.587C162.474 267.464 156.097 262.91 149.07 253.218C149.07 253.218 141.334 255.925 130.505 253.994C130.505 253.994 131.666 259.408 127.413 264.047C127.413 264.047 127.413 264.047 127.419 264.053C127.569 264.342 132.52 273.967 132.196 288.423C132.178 289.253 132.142 290.096 132.087 290.95C131.835 294.926 128.845 298.205 124.916 298.867C113.943 300.713 90.8303 303.794 72.0788 300.942C68.6618 300.425 65.9005 297.91 65.0161 294.571C64.7695 293.633 64.5529 292.61 64.4085 291.533C64.0235 288.67 64.1559 285.445 65.5696 282.473C67.4827 278.455 71.7419 274.899 80.2303 273.329L82.9795 267.434C82.9856 267.428 82.9856 267.428 82.9856 267.428L85.6386 261.731C85.6446 261.724 85.6446 261.724 85.6446 261.724C85.6446 261.724 83.9843 258.368 81.9088 252.562C81.9027 252.55 81.8967 252.532 81.8907 252.52C79.4301 245.656 76.3741 235.399 74.7618 223.259C74.6415 222.344 74.5273 221.424 74.4249 220.486C73.7691 214.596 73.4684 208.303 73.7511 201.782C73.7691 201.343 73.7932 200.898 73.8113 200.453C74.2023 193.414 75.2732 186.111 77.3004 178.759C78.4134 174.705 79.8211 170.638 81.5597 166.589C81.5597 166.589 55.4809 171.228 33.8237 147.639C33.8237 147.639 16.0347 153.83 2.10791 144.932C2.10791 144.932 2.63134 143.548 3.78635 141.924C5.07981 140.119 7.17332 138.008 10.2293 137.196C10.2293 137.196 7.13726 136.035 2.10791 128.689C2.10791 128.689 9.05029 124.833 14.0796 125.976C13.6885 125.85 7.46215 123.738 5.59122 116.657C5.59122 116.657 22.1831 120.183 27.2303 119.022L25.7143 108.578C25.7143 108.578 36.5309 112.446 39.6231 124.436C39.6231 124.436 57.8693 125.158 68.8542 134.079C68.8542 134.079 73.1736 131.216 79.6888 128.286C81.2048 127.6 82.8471 126.914 84.5797 126.259C88.6344 124.725 93.2004 123.365 97.935 122.637C99.6376 122.372 101.364 122.192 103.091 122.114L103.47 122.084L155.645 117.897L171.106 116.657C171.106 116.657 178.073 144.547 188.516 168.52C198.96 192.5 205.92 224.986 197.414 240.843L203.724 244.916L207.25 247.19L214.493 251.87L220.154 255.528L222.981 257.351C226.164 259.402 227.758 263.211 226.958 266.91Z" fill="#58DA3F"/>
<path d="M188.544 311.937C186.668 311.937 184.802 311.466 183.127 310.538C181.987 309.915 180.966 309.088 180.102 308.084C176.691 304.133 172.089 295.787 178.78 283.703L173.682 273.507C172.153 273.422 169.602 273.016 166.319 271.528C166.294 271.517 166.27 271.506 166.246 271.494L166.232 271.487C160.078 268.678 154.031 263.352 148.242 255.644C145.664 256.295 140.02 257.34 132.733 256.456C132.63 258.559 132.028 261.518 129.885 264.362C131.279 267.552 134.569 276.412 134.298 288.47C134.28 289.323 134.242 290.203 134.186 291.082C133.871 296.056 130.202 300.111 125.264 300.942C113.354 302.947 90.5667 305.883 71.7602 303.023C67.5297 302.383 64.0823 299.277 62.9786 295.11C62.6839 293.989 62.4626 292.881 62.3196 291.812C61.4918 285.634 62.5794 274.903 78.7713 271.471L81.0693 266.543C81.0848 266.51 81.1011 266.477 81.1184 266.445L83.3158 261.725C82.6799 260.337 81.4188 257.446 79.9453 253.33C79.9315 253.298 79.9187 253.264 79.9067 253.231C73.6739 235.866 65.4162 202.302 78.2882 169.028C70.2818 169.441 50.5845 168.295 33.1837 150.039C28.6376 151.334 13.5055 154.712 0.972396 146.706C0.134565 146.171 -0.214762 145.123 0.13436 144.192C0.22259 143.957 1.94643 139.482 6.09029 136.773C4.59324 135.384 2.65833 133.222 0.368549 129.878C0.0338065 129.389 -0.0795875 128.782 0.0566102 128.205C0.1925 127.628 0.56545 127.136 1.08354 126.848C1.27438 126.742 4.11429 125.184 7.60562 124.287C5.95563 122.644 4.38628 120.348 3.55327 117.195C3.36644 116.488 3.55985 115.735 4.06407 115.205C4.56808 114.676 5.3109 114.445 6.02661 114.597C11.3543 115.729 20.2655 117.222 24.829 117.15L23.6286 108.88C23.5223 108.149 23.8071 107.416 24.3789 106.948C24.9509 106.48 25.7263 106.346 26.4211 106.595C26.8868 106.761 37.449 110.664 41.2321 122.431C45.7827 122.803 59.3692 124.475 68.9729 131.513C73.3099 128.862 87.8114 120.7 102.958 120.011L103.301 119.984L170.936 114.558C171.962 114.474 172.898 115.148 173.147 116.146C173.216 116.424 180.194 144.149 190.445 167.678C200.577 190.943 207.672 222.974 200.121 240.085L224.12 255.581C228.026 258.098 229.992 262.829 229.014 267.354C229.013 267.355 229.013 267.355 229.013 267.355C227.767 273.107 225.111 281.717 219.541 290.069C212.851 300.098 203.686 307.237 192.3 311.287C191.082 311.722 189.81 311.937 188.544 311.937ZM175.004 269.282C175.79 269.282 176.502 269.73 176.862 270.45L183.051 282.829C183.373 283.471 183.345 284.233 182.977 284.85C177.114 294.69 179.912 301.421 183.292 305.335C183.826 305.955 184.452 306.463 185.156 306.848C186.917 307.823 189.002 307.993 190.887 307.32C214.602 298.885 222.375 278.101 224.898 266.464L224.897 266.465C225.508 263.644 224.278 260.693 221.838 259.12L196.27 242.611C195.348 242.016 195.038 240.814 195.556 239.847C203.795 224.489 196.68 192.543 186.584 169.36C177.676 148.913 171.218 125.383 169.509 118.897L103.255 124.212C103.231 124.214 103.207 124.216 103.182 124.217C86.6335 124.956 70.1789 135.725 70.0147 135.834C69.2478 136.341 68.239 136.293 67.5248 135.713C57.2267 127.35 39.712 126.546 39.5365 126.539C38.6087 126.502 37.8138 125.86 37.5817 124.961C35.8479 118.238 31.4882 114.337 28.3842 112.328L29.3118 118.719C29.4692 119.803 28.7683 120.827 27.7001 121.073C23.8028 121.969 14.5327 120.504 9.11817 119.5C11.2956 122.827 14.5489 123.915 14.7237 123.971C15.796 124.317 16.4059 125.446 16.1077 126.532C15.8095 127.619 14.7107 128.279 13.6106 128.028C11.1122 127.461 7.66375 128.515 5.28471 129.507C8.63172 133.94 10.7298 135.097 10.9986 135.234C11.8779 135.519 12.4107 136.327 12.3932 137.255C12.3756 138.194 11.6773 138.987 10.7695 139.229C7.72969 140.04 5.82971 142.478 4.86194 144.111C17.4845 150.92 32.9701 145.705 33.1317 145.649C33.9243 145.375 34.8055 145.597 35.3725 146.214C55.9384 168.615 80.9419 164.559 81.1924 164.515C81.9525 164.382 82.7284 164.677 83.2079 165.283C83.6871 165.89 83.7971 166.71 83.4922 167.419C69.3272 200.384 77.6235 234.381 83.849 251.749C83.8633 251.784 83.8766 251.818 83.8888 251.853C85.8912 257.452 87.5137 260.758 87.5299 260.791C87.8351 261.409 87.8135 262.125 87.5014 262.712L84.8921 268.316C84.8763 268.35 84.8598 268.383 84.8422 268.416L82.1363 274.218C81.8484 274.835 81.2796 275.275 80.6101 275.399C70.0935 277.34 65.3439 282.673 66.4931 291.253C66.6133 292.15 66.8009 293.086 67.0504 294.036C67.7229 296.575 69.8198 298.47 72.3914 298.859C90.6205 301.632 112.904 298.752 124.564 296.79C127.564 296.284 129.792 293.827 129.984 290.815C130.036 289.994 130.071 289.174 130.088 288.377C130.393 274.827 125.961 265.831 125.57 265.065C125.145 264.291 125.235 263.303 125.859 262.623C129.282 258.889 128.477 254.601 128.441 254.42C128.305 253.738 128.514 253.025 129.001 252.528C129.488 252.031 130.188 251.799 130.873 251.921C140.968 253.722 148.304 251.254 148.377 251.228C149.253 250.926 150.228 251.231 150.772 251.982C157.789 261.659 164.02 265.854 168.012 267.67C168.035 267.681 168.058 267.692 168.081 267.703L168.093 267.709C172.166 269.546 174.701 269.302 174.728 269.301C174.82 269.288 174.913 269.282 175.004 269.282Z" fill="#5C0000"/>
<path d="M28.6702 120.555C28.5584 120.628 28.3347 120.826 28.1642 120.987C27.9811 121.16 27.8013 121.341 27.6285 121.533C27.2764 121.91 26.9567 122.32 26.6527 122.743C26.0555 123.594 25.5828 124.527 25.2698 125.515C25.0897 126.008 25.0208 126.518 24.9158 127.036C24.8947 127.554 24.8089 128.087 24.8754 128.617C24.8944 129.694 25.2225 130.754 25.5943 131.817L25.6199 131.89C25.7575 132.284 25.5499 132.715 25.1562 132.853C24.8094 132.974 24.434 132.827 24.2552 132.522C23.616 131.432 22.9993 130.265 22.7152 128.961C22.5171 128.322 22.4793 127.652 22.3915 126.979C22.3873 126.308 22.3624 125.622 22.4637 124.951C22.6199 123.6 23.0008 122.275 23.555 121.036C23.8376 120.419 24.1486 119.814 24.5104 119.234C24.687 118.942 24.8786 118.656 25.0807 118.373C25.2961 118.078 25.4721 117.833 25.7858 117.487L25.9295 117.328C26.7212 116.454 28.0713 116.387 28.9455 117.178C29.8197 117.97 29.8869 119.32 29.0955 120.194C28.9693 120.333 28.8202 120.457 28.6702 120.555Z" fill="#5C0000"/>
<g opacity="0.2">
<path d="M109.275 158.282C108.312 164.797 82.6726 196.699 73.8113 200.622C74.2023 193.583 75.2732 186.28 77.3004 178.928C78.4134 174.874 79.8211 170.807 81.5597 166.758C81.5597 166.758 55.4809 171.396 33.8237 147.808C33.8237 147.808 16.0347 153.998 2.10791 145.101C2.10791 145.101 2.63134 143.717 3.78635 142.093C11.1859 141.907 22.0987 140.836 25.4376 136.366C25.4376 136.366 22.0446 127.222 25.4376 121.477C25.4376 121.477 29.4584 131.118 35.352 133.652C36.7141 134.238 37.9562 135.076 38.9019 136.218C42.7205 140.829 53.0489 151.427 64.222 146.936C64.222 146.936 79.34 145.251 79.6888 128.455C79.7129 127.595 79.6888 126.704 79.6287 125.766C79.6287 125.766 92.7674 121.795 97.935 122.806C98.7772 122.974 99.4088 123.269 99.7337 123.732C102.086 127.059 110.31 151.315 109.275 158.282Z" fill="#5C0000"/>
</g>
<path d="M97.8995 118.659C97.8995 118.659 97.475 119.084 96.7349 119.907C90.8878 126.415 65.3396 157.794 73.7957 200.847L110.944 121.483L97.8995 118.659Z" fill="#0096F0"/>
<path d="M73.7969 202.653C73.724 202.653 73.6505 202.648 73.5767 202.639C72.8017 202.544 72.1757 201.961 72.0253 201.196C63.3596 157.074 89.9705 124.736 95.393 118.701C96.1559 117.852 96.6042 117.402 96.623 117.383C97.0571 116.949 97.682 116.765 98.2818 116.895L111.326 119.719C111.863 119.835 112.317 120.19 112.561 120.682C112.805 121.174 112.811 121.751 112.578 122.248L75.4306 201.612C75.1313 202.252 74.4904 202.653 73.7969 202.653ZM98.5109 120.638C98.383 120.777 98.2383 120.935 98.078 121.114C93.0934 126.661 69.5137 155.286 74.6373 194.794L108.35 122.768L98.5109 120.638Z" fill="#5C0000"/>
<path d="M226.956 266.909C224.561 277.954 216.693 300.376 191.594 309.303C189.098 310.193 186.385 309.935 184.147 308.695C183.232 308.196 182.402 307.528 181.698 306.71C178.005 302.433 174.587 294.817 181.169 283.772C176.783 283.122 178.534 278.508 178.534 278.508C173.33 277.762 174.202 273.069 174.202 273.069L172.152 272.058C169.823 270.91 169.455 267.741 171.458 266.089L177.75 260.901C179.003 259.868 180.794 259.808 182.113 260.755L188.129 265.074C197.923 258.114 203.722 244.915 203.722 244.915L220.152 255.527L222.979 257.35C226.162 259.401 227.756 263.209 226.956 266.909Z" fill="#0096F0"/>
<path d="M202.05 277.848C202.05 277.848 206.888 277.209 210.657 281.198L204.161 289.9L200.226 287.548C200.226 287.548 202.414 282.289 202.05 277.848Z" fill="#FF1B40"/>
<path d="M193.391 260.432C193.391 260.432 208.198 270.959 200.225 287.549C200.225 287.549 190.453 282.744 181.168 283.773L188.129 265.075L193.391 260.432Z" fill="#FEDA24"/>
<path d="M188.544 311.636C186.719 311.636 184.903 311.177 183.273 310.275C182.163 309.669 181.17 308.864 180.33 307.888C177.054 304.094 172.668 296.182 178.57 284.735C177.829 284.267 177.361 283.693 177.068 283.194C176.413 282.077 176.323 280.836 176.415 279.83C175.191 279.371 174.219 278.645 173.511 277.659C172.646 276.453 172.394 275.139 172.35 274.168L171.354 273.677C169.709 272.866 168.6 271.293 168.388 269.471C168.176 267.649 168.895 265.864 170.31 264.697L176.602 259.509C178.485 257.957 181.184 257.866 183.166 259.289L188.11 262.839C196.76 256.089 202.017 244.312 202.07 244.189C202.284 243.705 202.698 243.339 203.204 243.187C203.71 243.035 204.257 243.113 204.702 243.399L223.958 255.834C227.758 258.283 229.672 262.888 228.72 267.291V267.292C226.025 279.724 217.697 301.935 192.199 311.004C191.014 311.427 189.777 311.636 188.544 311.636ZM175.977 273.4C175.977 273.4 175.784 274.657 176.459 275.575C176.901 276.178 177.686 276.563 178.79 276.722C179.333 276.8 179.81 277.12 180.089 277.592C180.367 278.064 180.416 278.636 180.222 279.148C180.056 279.604 179.822 280.764 180.185 281.373C180.37 281.685 180.791 281.891 181.433 281.987C182.029 282.075 182.541 282.454 182.8 282.998C183.058 283.542 183.028 284.179 182.72 284.696C176.764 294.69 179.62 301.543 183.064 305.531C183.622 306.179 184.277 306.71 185.012 307.112C186.846 308.127 189.021 308.304 190.988 307.604C214.84 299.119 222.656 278.227 225.192 266.527V266.528C225.828 263.586 224.546 260.508 222.002 258.868L204.463 247.542C202.432 251.551 197.107 260.909 189.175 266.546C188.546 266.993 187.704 266.99 187.077 266.541L181.061 262.221C180.408 261.753 179.519 261.782 178.899 262.294L172.607 267.482C172.134 267.873 171.903 268.445 171.974 269.055C172.044 269.664 172.4 270.169 172.951 270.44L175.001 271.452C175.726 271.809 176.125 272.605 175.977 273.4Z" fill="#5C0000"/>
<path d="M226.956 266.909C224.562 277.954 216.693 300.375 191.595 309.303C189.098 310.193 186.385 309.935 184.147 308.695L178.907 302.397C208.144 299.617 217.427 269.309 220.152 255.527L222.98 257.35C226.162 259.401 227.756 263.209 226.956 266.909Z" fill="white"/>
<path d="M188.544 311.636C186.719 311.636 184.903 311.177 183.272 310.275C183.076 310.166 182.902 310.022 182.759 309.85L177.519 303.551C177.092 303.037 176.983 302.328 177.238 301.709C177.493 301.091 178.07 300.664 178.736 300.601C206.942 297.919 215.858 267.941 218.381 255.177C218.497 254.59 218.896 254.099 219.447 253.866C219.997 253.632 220.627 253.686 221.13 254.01L223.957 255.834C227.758 258.283 229.672 262.888 228.72 267.291V267.291C226.025 279.724 217.696 301.935 192.199 311.003C191.013 311.427 189.777 311.636 188.544 311.636ZM185.305 307.266C187.069 308.144 189.122 308.269 190.988 307.603C214.84 299.119 222.656 278.226 225.192 266.527C225.828 263.585 224.546 260.507 222.002 258.867L221.373 258.462C218.171 272.523 208.677 299.25 182.384 303.755L185.305 307.266Z" fill="#5C0000"/>
<path d="M192.216 269.873L191.939 270.964C191.721 271.82 191.183 272.556 190.432 273.021C188.31 274.339 183.587 277.05 178.534 278.508C173.33 277.762 174.202 273.07 174.202 273.07C174.202 273.07 180.996 270.775 186.628 266.338C187.59 265.58 188.869 265.361 190.01 265.803L190.143 265.855C191.751 266.477 192.641 268.202 192.216 269.873Z" fill="white"/>
<path d="M195.789 279.264C188.995 283.249 181.169 283.772 181.169 283.772C176.784 283.122 178.534 278.508 178.534 278.508C182.914 277.321 188.503 274.558 192.1 272.639C194.067 271.59 196.508 272.465 197.371 274.52C198.107 276.273 197.429 278.302 195.789 279.264Z" fill="white"/>
<path d="M181.169 283.772C181.169 283.772 194.154 282.752 204.161 289.899C204.161 289.899 195.726 300.012 178.907 302.397C178.907 302.397 174.339 295.377 181.169 283.772Z" fill="white"/>
<path d="M178.534 280.313C178.448 280.313 178.363 280.307 178.277 280.295C176.15 279.99 174.547 279.103 173.511 277.659C171.969 275.51 172.376 273.017 172.428 272.74C172.547 272.097 173.005 271.569 173.625 271.36C173.689 271.338 180.205 269.101 185.511 264.92C186.977 263.764 188.95 263.458 190.662 264.12L190.798 264.173C193.251 265.122 194.614 267.765 193.965 270.318V270.317L193.687 271.409C193.354 272.723 192.536 273.84 191.384 274.555C188.994 276.038 184.212 278.748 179.034 280.242C178.871 280.289 178.702 280.313 178.534 280.313ZM175.986 274.334C176.04 274.726 176.169 275.182 176.458 275.575C176.85 276.108 177.511 276.473 178.424 276.659C183.219 275.205 187.731 272.573 189.48 271.488C189.835 271.268 190.086 270.924 190.189 270.52L190.467 269.429C190.467 269.428 190.467 269.428 190.467 269.428C190.666 268.643 190.247 267.83 189.492 267.538L189.355 267.485C188.825 267.278 188.222 267.38 187.745 267.755C183.308 271.251 178.255 273.447 175.986 274.334Z" fill="#5C0000"/>
<path d="M181.169 285.577C181.08 285.577 180.992 285.57 180.904 285.557C178.687 285.229 177.594 284.091 177.068 283.194C175.744 280.938 176.73 278.176 176.846 277.868C177.051 277.327 177.503 276.917 178.062 276.766C182.2 275.645 187.518 273.037 191.251 271.047C192.632 270.309 194.272 270.189 195.748 270.714C197.228 271.24 198.426 272.373 199.034 273.822C200.115 276.398 199.113 279.406 196.701 280.821C189.621 284.974 181.626 285.55 181.289 285.573C181.249 285.575 181.209 285.577 181.169 285.577ZM180.032 279.952C179.964 280.443 179.966 281.007 180.184 281.372C180.351 281.653 180.707 281.848 181.245 281.954C182.465 281.84 189.126 281.079 194.876 277.707C195.733 277.204 196.09 276.134 195.706 275.219C195.487 274.696 195.072 274.304 194.538 274.114C194.009 273.928 193.444 273.968 192.949 274.232C189.346 276.153 184.301 278.633 180.032 279.952Z" fill="#5C0000"/>
<path d="M178.907 304.203C178.302 304.203 177.73 303.898 177.394 303.382C177.183 303.057 172.302 295.282 179.614 282.857C179.912 282.349 180.44 282.02 181.028 281.973C181.586 281.93 194.789 280.988 205.21 288.432C205.619 288.723 205.887 289.172 205.951 289.67C206.015 290.168 205.869 290.67 205.547 291.056C205.185 291.491 196.469 301.731 179.16 304.185C179.076 304.197 178.991 304.203 178.907 304.203ZM182.242 285.535C178.055 293.144 179.157 298.324 179.951 300.408C191.267 298.475 198.446 292.883 201.331 290.204C193.808 285.71 185.064 285.473 182.242 285.535Z" fill="#5C0000"/>
<path d="M132.194 288.422C132.176 289.252 132.139 290.095 132.085 290.949C131.833 294.925 128.843 298.204 124.914 298.866C113.941 300.713 90.8283 303.793 72.0767 300.941C68.6597 300.424 65.8984 297.909 65.014 294.57C64.7674 293.632 64.5508 292.609 64.4064 291.532C63.504 284.794 65.4592 276.053 80.2282 273.328C78.8446 269.562 82.7669 267.535 82.9775 267.433C82.9836 267.427 82.9836 267.427 82.9836 267.427C81.269 263.312 85.414 261.802 85.6366 261.73C85.6426 261.724 85.6426 261.724 85.6426 261.724L85.3419 261.435L80.8119 257.103C79.2718 255.635 79.9818 253.121 81.9069 252.561C82.0572 252.513 82.2197 252.483 82.3882 252.465L88.8792 251.761C91.5563 251.466 94.1792 252.706 95.6532 254.962L99.8523 261.375L100.081 261.724L108.22 262.415L127.411 264.046C127.411 264.046 127.411 264.046 127.417 264.052C127.567 264.341 132.518 273.966 132.194 288.422Z" fill="#0096F0"/>
<path d="M93.5833 285.138C93.5833 285.138 90.028 276.421 80.228 273.329C78.8444 269.563 82.7667 267.535 82.9774 267.433C82.9834 267.427 82.9834 267.427 82.9834 267.427C81.2688 263.312 85.4138 261.802 85.6364 261.73C85.6425 261.724 85.6425 261.724 85.6425 261.724L85.3417 261.435C89.3242 261.267 94.8769 261.134 99.852 261.375C103.089 261.531 106.078 261.844 108.22 262.416C108.22 262.416 111.577 281.865 93.5833 285.138Z" fill="#FEDA24"/>
<path d="M101.447 281.946C101.447 281.946 105.135 287.552 104.477 292.558L95.5677 292.806C95.5677 292.806 95.1378 287.926 93.5835 285.138C93.5835 285.138 99.8119 283.31 101.447 281.946Z" fill="#FF1B40"/>
<path d="M89.2659 303.913C83.3531 303.913 77.4027 303.577 71.8052 302.726C67.6932 302.103 64.3421 299.083 63.2694 295.033C62.978 293.924 62.7591 292.828 62.6177 291.772C61.8162 285.789 62.8454 275.465 78.124 271.923C78.0478 269.538 79.4693 267.727 80.8698 266.64C80.6047 265.21 80.8954 264.088 81.2427 263.332C81.6118 262.53 82.1484 261.898 82.7039 261.41L79.5643 258.408C78.3876 257.286 77.9135 255.673 78.299 254.094C78.6817 252.524 79.8713 251.274 81.403 250.828C81.6156 250.76 81.8903 250.703 82.1957 250.671L88.6844 249.967C92.0567 249.596 95.3062 251.132 97.1638 253.975L101.109 260L127.564 262.247C127.988 262.283 128.386 262.468 128.687 262.769C128.817 262.9 128.932 263.055 129.018 263.218C129.235 263.635 134.332 273.599 133.998 288.463C133.979 289.314 133.942 290.188 133.886 291.063C133.579 295.897 130.013 299.837 125.214 300.646C116.869 302.05 103.176 303.913 89.2659 303.913ZM86.1938 263.446C86.1948 263.446 84.9344 263.914 84.5137 264.859C84.2898 265.363 84.3341 265.976 84.6494 266.733C84.9307 267.408 84.7767 268.186 84.2597 268.703C84.1175 268.845 83.9467 268.969 83.7659 269.056C83.4971 269.192 81.1015 270.473 81.922 272.706C82.1056 273.205 82.0595 273.76 81.7959 274.222C81.5325 274.685 81.0787 275.007 80.5556 275.103C69.8522 277.078 65.0208 282.526 66.1951 291.293C66.3169 292.202 66.5068 293.15 66.7596 294.112C67.463 296.768 69.6564 298.749 72.3466 299.157C90.6171 301.935 112.936 299.052 124.614 297.086C127.752 296.558 130.084 293.987 130.284 290.834C130.336 290.009 130.372 289.184 130.389 288.383C130.389 288.383 130.389 288.382 130.389 288.382C130.651 276.71 127.412 268.386 126.231 265.757L99.9277 263.522C99.3756 263.475 98.8758 263.177 98.5718 262.714L94.143 255.95C93.0326 254.251 91.091 253.331 89.0763 253.555L82.5825 254.26C82.4929 254.269 82.4578 254.28 82.4563 254.28C81.9659 254.424 81.8349 254.829 81.8053 254.949C81.7604 255.133 81.7333 255.489 82.0566 255.797L86.8916 260.421C87.2416 260.757 87.4418 261.22 87.4471 261.705C87.4521 262.19 87.2615 262.656 86.9185 263C86.7172 263.201 86.4646 263.358 86.1938 263.446Z" fill="#5C0000"/>
<path d="M132.193 288.421C132.175 289.252 132.139 290.094 132.085 290.948C131.833 294.925 128.843 298.203 124.914 298.865C113.941 300.712 90.8282 303.792 72.0766 300.94C68.6596 300.423 65.8983 297.908 65.0139 294.57C64.7673 293.631 64.5507 292.608 64.4062 291.532C76.5285 292.596 111.523 294.913 132.193 288.421Z" fill="white"/>
<path d="M80.2282 273.328C80.2282 273.328 94.0196 276.963 95.5676 292.806C95.5676 292.806 74.1091 292.979 64.4064 291.532C64.4064 291.532 59.9891 276.681 80.2282 273.328Z" fill="white"/>
<path d="M98.2996 270.236C98.2756 270.23 98.2575 270.224 98.2333 270.218C97.5235 270.025 91.0745 268.281 85.9851 267.655C84.9744 267.529 84.0179 267.45 83.1757 267.438C83.0433 267.432 82.9773 267.432 82.9773 267.432C82.9833 267.426 82.9833 267.426 82.9833 267.426C81.2687 263.311 85.4137 261.801 85.6363 261.729C85.6424 261.723 85.6424 261.723 85.6424 261.723H100.081C100.08 261.723 104.123 266.753 98.2996 270.236Z" fill="white"/>
<path d="M90.064 279.717C90.064 279.717 85.3836 274.615 80.228 273.328C78.8444 269.562 82.7667 267.534 82.9774 267.432C82.9774 267.432 83.0976 267.438 83.3263 267.444C83.7714 267.468 84.6378 267.522 85.7988 267.637C85.859 267.643 85.9191 267.649 85.9853 267.655C88.915 267.955 93.6014 268.647 98.2335 270.217C98.2576 270.217 98.2757 270.23 98.2998 270.236C98.2998 270.236 99.6412 278.628 90.064 279.717Z" fill="white"/>
<path d="M89.2662 303.913C83.3535 303.913 77.4031 303.577 71.8055 302.726C67.6935 302.103 64.3425 299.084 63.2697 295.033C62.9783 293.924 62.7595 292.829 62.618 291.772C62.5453 291.229 62.7233 290.682 63.1017 290.286C63.4804 289.89 64.0205 289.689 64.5646 289.735C75.0915 290.66 111.041 293.173 131.653 286.701C132.208 286.527 132.813 286.631 133.277 286.98C133.742 287.329 134.011 287.881 133.998 288.462C133.98 289.313 133.942 290.188 133.886 291.063C133.58 295.897 130.013 299.838 125.214 300.646C116.87 302.05 103.176 303.913 89.2662 303.913ZM66.614 293.53C66.6601 293.723 66.7088 293.917 66.7599 294.112C67.4633 296.768 69.6568 298.75 72.3469 299.157C90.6174 301.935 112.936 299.052 124.615 297.086C127.745 296.559 130.072 294 130.283 290.858C110.62 296.162 80.9516 294.685 66.614 293.53Z" fill="#5C0000"/>
<path d="M93.2254 294.619C87.3456 294.619 72.0634 294.499 64.1404 293.318C63.4471 293.214 62.8765 292.719 62.6767 292.047C62.6017 291.796 60.8858 285.825 64.4115 280.186C67.2191 275.695 72.4416 272.789 79.9334 271.548C80.1844 271.507 80.4417 271.518 80.6882 271.583C80.8384 271.623 95.7128 275.734 97.3641 292.631C97.4133 293.135 97.2485 293.637 96.9095 294.014C96.5707 294.391 96.089 294.607 95.5824 294.611C95.4186 294.613 94.5665 294.619 93.2254 294.619ZM65.9272 289.917C73.9605 290.908 88.2092 291.007 93.5012 291.008C91.4407 279.421 82.0972 275.818 80.1162 275.179C73.9366 276.27 69.6919 278.584 67.4972 282.06C65.6064 285.054 65.7033 288.272 65.9272 289.917Z" fill="#5C0000"/>
<path d="M98.2998 272.041C98.1533 272.041 98.0064 272.023 97.8619 271.987C97.8436 271.983 97.7917 271.969 97.7734 271.964C96.588 271.643 90.4927 270.028 85.765 269.447C84.7692 269.323 83.8906 269.254 83.1498 269.244C83.131 269.244 83.1124 269.243 83.0936 269.242L82.9687 269.238C82.2417 269.231 81.5858 268.789 81.3109 268.116C81.2954 268.078 81.2813 268.04 81.2685 268.002C80.4362 265.914 80.7915 264.314 81.2424 263.333C82.2231 261.2 84.385 260.271 84.9467 260.06C85.1655 259.969 85.4021 259.919 85.642 259.919H100.08C100.627 259.919 101.144 260.167 101.487 260.593C101.717 260.88 103.722 263.486 103.151 266.672C102.782 268.728 101.462 270.448 99.226 271.785C98.944 271.954 98.6233 272.041 98.2998 272.041ZM84.3781 265.685C84.9476 265.723 85.5598 265.784 86.2092 265.865C90.5119 266.394 95.6874 267.68 97.9844 268.284C98.9097 267.606 99.4516 266.852 99.598 266.035C99.7683 265.085 99.4087 264.139 99.0894 263.529H86.0025C85.6339 263.7 84.8324 264.143 84.5135 264.859C84.4034 265.107 84.3583 265.381 84.3781 265.685Z" fill="#5C0000"/>
<path d="M90.0639 281.523C89.5622 281.523 89.0792 281.313 88.7353 280.939C88.692 280.892 84.3455 276.217 79.7908 275.079C79.211 274.935 78.7403 274.512 78.5342 273.951C76.9641 269.678 80.2384 266.757 82.189 265.81C82.4623 265.677 82.7666 265.616 83.0677 265.631C83.078 265.631 83.1834 265.636 83.3737 265.641C83.9652 265.672 84.8474 265.73 85.9756 265.842L86.1489 265.858C89.3121 266.183 94.0372 266.899 98.7416 268.485C98.7767 268.494 98.8113 268.504 98.8446 268.515C99.4923 268.72 99.9738 269.274 100.082 269.951C100.109 270.122 100.721 274.169 98.1898 277.502C96.4753 279.759 93.8099 281.108 90.2678 281.51C90.1998 281.519 90.1318 281.523 90.0639 281.523ZM81.754 271.899C85.7766 273.266 89.2799 276.396 90.712 277.801C92.8014 277.426 94.3474 276.593 95.3153 275.319C96.2813 274.047 96.5175 272.551 96.5542 271.571C92.5123 270.323 88.5277 269.731 85.8013 269.451L85.6192 269.434C84.6817 269.341 83.9278 269.288 83.4167 269.258C82.8128 269.643 81.6943 270.544 81.754 271.899Z" fill="#5C0000"/>
<path d="M155.643 117.896C135.46 160.272 149.068 212.61 149.068 212.61C137.469 240.066 149.068 253.217 149.068 253.217C149.068 253.217 141.331 255.924 130.503 253.993C69.7845 250.131 69.7845 198.298 81.5576 166.588C89.6851 144.696 98.6788 129.434 103.467 122.083C105.615 118.786 106.915 117.083 106.915 117.083L159.12 111.29C157.863 113.456 156.708 115.664 155.643 117.896Z" fill="#FFDF46"/>
<path d="M138.34 256.496C135.931 256.496 133.221 256.304 130.287 255.788C107.785 254.335 91.6547 246.331 82.3471 231.996C69.6825 212.491 72.7614 185.095 79.8658 165.96C88.0909 143.805 97.236 128.343 101.955 121.098C104.115 117.783 105.425 116.06 105.48 115.989C105.779 115.597 106.225 115.344 106.715 115.29L158.921 109.496C159.601 109.419 160.26 109.734 160.632 110.305C161.005 110.875 161.023 111.607 160.681 112.196C159.492 114.245 158.345 116.424 157.272 118.673C137.615 159.944 150.68 211.639 150.815 212.156C150.914 212.54 150.885 212.947 150.731 213.312C139.774 239.248 150.32 251.905 150.428 252.03C150.818 252.482 150.963 253.102 150.808 253.679C150.655 254.256 150.228 254.723 149.664 254.921C149.419 255.006 145.057 256.496 138.34 256.496ZM107.899 118.79C107.353 119.544 106.337 120.985 104.98 123.068C100.343 130.187 91.3529 145.389 83.2497 167.216C76.4505 185.529 73.4383 211.647 85.3744 230.03C94.0408 243.378 109.263 250.834 130.618 252.193C130.685 252.197 130.753 252.205 130.82 252.217C137.642 253.433 143.174 252.729 146.131 252.115C143.232 247.148 138.203 234.121 147.172 212.465C146.493 209.671 143.767 197.609 142.984 181.23C142.172 164.252 143.427 139.348 154.014 117.12C154.014 117.12 154.015 117.119 154.015 117.119C154.606 115.879 155.219 114.66 155.85 113.469L107.899 118.79Z" fill="#5C0000"/>
<path d="M128.474 156.489C106.326 156.489 90.6038 147.001 89.7873 146.498C88.9385 145.976 88.6744 144.864 89.197 144.015C89.7191 143.167 90.8297 142.902 91.6789 143.424C91.9174 143.571 115.827 157.95 145.4 150.891C146.369 150.66 147.343 151.258 147.574 152.228C147.806 153.197 147.207 154.171 146.238 154.402C140.001 155.891 134.035 156.489 128.474 156.489Z" fill="#5C0000"/>
<path d="M117.263 219.976C109.718 219.976 103.015 219.116 97.5916 218.044C84.1338 215.384 75.6294 210.99 75.2741 210.804C74.3907 210.343 74.0486 209.252 74.5102 208.369C74.9719 207.485 76.063 207.144 76.9457 207.605C77.3387 207.808 110.671 224.756 148.447 210.915C149.383 210.572 150.419 211.053 150.762 211.989C151.105 212.925 150.624 213.962 149.688 214.305C138.107 218.548 126.985 219.976 117.263 219.976Z" fill="#5C0000"/>
<path d="M117.922 249.386C102.753 249.386 93.2156 243.569 92.6246 243.199C91.7803 242.669 91.5248 241.556 92.0541 240.711C92.583 239.867 93.6954 239.612 94.5397 240.139C94.7852 240.291 115.245 252.632 143.694 240.019C144.605 239.615 145.671 240.027 146.075 240.938C146.479 241.849 146.068 242.915 145.157 243.319C134.904 247.865 125.676 249.386 117.922 249.386Z" fill="#5C0000"/>
<g opacity="0.2">
<path d="M207.25 247.359C198.684 246.446 192.897 244.372 189.154 242.411C186.288 240.911 185.453 237.108 187.564 234.657C205.407 213.934 168.279 138.526 168.279 138.526C132.262 149.601 99.7943 135.235 84.5801 126.428C90.0966 124.34 96.5577 122.578 103.091 122.283L103.47 122.253L155.646 118.066L171.106 116.827C171.106 116.827 178.073 144.716 188.516 168.69C198.96 192.669 205.92 225.155 197.414 241.013L203.725 245.085L207.25 247.359Z" fill="#5C0000"/>
</g>
<g opacity="0.2">
<path d="M222.981 257.52L220.153 255.697L214.492 252.039C213.62 257.002 211.629 265.328 207.249 274.16C200.289 288.201 194.105 267.603 194.105 267.603C134.845 258.83 154.267 213.026 154.267 213.026L153.106 206.752C177.086 188.963 170.155 166.066 170.155 166.066C139.294 201.885 79.935 176.101 79.935 176.101L77.3 178.928C75.1464 186.743 74.0696 194.503 73.7507 201.951C84.5311 205.458 95.5643 203.269 95.5643 203.269C113.973 212.714 138.794 209.375 138.794 209.375C138.794 209.375 133.771 233.047 114.635 238.077C99.1196 242.155 80.8013 226.658 74.4245 220.655C72.9325 219.247 72.0963 218.363 72.0963 218.363C72.9746 220.113 73.8649 221.804 74.7613 223.428C91.9547 254.482 112.89 262.982 112.89 262.982C112.89 262.982 122.943 275.201 117.288 282.113C111.639 289.031 93.585 285.307 93.585 285.307C79.2371 289.536 70.4539 286.24 65.5689 282.642C64.1553 285.614 64.0229 288.839 64.4079 291.702C64.5523 292.779 64.7689 293.802 65.0155 294.74C65.8999 298.079 68.6612 300.594 72.0782 301.111C90.8296 303.963 113.943 300.883 124.916 299.036C128.844 298.374 131.834 295.095 132.087 291.119C132.141 290.265 132.177 289.422 132.195 288.592C132.52 274.136 127.569 264.511 127.418 264.222C127.412 264.216 127.412 264.216 127.412 264.216C131.666 259.577 130.505 254.163 130.505 254.163C141.333 256.094 149.07 253.387 149.07 253.387C156.096 263.079 162.473 267.633 167.141 269.756L167.189 269.78C171.996 271.958 174.98 271.561 174.98 271.561L178.535 278.678L181.17 283.942C174.589 294.987 178.006 302.603 181.7 306.88C182.404 307.699 183.234 308.366 184.148 308.866C186.386 310.105 189.099 310.364 191.596 309.473C216.694 300.546 224.563 278.124 226.957 267.079C227.758 263.379 226.163 259.571 222.981 257.52ZM185.827 294.012C182.241 294.012 179.336 292.244 179.336 290.066C179.336 287.894 182.241 286.125 185.827 286.125C189.412 286.125 192.324 287.894 192.324 290.066C192.324 292.243 189.412 294.012 185.827 294.012Z" fill="#5C0000"/>
</g>
<path d="M201.715 190.761C201.715 190.761 151.778 207.094 137.851 173.519C137.183 171.913 136.642 170.295 136.209 168.676C136.034 168.027 135.884 167.377 135.745 166.727C135.469 165.434 135.258 164.128 135.114 162.835V162.829C134.855 160.519 134.789 158.221 134.891 155.941C134.933 154.924 135.011 153.913 135.12 152.909C135.156 152.602 135.186 152.301 135.222 151.994C135.228 151.94 135.234 151.886 135.246 151.826C135.33 151.188 135.421 150.551 135.523 149.913C135.577 149.588 135.637 149.257 135.697 148.926C135.757 148.601 135.818 148.271 135.884 147.946C136.004 147.32 136.136 146.694 136.287 146.081C136.365 145.732 136.449 145.383 136.539 145.034C136.624 144.715 136.702 144.396 136.792 144.077C136.858 143.819 136.931 143.56 137.003 143.307C137.105 142.928 137.213 142.555 137.328 142.182C138.314 138.904 139.529 135.763 140.853 132.84C140.955 132.605 141.057 132.376 141.166 132.148C141.497 131.426 141.833 130.722 142.17 130.036C142.303 129.778 142.435 129.513 142.567 129.254C143.65 127.107 144.769 125.109 145.858 123.286C146.087 122.902 146.321 122.522 146.544 122.155C146.953 121.5 147.35 120.868 147.735 120.273C147.855 120.08 147.976 119.894 148.096 119.713C148.337 119.346 148.577 118.991 148.806 118.648C148.986 118.384 149.161 118.125 149.335 117.872C149.42 117.746 149.504 117.619 149.594 117.499C149.762 117.253 149.931 117.018 150.093 116.783C150.256 116.555 150.412 116.332 150.569 116.116C150.725 115.899 150.875 115.688 151.026 115.49C151.098 115.388 151.17 115.291 151.242 115.195C152.806 113.072 153.829 111.88 153.829 111.88L154.641 113.234L157.926 118.72L162.667 126.625C162.667 126.625 157.71 133.11 155.02 142.182C152.8 149.648 152.115 158.87 156.988 167.666C165.759 183.493 197.426 173.014 197.426 173.014L200.248 184.685L201.715 190.761Z" fill="#0096F0"/>
<g opacity="0.2">
<path d="M201.715 190.93C201.715 190.93 151.777 207.263 137.85 173.688C133.477 163.13 134.391 152.109 137.327 142.351C137.465 141.9 137.604 141.449 137.748 141.004C137.862 140.655 137.977 140.312 138.091 139.969C138.38 139.121 138.68 138.279 138.999 137.454C139.108 137.16 139.222 136.871 139.336 136.576C139.823 135.355 140.329 134.164 140.852 133.009C140.954 132.774 141.057 132.546 141.165 132.317C141.496 131.595 141.833 130.891 142.17 130.205C142.302 129.947 142.434 129.682 142.567 129.423C142.886 128.786 143.21 128.166 143.535 127.558C143.764 127.137 143.986 126.722 144.209 126.319C144.763 125.32 145.316 124.37 145.857 123.456C146.086 123.071 146.321 122.692 146.543 122.325C146.952 121.669 147.349 121.037 147.734 120.442C147.855 120.249 147.975 120.063 148.095 119.882C148.336 119.515 148.577 119.16 148.805 118.817C149.696 118.829 150.586 118.835 151.47 118.841C153.756 118.859 155.97 118.877 157.925 118.89L162.666 126.794C162.666 126.794 157.709 133.28 155.02 142.352H149.372C145.656 142.352 142.648 145.342 142.588 149.057C142.501 154.454 143.356 159.959 145.587 165.344C155.754 189.871 185.141 187.765 200.247 184.854L201.715 190.93Z" fill="#5C0000"/>
</g>
<path d="M176.796 196.738C176.411 196.738 176.025 196.735 175.637 196.73C155.817 196.444 142.174 188.656 136.185 174.209C131.062 161.855 132.275 146.928 139.691 131.044C145.232 119.176 152.17 111.042 152.462 110.702C152.841 110.262 153.407 110.031 153.984 110.08C154.562 110.129 155.081 110.453 155.379 110.951L164.212 125.699C164.592 126.333 164.547 127.134 164.099 127.721C163.941 127.928 148.483 148.59 158.568 166.794C166.507 181.125 196.558 171.4 196.861 171.3C197.321 171.149 197.823 171.187 198.254 171.41C198.685 171.632 199.008 172.018 199.151 172.481L204.757 190.615C205.051 191.566 204.52 192.576 203.569 192.872C203.049 193.034 190.975 196.738 176.796 196.738ZM153.622 115.042C147.983 122.441 129.701 149.147 139.519 172.827C144.983 186.005 157.125 192.833 175.608 193.119C186.661 193.292 196.816 190.952 200.762 189.911L196.234 175.264C189.206 177.284 163.649 183.415 155.411 168.543C145.39 150.454 157.31 131.154 160.506 126.536L153.622 115.042Z" fill="#5C0000"/>
<path d="M15.7132 57.1287C15.4906 60.1774 15.835 63.2129 16.5987 66.0592C18.4292 72.8876 22.6645 78.6345 27.2263 80.8322C28.9131 81.6536 30.649 81.9835 32.3201 81.7018C32.3201 81.7018 25.1687 121.086 71.0361 114.462C71.0361 114.462 105.112 133.039 143.92 134.035C155.76 134.341 168.038 133.006 179.923 129.019C222.981 114.559 206.979 76.5478 208.245 64.4326C208.544 61.5325 208.541 57.4722 208.107 52.896C207.208 43.5251 204.517 31.9842 199 23.7319C195.957 19.1785 192.049 15.6169 187.103 13.9779C187.103 13.9779 176.825 1.90943 161.114 8.15789C161.114 8.15789 143.767 -3.62845 118.875 6.63106C118.875 6.63106 95.4508 -7.74376 89.2861 22.4988C89.2858 22.5049 89.2797 22.5046 89.2794 22.5105C88.7873 24.943 88.4008 27.664 88.1486 30.7052C88.1486 30.7052 87.2686 30.9492 86.0458 31.5371C86.0395 31.5427 86.0335 31.5424 86.0335 31.5424C84.6931 32.1905 82.9521 33.2519 81.5266 34.8534C81.5266 34.8534 70.816 31.0996 64.1941 35.2479C64.1941 35.2479 42.2406 25.7855 24.154 40.8877C18.6031 45.5243 16.1363 51.3433 15.7132 57.1287Z" fill="#58DA3F"/>
<g opacity="0.6">
<path d="M89.2861 22.4982C98.9226 0.204214 122.017 10.3335 122.017 10.3335C124.549 9.82474 126.911 9.45795 129.104 9.20897C129.079 11.0992 132.822 12.8211 137.52 13.062C142.267 13.3053 146.192 11.9463 146.29 10.0298C146.295 9.9216 146.289 9.81282 146.27 9.70354C152.5 11.0951 154.936 13.5091 154.936 13.5091C176.886 5.53235 189.853 21.6782 189.853 21.6782C197.213 25.8083 204.142 41.9941 208.107 52.8956C207.208 43.5246 204.517 31.9837 199 23.7314C195.957 19.178 192.049 15.6164 187.104 13.9774C187.104 13.9774 176.825 1.90894 161.114 8.1574C161.114 8.1574 143.767 -3.62894 118.875 6.63057C118.875 6.63057 95.4508 -7.74435 89.2861 22.4982Z" fill="white"/>
</g>
<g opacity="0.6">
<path d="M15.7132 57.1288C15.4906 60.1776 15.835 63.213 16.5987 66.0593C18.2859 53.1224 26.3977 40.5931 44.1485 38.2683C63.8704 35.6831 78.5293 51.7229 78.934 52.1714L68.6195 38.2216C78.0997 36.8342 97.6959 47.513 98.2525 47.8186L85.6696 38.6378C97.817 30.8152 121.447 40.2489 122.06 40.4973C104.139 25.8202 86.5846 31.3658 86.0457 31.5369C86.0394 31.5426 86.0334 31.5423 86.0334 31.5423C84.693 32.1904 82.952 33.2517 81.5266 34.8532C81.5266 34.8532 70.8159 31.0995 64.194 35.2477C64.194 35.2477 42.2405 25.7854 24.1539 40.8875C18.6031 45.5245 16.1363 51.3435 15.7132 57.1288Z" fill="white"/>
</g>
<path d="M32.3202 81.7009C32.3202 81.7009 25.1689 121.085 71.0363 114.461C71.0363 114.461 105.112 133.038 143.921 134.034C170.525 125.971 165.362 91.3222 149.723 81.1354C132.404 69.8566 127.401 87.6715 115.466 93.6979C103.525 99.7179 92.7092 97.0852 82.8107 94.4093C72.9123 91.7333 64.0822 91.5998 53.5509 88.8131C43.0196 86.0264 39.5971 78.9959 39.5971 78.9959C34.5889 81.2751 30.4969 81.5473 27.2266 80.8315C28.9132 81.6527 30.6493 81.9826 32.3202 81.7009Z" fill="#FFDF46"/>
<g opacity="0.2">
<path d="M27.226 81.0012C28.9127 81.8226 30.6487 82.1525 32.3197 81.8708C32.3197 81.8708 25.1684 121.255 71.0358 114.631C71.0358 114.631 105.112 133.208 143.92 134.204C155.759 134.51 168.038 133.175 179.922 129.188C222.981 114.728 206.979 76.7168 208.244 64.6016C209.161 55.7575 207.219 36.1891 199 23.9009C199.971 32.1068 200.645 47.3876 195.621 63.846C195.621 63.846 203.067 108.37 177.53 115.452C152 122.535 119.691 111.324 127.727 82.1777C127.727 82.1777 111.94 91.4341 103.197 89.9558C94.4538 88.4776 76.3092 79.8008 64.9323 82.6993C53.5491 85.6036 39.3781 67.4503 39.3781 67.4503C39.3781 67.4503 23.5372 81.8707 15.7131 57.2979C14.9533 67.6498 20.7655 77.887 27.226 81.0012Z" fill="#5C0000"/>
</g>
<path d="M147.127 136.482C146.043 136.482 144.954 136.468 143.858 136.44C107.53 135.508 75.8311 119.695 70.5954 116.953C55.4897 118.992 44.2803 116.342 37.2692 109.072C29.3985 100.912 29.2145 89.3712 29.619 84.0883C28.4707 83.9154 27.3114 83.5495 26.1752 82.9963C19.8017 79.9201 14.5731 71.5014 13.4597 62.5201C12.3125 53.2656 15.5624 44.927 22.6114 39.0403C39.4454 24.9837 59.0848 30.7981 64.0119 32.5944C69.9231 29.6452 77.6409 31.2491 80.8442 32.131C82.6133 30.5339 84.5602 29.5323 85.8908 28.9711C87.28 15.1675 91.6529 6.31472 98.8987 2.64406C107.022 -1.47146 115.963 2.37721 119.039 3.97162C141.009 -4.62383 157.102 3.04402 161.368 5.49281C175.898 0.386008 186.146 9.56148 188.447 11.8971C208.536 19.1978 211.797 53.5335 210.638 64.681C210.414 66.826 210.839 70.1945 211.332 74.0951C212.37 82.3174 213.792 93.5783 210.427 104.241C206.427 116.912 196.421 126.016 180.689 131.3C170.427 134.743 159.151 136.482 147.127 136.482ZM71.0356 112.055C71.4363 112.055 71.8325 112.155 72.1873 112.348C72.5233 112.531 106.236 130.661 143.982 131.629C156.67 131.959 168.505 130.311 179.157 126.737C211.747 115.793 208.624 91.0625 206.557 74.6981C206.027 70.5018 205.57 66.8777 205.851 64.182C207.036 52.78 202.974 21.781 186.345 16.2608C185.928 16.1224 185.556 15.8722 185.271 15.5373C184.898 15.1055 175.858 4.88238 162.003 10.3931C161.261 10.6883 160.421 10.5963 159.761 10.1474C159.097 9.70096 143.094 -0.749894 119.792 8.85492C119.08 9.14837 118.272 9.08386 117.616 8.68092C117.529 8.62823 108.43 3.19121 101.051 6.94815C95.1461 9.95559 91.6116 18.0149 90.5461 30.9027C90.4631 31.907 89.7632 32.7531 88.7922 33.0229C88.7687 33.0297 85.5185 33.9818 83.325 36.4509C82.6766 37.1803 81.6519 37.4464 80.7301 37.1234C80.6365 37.0909 71.0189 33.8103 65.4708 37.2864C64.8007 37.7064 63.967 37.7701 63.241 37.4569C62.4012 37.0981 42.3904 28.7948 25.6955 42.734C17.9374 49.2133 17.6914 57.5405 18.2353 61.9275C19.2654 70.2361 24.0635 76.6359 28.2706 78.6638C28.2736 78.6651 28.2767 78.6666 28.2797 78.6681C29.5688 79.2963 30.7938 79.5182 31.9195 79.3282C32.6921 79.1975 33.4808 79.4523 34.0317 80.0105C34.5827 80.5682 34.8271 81.3596 34.6872 82.131C34.6617 82.274 32.1733 96.884 40.7538 105.753C46.7525 111.954 56.825 114.083 70.6918 112.08C70.8064 112.063 70.9213 112.055 71.0356 112.055Z" fill="#5C0000"/>
<path d="M81.9664 32.5245C82.3029 32.6918 82.5452 32.8252 82.8165 32.9779C83.0833 33.1249 83.3408 33.2761 83.5953 33.4285C84.1119 33.7285 84.6029 34.0482 85.1004 34.3629C86.0809 35.0073 87.0423 35.6682 87.9709 36.3673C89.8301 37.7618 91.6177 39.2315 93.2884 40.8206C94.9582 42.4082 96.5684 44.0495 98.0389 45.8078C99.5422 47.5348 100.892 49.3838 102.193 51.2481C102.456 51.6246 102.364 52.1429 101.987 52.4057C101.638 52.6495 101.166 52.5875 100.89 52.2763L100.871 52.2549C99.3995 50.5999 97.9 48.9817 96.2697 47.5017C94.6726 45.9911 92.9589 44.6139 91.212 43.3044C89.4647 41.9934 87.6261 40.815 85.7554 39.7275C84.8208 39.1818 83.8654 38.6795 82.9077 38.1993C82.4264 37.9694 81.9457 37.7305 81.4632 37.5226C81.2222 37.414 80.9817 37.3082 80.7438 37.2121C80.5138 37.1148 80.2488 37.0102 80.0735 36.9492C78.8149 36.5124 78.1489 35.1382 78.5857 33.8796C79.0225 32.6211 80.3969 31.955 81.6556 32.3918C81.7489 32.4242 81.8386 32.4616 81.9252 32.5039L81.9664 32.5245Z" fill="#5C0000"/>
<path d="M65.4943 33.2382C65.6781 33.3412 65.798 33.4198 65.9318 33.5035C66.0677 33.5872 66.1914 33.6707 66.3145 33.7542C66.5643 33.9205 66.8093 34.0888 67.0425 34.2625C67.5227 34.6006 67.9703 34.9642 68.4252 35.3195C69.3137 36.0517 70.167 36.8128 70.9752 37.6142C72.5939 39.2135 74.0624 40.9466 75.3291 42.8097C76.6004 44.6653 77.7261 46.6138 78.5935 48.6676C78.8052 49.1831 79.0657 49.6738 79.2334 50.206L79.7849 51.7747C79.9847 52.2898 80.1069 52.8323 80.2523 53.3641L80.6754 54.9592C80.7787 55.3495 80.5465 55.7494 80.1563 55.853C79.7974 55.948 79.4301 55.7589 79.2929 55.4241L79.2703 55.3687L78.6704 53.9077C78.4673 53.4237 78.2896 52.9319 78.036 52.471L77.33 51.0725C77.1126 50.5998 76.8044 50.1715 76.5478 49.7209C75.5004 47.9269 74.2321 46.2792 72.8631 44.7507C71.5 43.2155 69.9766 41.8351 68.3604 40.6083C67.5535 39.9931 66.7169 39.4249 65.8682 38.8928C65.4377 38.6403 65.0123 38.3767 64.5781 38.1504C64.3624 38.029 64.1473 37.9203 63.9333 37.8154C63.8258 37.7613 63.7187 37.7073 63.6181 37.6635C63.517 37.6174 63.4029 37.5636 63.3476 37.5454C62.0765 37.1228 61.3886 35.7499 61.8109 34.4788C62.2334 33.2077 63.6063 32.5198 64.8773 32.9424C65.0212 32.99 65.1579 33.0502 65.286 33.1209L65.4943 33.2382Z" fill="#5C0000"/>
<path d="M31.8853 79.8601C32.45 79.7368 33.081 79.5753 33.6722 79.4092C34.2705 79.24 34.8648 79.0584 35.4416 78.8576C36.0166 78.6572 36.5874 78.4478 37.115 78.2081C37.6411 77.9701 38.1416 77.7098 38.5468 77.4372C39.4085 76.8579 40.5766 77.0867 41.1558 77.9484L41.156 77.9486L41.1798 77.9842C41.4152 78.3342 41.7367 78.7731 42.0397 79.1623C42.3501 79.5618 42.6737 79.9548 43.0034 80.3424C43.6681 81.1143 44.3668 81.8587 45.0968 82.5657C46.5512 83.9853 48.1286 85.2652 49.8194 86.3169C51.5066 87.3749 53.3131 88.1904 55.1823 88.6801C55.6489 88.8073 56.1209 88.8998 56.5936 88.9876C57.0753 89.057 57.5181 89.1252 58.0695 89.1728C59.124 89.2844 60.1823 89.3677 61.2402 89.4627C63.3589 89.6405 65.4912 89.7616 67.6628 89.9101C69.8331 90.0594 72.0461 90.26 74.2455 90.5999C76.4458 90.9359 78.6218 91.4042 80.7584 91.9576C82.8914 92.511 85.0048 93.1843 87.02 93.8158C89.0516 94.4397 91.0753 95.0049 93.1123 95.4367C95.1488 95.8598 97.1977 96.1472 99.2478 96.2384C103.348 96.4442 107.439 95.7476 111.254 94.2205C115.083 92.7071 118.554 90.2967 121.697 87.5156C124.843 84.717 127.626 81.4809 130.206 78.0835L130.209 78.0788C130.484 77.7166 131.001 77.646 131.363 77.921C131.709 78.1841 131.787 78.6703 131.553 79.0289C129.16 82.667 126.435 86.1195 123.299 89.2298C120.129 92.2913 116.507 95.0134 112.369 96.8442C110.308 97.7598 108.14 98.4769 105.91 98.9057C103.682 99.3466 101.405 99.5193 99.1481 99.472C96.8895 99.4269 94.6499 99.1663 92.4568 98.7664C90.2654 98.3579 88.1198 97.8127 86.0167 97.2232C83.9003 96.6286 81.9012 96.0059 79.8549 95.5005C77.8135 94.9965 75.7657 94.5809 73.7017 94.2895C69.5907 93.6909 65.3129 93.6505 60.9403 93.3271C59.8502 93.2474 58.7614 93.1453 57.6726 93.0327C57.1503 92.9876 56.5261 92.8993 55.9426 92.81C55.3556 92.702 54.7707 92.5838 54.197 92.4273C51.8957 91.8202 49.7353 90.8285 47.7744 89.5952C45.8084 88.3642 44.0194 86.911 42.4005 85.3109C41.5936 84.5075 40.8275 83.6684 40.0978 82.797C39.7352 82.3592 39.3799 81.9151 39.0356 81.459C38.6847 80.9915 38.3705 80.5595 38.0129 80.0101L40.6457 80.5567C39.9564 81.0063 39.2816 81.3339 38.6113 81.627C37.9409 81.9189 37.2769 82.1514 36.6121 82.3725C35.9474 82.5907 35.2823 82.772 34.6158 82.9438C33.9413 83.1143 33.299 83.2638 32.5803 83.4024C31.6016 83.5913 30.6552 82.9508 30.4666 81.972C30.2808 81.0091 30.8979 80.0773 31.8504 79.8682L31.8853 79.8601Z" fill="#5C0000"/>
<path d="M132.684 91.2362C132.508 89.3028 132.268 87.3689 131.847 85.5539C131.431 83.7346 130.847 82.0111 130.018 80.4983C129.611 79.7364 129.116 79.0498 128.577 78.4141C128.03 77.7859 127.446 77.1874 126.761 76.6869C125.429 75.6294 123.799 74.8796 121.999 74.1153L121.948 74.0935C121.515 73.9096 121.313 73.4096 121.497 72.9766C121.627 72.6697 121.918 72.479 122.229 72.4595C122.761 72.4274 123.301 72.4016 123.842 72.4387C124.378 72.4976 124.928 72.5322 125.464 72.6692C126.548 72.8845 127.611 73.3076 128.607 73.8683C130.606 75.0005 132.215 76.8422 133.179 78.8716C134.159 80.9048 134.613 83.0819 134.686 85.2036C134.732 87.3349 134.498 89.4105 133.79 91.4171C133.686 91.7132 133.361 91.8687 133.065 91.7642C132.849 91.6879 132.708 91.4941 132.688 91.28L132.684 91.2362Z" fill="#5C0000"/>
<path d="M162.527 10.1985C162.184 10.3236 161.736 10.5295 161.338 10.7216C160.929 10.9176 160.522 11.128 160.118 11.3462C159.31 11.7842 158.521 12.2627 157.754 12.7783C156.225 13.814 154.801 15.0131 153.622 16.4625L153.605 16.4839C153.376 16.7657 152.962 16.8087 152.68 16.5794C152.45 16.3924 152.38 16.0808 152.486 15.8198C152.873 14.876 153.334 13.9481 153.875 13.0714C154.42 12.2005 155.012 11.3489 155.66 10.5478C156.307 9.74457 156.993 8.97021 157.716 8.2277C158.079 7.85731 158.449 7.49248 158.833 7.13586C159.226 6.77102 159.584 6.44326 160.065 6.06261L160.167 5.98239C161.226 5.14333 162.765 5.32214 163.604 6.38163C164.443 7.44112 164.264 8.98007 163.205 9.81882C162.997 9.98286 162.762 10.1113 162.527 10.1985Z" fill="#5C0000"/>
<path d="M189.53 13.0259C189.639 13.2465 189.673 13.3578 189.731 13.5095C189.786 13.6543 189.827 13.7889 189.874 13.9271C189.961 14.2009 190.042 14.4692 190.11 14.7368C190.254 15.2712 190.368 15.7997 190.466 16.3269C190.661 17.3806 190.78 18.4265 190.851 19.4632C190.905 20.5022 190.926 21.5293 190.876 22.5481C190.839 23.5655 190.734 24.5721 190.61 25.5643C190.582 25.7809 190.385 25.9344 190.168 25.9073C189.997 25.8858 189.866 25.7589 189.831 25.6004L189.829 25.5891C189.618 24.6309 189.389 23.6883 189.101 22.7692C188.824 21.8484 188.484 20.9549 188.124 20.0868C187.748 19.2234 187.338 18.3876 186.881 17.6009C186.653 17.2082 186.414 16.8255 186.164 16.4672C186.042 16.2856 185.912 16.1133 185.785 15.9489C185.721 15.8692 185.658 15.7836 185.595 15.7144C185.539 15.6502 185.456 15.5479 185.438 15.5589C184.739 14.4289 185.088 12.9459 186.218 12.2463C187.348 11.5469 188.831 11.8959 189.53 13.0259Z" fill="#5C0000"/>
<path d="M58.3999 58.876C58.5445 56.0556 57.1823 53.6934 55.3573 53.5998C53.5323 53.5062 51.9357 55.7168 51.7911 58.5372C51.6465 61.3576 53.0087 63.7199 54.8337 63.8134C56.6587 63.907 58.2553 61.6965 58.3999 58.876Z" fill="#5C0000"/>
<path d="M33.1279 52.4605C33.2725 49.6401 31.9103 47.2778 30.0853 47.1843C28.2604 47.0907 26.6637 49.3013 26.5191 52.1217C26.3745 54.9421 27.7368 57.3044 29.5617 57.3979C31.3867 57.4915 32.9833 55.2809 33.1279 52.4605Z" fill="#5C0000"/>
<path d="M110.944 95.8943C114.264 94.6007 117.673 92.5948 121.133 89.6098C119.724 86.7967 116.904 83.1584 111.247 79.6577C111.247 79.6577 111.418 88.184 110.944 95.8943Z" fill="white"/>
<path d="M92.709 97.0859C93.2818 107.181 99.6852 111.292 99.6852 111.292C100.848 106.232 102.866 102.118 103.09 97.7446C99.4404 98.0876 95.9528 97.7342 92.709 97.0859Z" fill="white"/>
<path d="M72.2368 92.2111C75.2668 92.5652 78.5306 93.1723 82.8103 94.4097C82.9704 90.8156 82.626 85.4308 80.2277 79.5732C80.2277 79.5732 74.4916 82.538 72.2368 92.2111Z" fill="white"/>
<path d="M59.0155 105.593C58.1465 101.157 59.3518 95.2729 60.4267 91.3403C59.461 91.2607 58.4358 91.166 57.3514 91.0501C54.4879 90.7406 51.9091 89.8133 49.6695 88.6143C48.1824 101.525 59.0155 105.593 59.0155 105.593Z" fill="white"/>
<path d="M31.0117 81.9554L28.0435 91.6366C27.5495 93.2477 25.2514 93.1966 24.8295 91.5652L20.418 74.5073C20.418 74.5073 24.7298 81.117 31.0117 81.9554Z" fill="white"/>
<path d="M111.817 94.6964C111.735 94.5261 111.55 94.3734 111.366 94.3356C111.275 94.315 111.191 94.3178 111.128 94.334C111.096 94.3424 111.07 94.3537 111.048 94.3666C111.032 94.3781 111.094 94.3565 111.113 94.3533C111.348 94.2926 111.582 94.2297 111.813 94.1578C112.277 94.0184 112.735 93.8571 113.188 93.6804C114.092 93.3235 114.976 92.906 115.828 92.4271C116.681 91.9504 117.514 91.4273 118.288 90.8242C119.061 90.2202 119.8 89.5681 120.438 88.8096L120.44 88.8071L120.185 90.0848C119.075 88.1582 117.571 86.4683 115.877 85.0022C114.183 83.5297 112.284 82.2867 110.301 81.1952L110.296 81.1924L113.05 79.6216C113.047 81.001 113.028 82.3549 113 83.7199C112.972 85.0822 112.933 86.4441 112.884 87.8063C112.836 89.1682 112.772 90.5309 112.698 91.8938L112.573 93.939L112.539 94.4503L112.535 94.5143C112.534 94.5241 112.533 94.5213 112.532 94.5251C112.529 94.5291 112.525 94.5319 112.519 94.5336C112.508 94.5366 112.49 94.5352 112.462 94.5319C112.36 94.5109 112.074 94.5123 111.817 94.6964ZM110.07 97.092C109.85 96.6005 109.603 95.9262 109.538 95.2296C109.52 95.0575 109.511 94.8868 109.509 94.7211L109.511 94.4761L109.517 94.2976L109.53 93.7948L109.573 91.7826C109.593 90.4401 109.603 89.0965 109.596 87.7516C109.592 86.4067 109.577 85.0616 109.552 83.7168C109.525 82.3744 109.491 81.0213 109.441 79.694L109.44 79.6497C109.403 78.6752 110.164 77.856 111.138 77.8196C111.529 77.805 111.895 77.9189 112.195 78.123L112.2 78.1263C114.23 79.5386 116.164 81.1159 117.869 82.9435C119.572 84.7632 121.058 86.8281 122.08 89.1348L122.145 89.2806C122.327 89.6925 122.184 90.1664 121.825 90.4124L121.822 90.4145C120.941 90.9632 120.117 91.568 119.281 92.1596C118.447 92.7524 117.625 93.3638 116.778 93.9485C115.93 94.531 115.069 95.1023 114.185 95.6507C113.745 95.9293 113.296 96.1959 112.846 96.4677L112.167 96.8706C112.128 96.8915 112.133 96.8957 112.059 96.9305C111.979 96.9669 111.894 97.0017 111.805 97.0333C111.626 97.0963 111.425 97.1459 111.219 97.1723C110.801 97.2277 110.384 97.1687 110.07 97.092Z" fill="#5C0000"/>
<path d="M93.8923 98.4485C94.1358 98.6092 94.3936 98.6454 94.5298 98.6346C94.5992 98.6316 94.6401 98.6248 94.6579 98.6348C94.6672 98.6395 94.6708 98.6484 94.6708 98.6619C94.6675 98.6551 94.6776 98.7091 94.6838 98.7449L94.7042 98.8605L94.8644 99.785L94.9456 100.247L95.0612 100.699L95.2889 101.605L95.5828 102.486L95.7292 102.927L95.909 103.354C96.0323 103.637 96.139 103.928 96.2736 104.204C96.7982 105.32 97.4485 106.368 98.1965 107.331C98.5652 107.817 98.9777 108.263 99.398 108.692C99.6133 108.896 99.8278 109.11 100.051 109.293C100.161 109.389 100.272 109.482 100.381 109.565C100.435 109.607 100.492 109.654 100.541 109.687L100.66 109.773H100.66L97.9262 110.888L97.9277 110.881C98.5469 108.518 99.3771 106.276 100.131 104.103C100.883 101.93 101.546 99.8058 101.732 97.6764V97.6749L103.218 99.0987C101.413 99.3419 99.5855 99.4257 97.7672 99.3735C96.8578 99.3476 95.9509 99.2885 95.0482 99.2005C94.5967 99.1561 94.1469 99.1044 93.6978 99.0475L93.0255 98.956C92.9719 98.9478 93.024 98.959 93.0609 98.9621C93.0982 98.9655 93.1388 98.9661 93.182 98.9624C93.2682 98.9551 93.3648 98.9307 93.4586 98.8861C93.6486 98.7993 93.8123 98.6277 93.8923 98.4485ZM91.5256 95.7234C91.8189 95.5853 92.1961 95.4551 92.5999 95.4092C92.8005 95.3854 93.0036 95.3814 93.1967 95.3949C93.2933 95.4015 93.3876 95.4122 93.4781 95.426C93.5684 95.4393 93.674 95.4622 93.674 95.4622L94.2863 95.5993C94.695 95.687 95.1045 95.7698 95.5148 95.8458C96.3356 95.9973 97.1593 96.1222 97.9858 96.2164C99.6386 96.4055 101.303 96.4712 102.963 96.3904L103.017 96.3877C103.771 96.3511 104.412 96.9323 104.449 97.6864C104.451 97.7285 104.451 97.7728 104.449 97.8142L104.449 97.816C104.388 100.358 103.779 102.768 103.155 105.04C102.521 107.318 101.87 109.505 101.445 111.691L101.444 111.696L101.433 111.742C101.2 112.701 100.233 113.29 99.2735 113.057C99.0694 113.007 98.8763 112.92 98.71 112.811L98.7095 112.811C98.5723 112.721 98.5026 112.667 98.4116 112.602C98.3206 112.538 98.2461 112.477 98.1658 112.415C98.004 112.292 97.8533 112.165 97.7072 112.038C97.4048 111.788 97.135 111.522 96.8578 111.257C96.3239 110.715 95.8126 110.156 95.3568 109.559C94.433 108.373 93.643 107.092 93.0082 105.742C92.8457 105.407 92.714 105.058 92.5666 104.717L92.3519 104.201L92.1741 103.674L91.8246 102.618L91.5515 101.543L91.4166 101.005L91.3188 100.462L91.1313 99.3738L91.1082 99.2379C91.1004 99.1901 91.0929 99.1602 91.0843 99.0685C91.0683 98.9128 91.0558 98.752 91.049 98.5873C91.0347 98.2583 91.0433 97.9127 91.0806 97.5709C91.1527 96.8822 91.3463 96.2405 91.5256 95.7234Z" fill="#5C0000"/>
<path d="M82.8103 96.2144C82.6422 96.2144 82.4738 96.1911 82.309 96.1434C78.5443 95.0549 75.3734 94.3948 72.0272 94.0034C71.5166 93.9437 71.056 93.6694 70.7604 93.2489C70.4647 92.8284 70.3627 92.3017 70.4792 91.8012C72.8954 81.4363 79.1347 78.1067 79.3989 77.9698C79.8488 77.7373 80.3759 77.705 80.8509 77.8795C81.326 78.0543 81.706 78.4207 81.8978 78.8894C84.4403 85.0983 84.7779 90.8002 84.6134 94.4902C84.5888 95.0425 84.3119 95.5536 83.8625 95.8762C83.5523 96.0985 83.1833 96.2144 82.8103 96.2144ZM74.5169 90.696C76.6421 91.0188 78.7515 91.4566 81.0278 92.0479C80.9591 89.3936 80.5544 86.0699 79.3715 82.4675C77.9251 83.8224 75.8678 86.3704 74.5169 90.696Z" fill="#5C0000"/>
<path d="M59.0153 107.398C58.8022 107.398 58.5873 107.36 58.3811 107.283C58.2597 107.237 46.2469 102.556 47.8766 88.4081C47.9451 87.8143 48.3028 87.293 48.8325 87.0159C49.3624 86.7385 49.9945 86.7418 50.5214 87.0237C52.8094 88.2489 55.1726 89 57.5454 89.2564C58.5431 89.3631 59.5347 89.4565 60.5749 89.5421C61.1098 89.5863 61.5975 89.8661 61.9052 90.3057C62.2132 90.7453 62.3095 91.2989 62.1678 91.8168C61.1018 95.7169 59.9966 101.213 60.7868 105.246C60.9124 105.888 60.681 106.548 60.1817 106.97C59.8505 107.251 59.4358 107.398 59.0153 107.398ZM51.3401 91.382C51.4773 97.1822 54.5431 100.567 56.9155 102.326C56.9007 99.1838 57.4724 95.8235 58.154 92.9475C57.8223 92.9147 57.4912 92.8809 57.1595 92.8452C55.1963 92.633 53.2479 92.1426 51.3401 91.382Z" fill="#5C0000"/>
<path d="M26.4501 94.6218C26.4232 94.6218 26.3964 94.6216 26.3695 94.6211C24.797 94.5863 23.476 93.5398 23.082 92.0169L18.6706 74.9591C18.4491 74.1032 18.8804 73.213 19.6894 72.856C20.4981 72.5002 21.4462 72.7805 21.9294 73.5212C21.9665 73.5776 25.8847 79.4504 31.2504 80.1663C31.7763 80.2365 32.2444 80.5344 32.5308 80.9808C32.8171 81.4274 32.8926 81.9771 32.7371 82.4844L29.7688 92.1656C29.3158 93.6434 27.9883 94.6218 26.4501 94.6218ZM23.8918 80.7313L26.4574 90.6521L28.716 83.2861C26.8899 82.7158 25.267 81.7707 23.8918 80.7313Z" fill="#5C0000"/>
<path d="M120.287 4.68244C120.461 4.83394 120.51 4.90008 120.601 4.99889C120.686 5.09195 120.753 5.17792 120.827 5.26697C120.968 5.44374 121.102 5.61681 121.223 5.79204C121.473 6.14034 121.691 6.49142 121.897 6.84475C122.306 7.55111 122.646 8.2703 122.944 8.9931C123.231 9.72031 123.48 10.448 123.675 11.1825C123.878 11.9141 124.025 12.6512 124.151 13.381C124.222 13.7923 123.947 14.1832 123.535 14.2544C123.224 14.3083 122.925 14.1636 122.767 13.912L122.752 13.8875C122.381 13.2974 122.001 12.7252 121.585 12.1888C121.176 11.6486 120.733 11.1457 120.279 10.6732C119.817 10.2078 119.338 9.77567 118.843 9.39984C118.596 9.2128 118.346 9.03501 118.097 8.88474C117.974 8.80575 117.85 8.73878 117.732 8.67612C117.674 8.64808 117.612 8.61347 117.561 8.59488C117.518 8.57907 117.43 8.53366 117.463 8.57906C116.387 7.79895 116.147 6.29431 116.927 5.21829C117.707 4.14226 119.211 3.90233 120.287 4.68244Z" fill="#5C0000"/>
<path d="M142.494 198.298C115.303 206.552 97.8986 192.114 97.8986 192.114C97.8986 192.114 82.9372 202.558 66.3032 186.315C66.3032 186.315 66.3153 186.303 66.3333 186.279C66.6161 185.942 68.9503 183.247 72.241 182.615C68.5533 181.977 63.2292 180.233 60.4258 175.486C60.4258 175.486 70.0512 172.238 74.3706 172.869C72.0725 172.117 66.9049 169.705 66.3033 163.105H81.5536L77.5411 149.961C77.5411 149.961 78.3592 150.147 79.6827 150.611C84.0621 152.139 93.9463 156.669 97.8987 167.365C97.8987 167.365 118.473 165.428 127.774 170.457C127.774 170.457 134 154.557 155.459 140.678C156.463 140.029 157.504 139.379 158.581 138.741L166.606 155.634L170.156 163.106C170.156 163.105 172.466 189.208 142.494 198.298Z" fill="#58DA3F"/>
<g opacity="0.6">
<path d="M156.975 140.576C156.975 140.576 139.922 160.963 132.938 173.142C131.625 175.433 128.93 176.542 126.377 175.869C120.53 174.328 109.758 172.065 98.7133 172.685C96.4357 172.813 94.2884 171.624 93.2116 169.613C90.7032 164.928 85.6968 156.412 79.6826 150.611C84.0621 152.139 93.9463 156.669 97.8987 167.365C97.8987 167.365 118.473 165.428 127.774 170.457C127.774 170.457 134 154.557 155.459 140.679L156.975 140.576Z" fill="white"/>
</g>
<path d="M170.783 163.053C172.274 171.224 169.536 179.828 164.367 186.385C161.798 189.691 158.622 192.502 155.128 194.748C151.623 196.988 147.82 198.678 143.919 199.937C140.027 201.194 136.01 202.064 131.927 202.494C127.849 202.954 123.71 202.91 119.629 202.413C115.546 201.911 111.532 200.887 107.699 199.407C105.783 198.665 103.914 197.802 102.102 196.824C101.197 196.332 100.312 195.802 99.4442 195.237C99.0114 194.952 98.5814 194.661 98.1565 194.356C97.723 194.042 97.331 193.752 96.8634 193.364L98.8291 193.445C98.6071 193.595 98.4552 193.688 98.2741 193.797C98.1004 193.901 97.9269 193.999 97.7533 194.095C97.4062 194.287 97.0572 194.464 96.7051 194.633C96.0005 194.969 95.2838 195.269 94.5558 195.536C93.0986 196.064 91.5943 196.456 90.0651 196.708C87.007 197.214 83.8474 197.127 80.8221 196.474C79.3133 196.135 77.8326 195.683 76.4081 195.102C74.9943 194.505 73.6069 193.841 72.3104 193.04C69.6925 191.475 67.3172 189.571 65.1716 187.474L65.1671 187.47C64.5279 186.845 64.5161 185.821 65.1408 185.182C65.1649 185.157 65.1932 185.13 65.2186 185.107L65.2193 185.107C65.4839 184.915 65.6744 184.806 65.8999 184.671C66.1173 184.543 66.3347 184.424 66.5536 184.31C66.9915 184.082 67.4343 183.875 67.884 183.687C68.7832 183.314 69.7055 183.013 70.6462 182.808C71.5851 182.602 72.5397 182.487 73.4855 182.489C74.4307 182.482 75.366 182.609 76.2547 182.834H76.2549C76.3409 182.834 76.4109 182.904 76.4109 182.99C76.4109 183.072 76.3478 183.139 76.2672 183.146L76.2389 183.148C74.6942 183.265 73.1492 183.209 71.5999 183.035C70.052 182.858 68.506 182.536 66.9888 182.036C65.476 181.529 63.988 180.837 62.6206 179.886C61.2484 178.945 60.0191 177.727 59.0289 176.31L59.0287 176.31L58.9457 176.157C58.5417 175.417 58.8143 174.489 59.5546 174.085C59.6664 174.024 59.7903 173.977 59.9081 173.946C61.2098 173.613 62.4691 173.334 63.7583 173.076C65.042 172.819 66.3329 172.593 67.6346 172.412C68.9368 172.234 70.2506 172.099 71.5846 172.065C72.2527 172.053 72.9265 172.067 73.609 172.141C74.2894 172.222 74.989 172.346 75.6751 172.689L75.6758 172.689C75.9463 172.775 76.0961 173.065 76.0098 173.335C75.9324 173.579 75.6899 173.725 75.4446 173.688L75.3651 173.676C74.0609 173.484 72.8655 173.1 71.6814 172.563C70.5088 172.022 69.3909 171.305 68.4001 170.401C67.4121 169.494 66.5693 168.393 65.9393 167.168C65.3179 165.941 64.9079 164.606 64.689 163.257V163.256C64.5864 162.386 65.2081 161.598 66.0775 161.496C66.1369 161.489 66.1958 161.485 66.254 161.485H66.3059H81.5566L80.0036 163.583L75.9876 150.434L75.9807 150.411C75.7211 149.561 76.1998 148.661 77.0504 148.401C77.3355 148.314 77.6327 148.312 77.9027 148.377C78.5786 148.542 79.1249 148.713 79.7178 148.907C80.298 149.099 80.8695 149.306 81.434 149.529C82.5634 149.972 83.669 150.469 84.7487 151.021C86.9047 152.127 88.9658 153.44 90.8565 154.989C92.7473 156.534 94.4706 158.312 95.924 160.303C97.3909 162.285 98.5502 164.495 99.4229 166.8L97.7477 165.746C100.349 165.526 102.884 165.422 105.457 165.385C108.022 165.35 110.593 165.402 113.168 165.564C115.742 165.734 118.323 166.013 120.901 166.511C123.473 167.026 126.064 167.717 128.549 169.028L126.277 169.834C126.491 169.305 126.686 168.884 126.901 168.424C127.112 167.976 127.339 167.539 127.569 167.106C128.029 166.239 128.512 165.39 129.017 164.556C130.015 162.881 131.125 161.283 132.28 159.726C134.604 156.617 137.198 153.731 139.967 151.037C142.756 148.366 145.697 145.856 148.848 143.646C151.991 141.428 155.283 139.43 158.74 137.78C159.112 137.602 159.558 137.76 159.736 138.132C159.894 138.462 159.786 138.851 159.502 139.059C156.457 141.29 153.465 143.54 150.595 145.925C147.723 148.304 144.961 150.799 142.361 153.446C139.775 156.105 137.33 158.896 135.117 161.853C133.998 163.322 132.955 164.844 131.955 166.384C131.455 167.155 130.978 167.939 130.527 168.731L129.867 169.922C129.659 170.309 129.437 170.739 129.277 171.079L129.247 171.141C128.863 171.956 127.89 172.305 127.075 171.92C127.053 171.91 127.026 171.896 127.005 171.885L127.004 171.885C125.006 170.825 122.659 170.168 120.28 169.699C117.889 169.236 115.431 168.968 112.959 168.805C110.484 168.649 107.993 168.598 105.5 168.632C103.015 168.667 100.491 168.773 98.0516 168.979C97.304 169.043 96.6309 168.593 96.3767 167.926C95.6066 165.9 94.5961 163.966 93.3031 162.221C92.0243 160.468 90.4973 158.89 88.8011 157.503C87.1062 156.114 85.237 154.921 83.2715 153.913C82.2876 153.41 81.277 152.956 80.2496 152.552C79.7363 152.349 79.2178 152.162 78.6979 151.99C78.1906 151.822 77.6287 151.652 77.1786 151.543L79.0937 149.485L83.1097 162.634C83.3717 163.492 82.8887 164.4 82.0312 164.662C81.8757 164.709 81.7112 164.732 81.5568 164.732H66.306L67.9232 162.962V162.962C67.9333 164.033 68.0885 165.09 68.4159 166.102C68.7529 167.109 69.2682 168.065 69.9554 168.923C70.6447 169.778 71.4938 170.535 72.45 171.167C73.3987 171.791 74.4837 172.322 75.5545 172.651L75.2441 173.638L75.2436 173.638C74.7443 173.474 74.147 173.439 73.5505 173.458C72.9504 173.479 72.3391 173.553 71.7286 173.652C70.5059 173.86 69.2859 174.165 68.0758 174.511C66.8653 174.861 65.6634 175.254 64.4712 175.676C63.2846 176.096 62.0827 176.551 60.9462 177.023L61.8257 174.659L61.8259 174.659C62.4016 175.853 63.195 176.97 64.2011 177.931C65.1994 178.899 66.3895 179.717 67.6785 180.393C68.9711 181.065 70.3614 181.602 71.8013 182.006C73.2393 182.408 74.7322 182.706 76.2323 182.832L76.2163 183.146H76.2161C75.3246 183.168 74.4527 183.29 73.6209 183.528C72.7884 183.758 71.995 184.087 71.2464 184.485C70.4971 184.881 69.793 185.352 69.136 185.867C68.808 186.126 68.4923 186.398 68.1923 186.679C68.0424 186.819 67.8967 186.963 67.7575 187.108C67.6271 187.244 67.4659 187.414 67.3939 187.518L67.4409 185.151C69.4377 187.103 71.6197 188.843 73.9765 190.252C75.1449 190.976 76.3811 191.563 77.6324 192.095C78.8923 192.608 80.1907 193.002 81.5074 193.3C84.1465 193.867 86.8781 193.942 89.5377 193.503C90.8665 193.284 92.178 192.944 93.4444 192.484C94.0763 192.253 94.6972 191.992 95.3003 191.705C95.6009 191.561 95.8976 191.41 96.1848 191.251C96.3287 191.172 96.4704 191.092 96.6068 191.01C96.7372 190.933 96.8924 190.834 96.9709 190.782C97.5793 190.378 98.3554 190.424 98.9069 190.841L98.937 190.864C99.2416 191.095 99.6551 191.383 100.035 191.633C100.425 191.89 100.826 192.138 101.23 192.381C102.041 192.867 102.882 193.311 103.725 193.75C105.421 194.612 107.174 195.369 108.968 196.012C112.557 197.304 116.302 198.126 120.084 198.567C127.662 199.402 135.401 198.475 142.705 196.146C146.346 194.997 149.849 193.461 153.036 191.452C156.227 189.457 159.11 186.994 161.452 184.076C163.815 181.169 165.566 177.816 166.889 174.288C168.212 170.765 169.101 166.984 169.53 163.164L169.538 163.096C169.576 162.75 169.888 162.501 170.234 162.54C170.517 162.572 170.734 162.787 170.783 163.053Z" fill="#5C0000"/>
<g opacity="0.2">
<path d="M142.495 198.467C115.303 206.721 97.8991 192.283 97.8991 192.283C97.8991 192.283 82.9377 202.727 66.3037 186.484C66.3037 186.484 66.3157 186.472 66.3338 186.448C82.9377 189.985 98.218 180.191 98.218 180.191C98.218 180.191 108.758 191.278 133.513 187.597C148.762 185.329 158.422 172.079 163.588 162.243C164.903 159.738 168.503 159.794 169.717 162.35L170.156 163.274C170.156 163.274 172.466 189.377 142.495 198.467Z" fill="#5C0000"/>
</g>
<path d="M165.222 13.6445C171.929 14.2874 176.56 22.695 175.567 32.4233C174.573 42.1516 168.331 49.5168 161.625 48.8739C154.918 48.2311 150.287 39.8236 151.28 30.0952C152.273 20.3669 158.516 13.0017 165.222 13.6445Z" fill="#5C0000"/>
<path d="M164.885 17.736C166.805 19.0287 167.058 22.4579 165.45 25.3953C163.842 28.3328 160.982 29.6659 159.062 28.3732C157.143 27.0805 156.89 23.6512 158.498 20.714C160.106 17.7765 162.966 16.4431 164.885 17.736Z" fill="white"/>
<path d="M167.834 39.6659C168.679 40.5978 168.442 42.4133 167.305 43.7207C166.167 45.0282 164.56 45.3327 163.715 44.4007C162.87 43.4688 163.107 41.6534 164.245 40.3461C165.382 39.0385 166.99 38.7342 167.834 39.6659Z" fill="#B199C5"/>
<path d="M104.257 10.2463C108.394 10.6429 111.251 15.8296 110.638 21.8309C110.026 27.8323 106.175 32.3758 102.038 31.9793C97.9004 31.5827 95.0431 26.3961 95.656 20.3946C96.2688 14.3933 100.12 9.8497 104.257 10.2463Z" fill="#5C0000"/>
<path d="M104.049 12.7705C105.233 13.5679 105.389 15.6834 104.397 17.4955C103.405 19.3076 101.641 20.1301 100.457 19.3325C99.2724 18.5351 99.1165 16.4195 100.109 14.6076C101.1 12.7954 102.865 11.9729 104.049 12.7705Z" fill="white"/>
<path d="M105.868 26.2994C106.39 26.8743 106.243 27.9943 105.542 28.8008C104.84 29.6074 103.849 29.7952 103.327 29.2202C102.806 28.6455 102.953 27.5254 103.654 26.719C104.356 25.9124 105.347 25.7246 105.868 26.2994Z" fill="#B199C5"/>
<path d="M87.2651 28.5344C87.5628 28.4725 87.7616 28.4409 87.9974 28.4033L88.6692 28.3078C89.1133 28.25 89.5526 28.2032 89.9915 28.1644C90.8682 28.0896 91.7406 28.037 92.611 28.0217C94.3518 27.9784 96.0851 28.0548 97.8058 28.2226C101.247 28.5561 104.637 29.3092 107.874 30.4609C111.114 31.6062 114.183 33.1825 117.006 35.0825C119.813 37.0101 122.368 39.2622 124.625 41.7549C124.947 42.1115 124.92 42.6624 124.563 42.9852C124.225 43.2921 123.71 43.2826 123.383 42.9749L123.376 42.9684C121.026 40.7469 118.438 38.8077 115.675 37.2094C112.895 35.6386 109.946 34.4058 106.891 33.5871C103.84 32.7621 100.698 32.3187 97.5588 32.2601C95.9903 32.2295 94.4215 32.2827 92.872 32.4429C92.0969 32.5166 91.3283 32.6247 90.5693 32.7491C90.1904 32.8128 89.8142 32.8827 89.4456 32.9605L88.9004 33.0821C88.7317 33.1217 88.527 33.1738 88.4234 33.2059C87.1518 33.5991 85.8022 32.887 85.409 31.6153C85.0158 30.3437 85.7279 28.9941 86.9996 28.6009C87.0716 28.5786 87.144 28.5598 87.2165 28.5447L87.2651 28.5344Z" fill="#5C0000"/>
</svg>
