<svg width="358" height="346" viewBox="0 0 358 346" fill="none" xmlns="http://www.w3.org/2000/svg">
<g clip-path="url(#clip0_15_398)">
<g opacity="0.2">
<path d="M173.952 322.645C218.484 322.645 254.585 316.727 254.585 309.426C254.585 302.125 218.484 296.207 173.952 296.207C129.419 296.207 93.3179 302.125 93.3179 309.426C93.3179 316.727 129.419 322.645 173.952 322.645Z" fill="#5C0000"/>
</g>
<path d="M225.932 189.818C225.932 189.818 221.676 198.491 217.535 205.254L209.167 181.271C214.426 183.111 222.257 186.265 225.932 189.818Z" fill="white"/>
<path d="M217.535 207.126C217.468 207.126 217.4 207.123 217.333 207.116C216.579 207.04 215.941 206.546 215.699 205.852L207.331 181.869C207.093 181.188 207.28 180.436 207.811 179.933C208.343 179.43 209.125 179.266 209.825 179.511C215.675 181.556 223.454 184.775 227.302 188.494C227.881 189.054 228.033 189.905 227.682 190.62C227.64 190.708 223.34 199.449 219.202 206.207C218.851 206.781 218.215 207.126 217.535 207.126ZM212.317 184.442L217.989 200.698C220.364 196.527 222.529 192.307 223.556 190.269C221.2 188.415 217.326 186.408 212.317 184.442Z" fill="#5C0000"/>
<path d="M217.38 206.617C217.38 206.617 229.099 206.617 234.08 210.528C234.08 210.528 232.834 220.17 221.86 226.926L217.38 206.617Z" fill="white"/>
<path d="M221.86 228.798C221.606 228.798 221.352 228.75 221.112 228.652C220.526 228.415 220.098 227.916 219.966 227.316L215.485 207.007C215.364 206.454 215.506 205.878 215.874 205.438C216.242 205 216.795 204.744 217.38 204.744C217.886 204.744 229.849 204.794 235.302 209.075C235.821 209.483 236.085 210.12 236.003 210.76C235.947 211.19 234.51 221.358 222.901 228.505C222.586 228.699 222.224 228.798 221.86 228.798ZM219.793 208.577L223.143 223.764C229.348 219.089 231.342 213.636 231.932 211.36C228.768 209.53 223.348 208.805 219.793 208.577Z" fill="#5C0000"/>
<path d="M210.082 44.4361L202.563 31.6482L207.773 26.834L213.844 42.1794L210.082 44.4361Z" fill="#FEDA24"/>
<path d="M212.542 42.9604L216.49 22.9224L225.734 26.834L219.138 44.4361L212.542 42.9604Z" fill="#FEDA24"/>
<path d="M216.023 44.4363C216.023 44.4363 223.495 35.56 230.188 34.5068L232.834 44.4363C232.834 44.4363 221.919 46.3922 218.375 47.5964L216.023 44.4363Z" fill="#FEDA24"/>
<path d="M210.082 45.8399C209.962 45.8399 209.842 45.8256 209.724 45.7967C209.341 45.7023 209.014 45.4615 208.819 45.1296L201.3 32.3417C200.971 31.782 201.078 31.0778 201.559 30.6331L206.769 25.819C207.121 25.494 207.618 25.3607 208.092 25.464C208.567 25.5673 208.957 25.8933 209.13 26.3324L215.201 41.6776C215.45 42.3063 215.202 43.0173 214.61 43.3722L210.848 45.6289C210.616 45.7681 210.35 45.8399 210.082 45.8399ZM204.386 31.9062L210.599 42.4731L212.059 41.5975L207.197 29.3089L204.386 31.9062Z" fill="#5C0000"/>
<path d="M219.139 45.8403C219.03 45.8403 218.92 45.8285 218.81 45.804L212.214 44.3283C211.454 44.1583 210.968 43.4384 211.114 42.6975L215.063 22.6595C215.145 22.2397 215.421 21.8792 215.813 21.6801C216.204 21.4805 216.668 21.4647 217.072 21.636L226.316 25.5477C227.018 25.8446 227.36 26.6165 227.1 27.3121L220.504 44.9141C220.292 45.4797 219.738 45.8403 219.139 45.8403ZM214.23 41.8968L218.211 42.7874L223.904 27.5926L217.576 24.9148L214.23 41.8968Z" fill="#5C0000"/>
<path d="M218.375 49.0005C217.917 49.0005 217.474 48.7906 217.195 48.4162L214.843 45.2558C214.46 44.7407 214.481 44.0415 214.896 43.5497C215.215 43.1704 222.799 34.2465 229.955 33.1205C230.696 33.0037 231.408 33.4529 231.596 34.1563L234.241 44.0857C234.342 44.4624 234.276 44.8628 234.059 45.1908C233.843 45.519 233.495 45.7456 233.099 45.8165C232.991 45.8357 222.254 47.7664 218.857 48.9209C218.699 48.9745 218.536 49.0005 218.375 49.0005ZM217.87 44.5139L218.939 45.9497C222.21 45.022 228.217 43.862 231.041 43.3355L229.138 36.1956C224.543 37.6216 219.67 42.5565 217.87 44.5139Z" fill="#5C0000"/>
<path d="M220.412 47.2997C212.862 50.1595 205.273 52.2424 198.455 53.7495C202.392 49.3872 205.888 45.7459 208.518 43.3214C212.325 39.8156 219.264 41.2198 220.209 46.2186C220.277 46.5789 220.344 46.9393 220.412 47.2997Z" fill="#FC4F8B"/>
<path d="M222.025 55.9495C210.111 60.6441 197.956 63.3635 188.75 64.9127C192.12 60.9062 195.423 57.1102 198.455 53.7496C205.273 52.2425 212.862 50.1596 220.412 47.2998C220.974 50.2767 221.507 53.1599 222.025 55.9495Z" fill="#0096F0"/>
<path d="M223.415 63.5462C207.617 70.4313 190.74 73.6281 180.415 75.051C183.171 71.6155 185.984 68.194 188.75 64.9129C197.956 63.3636 210.112 60.6442 222.025 55.9497C222.504 58.5615 222.969 61.0984 223.415 63.5462Z" fill="#FC4F8B"/>
<path d="M225.086 72.8696C202.75 83.031 177.698 85.6053 171.824 86.0874C174.531 82.4974 177.437 78.7623 180.415 75.0507C190.74 73.6278 207.617 70.431 223.415 63.5459C224.006 66.7989 224.563 69.9068 225.086 72.8696Z" fill="#0096F0"/>
<path d="M226.441 80.6112C204.595 90.4731 180.236 93.1223 173.814 93.6746H173.809L167.896 91.3952C169.141 89.6727 170.458 87.8988 171.824 86.0874C177.698 85.6053 202.75 83.031 225.086 72.8696C225.565 75.5703 226.015 78.1539 226.441 80.6112Z" fill="#FC4F8B"/>
<path d="M228.18 90.7962C215.69 96.146 202.6 99.2164 192.658 100.944H192.653L173.814 93.6747C180.236 93.1224 204.595 90.4733 226.441 80.6113C227.081 84.2809 227.657 87.679 228.18 90.7962Z" fill="#0096F0"/>
<path d="M229.711 100.101C222.582 103.097 215.284 105.358 208.504 107.061L192.658 100.944C202.6 99.2166 215.69 96.1462 228.18 90.7964C228.756 94.2412 229.265 97.3444 229.711 100.101Z" fill="#FC4F8B"/>
<path d="M232.185 116.202L208.503 107.061C215.283 105.357 222.582 103.097 229.71 100.101C231.425 110.726 232.185 116.202 232.185 116.202Z" fill="#70A2FF"/>
<path d="M232.841 116.916C232.659 116.916 232.476 116.883 232.302 116.816L168.013 92.0088C167.601 91.8498 167.287 91.5174 167.16 91.1064C167.033 90.6955 167.107 90.2509 167.362 89.8995C179.528 73.0989 198.979 50.0856 208.171 41.6164C210.49 39.4798 213.998 38.7319 217.107 39.7096C219.859 40.575 221.798 42.6571 222.292 45.2789C230.805 90.4315 234.247 115.081 234.281 115.325C234.35 115.82 234.141 116.312 233.734 116.619C233.475 116.814 233.16 116.916 232.841 116.916ZM170.799 90.0599L231.056 113.311C229.996 106.127 226.432 82.8984 219.433 45.7824C219.129 44.1692 217.954 42.9291 216.208 42.3803C214.1 41.7167 211.732 42.2153 210.176 43.6492C201.354 51.7772 182.919 73.5326 170.799 90.0599Z" fill="#5C0000"/>
<path d="M199.102 54.2321C198.549 54.2321 198.051 53.8649 197.922 53.3226C197.773 52.6926 198.181 52.0652 198.833 51.9212C206.63 50.1978 213.959 48.045 220.619 45.5224C221.242 45.2865 221.944 45.5836 222.187 46.1849C222.432 46.7866 222.125 47.4655 221.502 47.7014C214.732 50.266 207.286 52.4532 199.373 54.2024C199.282 54.2226 199.191 54.2321 199.102 54.2321Z" fill="#5C0000"/>
<path d="M189.396 65.395C188.818 65.395 188.307 64.9942 188.205 64.4253C188.09 63.7888 188.531 63.1827 189.19 63.0718C197.514 61.671 210.002 58.9907 222.216 54.1779C222.834 53.9335 223.541 54.2214 223.794 54.8196C224.046 55.4181 223.749 56.1008 223.13 56.345C210.717 61.2365 198.047 63.9568 189.605 65.3774C189.535 65.3893 189.465 65.395 189.396 65.395Z" fill="#5C0000"/>
<path d="M181.062 75.5329C180.469 75.5329 179.951 75.1116 179.865 74.5277C179.77 73.8881 180.231 73.2955 180.893 73.2043C191.892 71.6885 208.224 68.4778 223.566 61.7912C224.176 61.5256 224.892 61.7878 225.167 62.3768C225.442 62.9661 225.171 63.6589 224.561 63.9246C208.96 70.724 192.389 73.9837 181.234 75.521C181.177 75.5289 181.119 75.5329 181.062 75.5329Z" fill="#5C0000"/>
<path d="M172.471 86.5699C171.803 86.5699 171.258 86.046 171.258 85.3997C171.258 84.7761 171.761 84.2665 172.397 84.2315C177.362 83.8224 202.866 81.2923 225.218 71.1232C225.823 70.8474 226.544 71.0989 226.829 71.6834C227.114 72.2682 226.854 72.9653 226.249 73.2404C204.053 83.339 179.554 85.9929 172.574 86.5656C172.54 86.5684 172.506 86.5699 172.471 86.5699Z" fill="#5C0000"/>
<path d="M174.462 94.157C173.794 94.157 173.249 93.633 173.249 92.9868C173.249 92.3647 173.749 91.8557 174.384 91.8188C181.237 91.2277 205.108 88.5552 226.578 78.8632C227.184 78.5896 227.904 78.8427 228.187 79.4282C228.47 80.0138 228.208 80.71 227.602 80.9835C205.744 90.8508 181.484 93.5577 174.57 94.1524C174.534 94.1555 174.498 94.157 174.462 94.157Z" fill="#5C0000"/>
<path d="M193.306 101.426C192.637 101.426 192.093 100.902 192.093 100.256C192.093 99.6639 192.546 99.1746 193.135 99.0965C202.149 97.5285 215.559 94.5119 228.338 89.0383C228.949 88.7761 229.664 89.0432 229.935 89.6341C230.206 90.2249 229.93 90.9162 229.319 91.178C216.3 96.7545 202.665 99.8186 193.52 101.407C193.449 101.42 193.378 101.426 193.306 101.426Z" fill="#5C0000"/>
<path d="M209.151 107.778C208.505 107.778 207.916 107.358 207.745 106.726C207.543 105.976 208.009 105.209 208.786 105.014C216.387 103.104 223.452 100.786 229.784 98.1252C230.521 97.8157 231.375 98.142 231.696 98.8531C232.016 99.5642 231.678 100.391 230.943 100.701C224.473 103.42 217.264 105.785 209.517 107.732C209.395 107.763 209.272 107.778 209.151 107.778Z" fill="#5C0000"/>
<path d="M279.767 233.727L274.279 225.057C273.191 223.338 270.546 223.532 269.738 225.39L265.135 235.984L279.767 233.727Z" fill="white"/>
<path d="M262.488 238.09L256.018 225.901C255.091 224.155 252.529 224.098 251.521 225.802L243.809 238.843L262.488 238.09Z" fill="white"/>
<path d="M243.808 238.842L236.413 223.458C235.602 221.769 233.222 221.521 232.056 223.004L221.86 235.984L243.808 238.842Z" fill="white"/>
<path d="M265.134 237.856C264.546 237.856 263.982 237.597 263.611 237.14C263.177 236.606 263.076 235.886 263.349 235.259L267.952 224.665C268.609 223.154 270.067 222.139 271.757 222.015C273.45 221.891 275.047 222.682 275.931 224.08L281.419 232.75C281.757 233.283 281.797 233.943 281.526 234.511C281.256 235.078 280.71 235.478 280.072 235.576L265.44 237.833C265.338 237.849 265.236 237.856 265.134 237.856ZM272.102 225.747C272.083 225.747 272.066 225.748 272.05 225.749C271.908 225.759 271.652 225.821 271.524 226.115L268.27 233.604L276.605 232.319L272.627 226.034C272.473 225.793 272.249 225.747 272.102 225.747Z" fill="#5C0000"/>
<path d="M243.808 240.715C243.134 240.715 242.506 240.375 242.154 239.816C241.787 239.234 241.777 238.505 242.127 237.913L249.84 224.873C250.658 223.488 252.189 222.645 253.844 222.686C255.494 222.722 256.988 223.627 257.741 225.047L264.212 237.236C264.513 237.804 264.495 238.481 264.162 239.033C263.829 239.585 263.229 239.934 262.569 239.961L243.889 240.713C243.862 240.714 243.835 240.715 243.808 240.715ZM253.741 226.429C253.6 226.429 253.357 226.472 253.204 226.731L247.23 236.831L259.383 236.342L254.294 226.755C254.148 226.479 253.894 226.432 253.756 226.429C253.751 226.429 253.746 226.429 253.741 226.429Z" fill="#5C0000"/>
<path d="M243.809 240.715C243.723 240.715 243.636 240.71 243.55 240.698L221.601 237.84C220.918 237.75 220.336 237.318 220.071 236.703C219.807 236.087 219.901 235.383 220.317 234.852L230.514 221.873C231.476 220.648 232.993 220.014 234.576 220.18C236.157 220.345 237.501 221.276 238.17 222.669L245.565 238.054C245.863 238.674 245.788 239.402 245.368 239.953C245 240.436 244.419 240.715 243.809 240.715ZM225.413 234.558L240.561 236.531L234.657 224.247C234.528 223.98 234.291 223.917 234.161 223.903C234.03 223.89 233.784 223.901 233.599 224.137L225.413 234.558Z" fill="#5C0000"/>
<path d="M215.403 229.556L217.926 264.866L218.827 277.508C275.683 283.78 290.676 227.759 290.894 226.93C290.894 226.93 290.894 226.93 290.894 226.926C290.39 227.15 289.887 227.375 289.378 227.586C270.292 235.692 249.797 235.472 235.23 233.633C223.341 232.131 215.403 229.556 215.403 229.556Z" fill="#58DA3F"/>
<g opacity="0.6">
<path d="M215.404 229.556L215.762 234.606C218.159 235.308 225.152 237.204 234.683 238.407C249.251 240.247 269.746 240.466 288.831 232.36C288.928 232.322 289.02 232.28 289.117 232.238C290.318 229.093 290.856 227.085 290.894 226.93C290.894 226.93 290.894 226.93 290.894 226.926C290.391 227.15 289.887 227.375 289.379 227.586C270.293 235.692 249.798 235.472 235.23 233.633C223.341 232.13 215.404 229.556 215.404 229.556Z" fill="white"/>
</g>
<path d="M226.938 279.868C224.039 279.868 221.08 279.702 218.061 279.369C217.132 279.266 216.412 278.538 216.348 277.637L212.924 229.685C212.879 229.062 213.16 228.458 213.672 228.076C214.183 227.692 214.86 227.583 215.472 227.781C215.87 227.91 255.639 240.478 289.53 225.228C290.129 224.959 290.83 225.003 291.389 225.347C291.947 225.691 292.284 226.286 292.284 226.926C292.284 227.082 292.264 227.241 292.225 227.392C292.064 228.001 288.173 242.451 277.073 256.042C270.585 263.987 262.935 270.048 254.337 274.054C246.039 277.922 236.852 279.868 226.938 279.868ZM220.101 275.809C242.278 277.826 260.413 270.398 274.032 253.722C281.399 244.701 285.428 235.328 287.251 230.259C269.911 236.975 251.805 237.148 239.287 236.015C229.013 235.085 220.97 233.201 216.982 232.126L220.101 275.809Z" fill="#5C0000"/>
<path d="M217.38 264.866L218.281 277.509C275.136 283.781 290.129 227.759 290.347 226.931C289.907 227.684 264.724 270.23 217.38 264.866Z" fill="#FFDF46"/>
<path d="M226.936 279.4C224.056 279.4 221.116 279.235 218.116 278.903C217.419 278.827 216.879 278.281 216.831 277.605L215.93 264.963C215.9 264.546 216.064 264.138 216.377 263.85C216.691 263.562 217.122 263.424 217.549 263.472C236.805 265.652 254.621 260.152 270.512 247.121C282.594 237.215 288.823 226.683 289.082 226.24C289.441 225.627 290.213 225.365 290.889 225.627C291.564 225.89 291.935 226.595 291.755 227.277C291.596 227.881 287.73 242.238 276.693 255.752C270.25 263.641 262.658 269.657 254.127 273.633C245.895 277.47 236.778 279.4 226.936 279.4ZM219.646 276.237C242.183 278.398 260.601 270.924 274.412 254.012C279.473 247.815 282.969 241.45 285.261 236.413C282.12 240.216 277.825 244.808 272.392 249.263C256.572 262.235 238.131 268.153 218.948 266.437L219.646 276.237Z" fill="#5C0000"/>
<path d="M274.431 257.628C274.369 257.628 274.306 257.624 274.243 257.616C273.447 257.517 272.885 256.812 272.988 256.043C273.782 250.128 273.008 245.932 273.001 245.891C272.856 245.129 273.377 244.397 274.166 244.256C274.951 244.115 275.711 244.618 275.857 245.379C275.894 245.566 276.727 250.019 275.87 256.404C275.775 257.112 275.15 257.628 274.431 257.628Z" fill="#5C0000"/>
<path d="M257.745 271.574C257.534 271.574 257.319 271.529 257.116 271.434C256.393 271.098 256.089 270.259 256.437 269.56C259.628 263.156 258.349 256.561 258.336 256.495C258.183 255.735 258.695 254.997 259.482 254.847C260.267 254.697 261.031 255.191 261.187 255.95C261.249 256.255 262.68 263.503 259.055 270.779C258.805 271.281 258.286 271.574 257.745 271.574Z" fill="#5C0000"/>
<path d="M239.302 278.293C239.093 278.293 238.882 278.25 238.68 278.158C237.955 277.825 237.646 276.988 237.99 276.287C240.69 270.786 241.091 263.206 241.094 263.13C241.132 262.356 241.817 261.753 242.614 261.794C243.415 261.831 244.035 262.488 243.997 263.262C243.981 263.595 243.569 271.472 240.616 277.491C240.367 277.997 239.846 278.293 239.302 278.293Z" fill="#5C0000"/>
<g opacity="0.2">
<path d="M214.856 230.062L217.38 265.372L218.28 278.014C275.136 284.286 290.129 228.264 290.347 227.436C290.347 227.436 290.347 227.436 290.347 227.431C289.843 227.656 289.34 227.88 288.831 228.091C276.323 263.514 258.362 265.777 247.191 262.924C241.467 261.461 237.545 256.439 237.434 250.718C237.317 244.727 236.117 238.965 234.683 234.138C222.794 232.636 214.856 230.062 214.856 230.062Z" fill="#5C0000"/>
</g>
<path d="M228.063 260.091C227.424 268.642 225.675 277.124 222.406 285.151C222.406 285.151 229.719 302.216 224.116 308.085C218.513 313.955 208.396 311.778 208.396 311.778C208.396 311.778 199.834 315.574 195.785 312.171C195.785 312.171 187.223 313.585 184.734 310.575C184.734 310.575 178.506 311.479 176.017 310.276C176.017 310.276 179.596 295.682 191.427 294.325C191.427 294.325 185.044 289.663 180.685 280.334C180.685 280.334 174.147 288.61 174.147 295.682C174.147 302.749 165.43 314.334 143.327 307.116C143.327 307.116 139.124 309.822 132.741 307.266C132.741 307.266 124.958 308.918 123.094 307.116C122.198 306.251 123.229 302.118 126.372 298.303C129.796 294.142 135.729 290.365 144.417 291.619C144.417 291.619 137.371 284.921 133.307 271.956C130.833 264.084 129.462 253.908 131.428 241.519C131.428 241.519 127.457 239.412 122.784 233.244C122.784 233.244 102.545 254.156 92.4238 233.548C92.4238 233.548 92.4916 233.463 92.6175 233.3C94.9324 230.379 117.428 202.436 140.804 188.24C142.886 186.976 144.979 185.82 147.066 184.8L151.889 173.37L178.37 174.381L202.284 175.289L208.396 175.523C208.396 175.523 210.217 178.968 212.764 184.847C217.496 195.79 224.726 215.172 227.356 236.473C228.31 244.196 228.659 252.172 228.063 260.091Z" fill="#58DA3F"/>
<g opacity="0.6">
<path d="M228.063 260.091L227.632 260.625C229.186 234.957 213.98 198.865 202.284 175.289L208.396 175.523C208.396 175.523 210.217 178.968 212.764 184.847C217.496 195.79 224.726 215.172 227.356 236.473C228.31 244.196 228.658 252.172 228.063 260.091Z" fill="white"/>
</g>
<g opacity="0.2">
<path d="M222.406 284.001C222.406 284.001 229.719 301.066 224.116 306.936C218.513 312.805 208.396 310.629 208.396 310.629C208.396 310.629 199.834 314.424 195.785 311.022C195.785 311.022 187.223 312.435 184.734 309.426C184.734 309.426 178.506 310.329 176.017 309.126C176.017 309.126 179.595 294.532 191.427 293.175C191.427 293.175 185.044 288.513 180.685 279.185C180.685 279.185 174.147 287.46 174.147 294.532C174.147 301.6 165.43 313.184 143.327 305.967C143.327 305.967 139.124 308.672 132.741 306.117C132.741 306.117 124.958 307.769 123.094 305.967C122.198 305.101 123.229 300.968 126.372 297.153C129.622 300.018 136.944 297.977 136.944 297.977C139.356 304.614 145.54 299.798 145.54 299.798C151.714 301.258 155.909 300.751 158.758 299.335C164.399 296.533 163.142 288.427 156.973 287.001C145.441 284.336 137.966 277.357 133.307 270.806C130.833 262.934 129.462 252.758 131.428 240.369C131.428 240.369 127.457 238.263 122.784 232.094C122.784 232.094 102.545 253.006 92.4238 232.398C92.4238 232.398 92.4916 232.314 92.6175 232.15C107.626 238.043 120.847 225.475 120.847 225.475C141.647 243.538 153.134 228.78 153.134 228.78C153.134 228.78 167.546 230.292 186.806 225.775C206.067 221.263 210.817 204.104 210.817 204.104C211.752 214.925 204.677 224.268 204.677 224.268C190.753 240.514 206.154 238.309 206.154 238.309C206.154 238.309 186.136 242.329 188.276 265.35C189.414 277.6 198.373 284.642 205.128 288.255C207.118 289.32 206.543 292.218 204.287 292.498L198.822 293.175C198.822 293.175 182.243 301.982 190.586 305.409C193.08 306.434 196.122 305.018 198.3 303.416C199.573 302.479 201.323 302.657 202.502 303.701C205.241 306.126 211.142 303.516 214.857 303.006C221.344 302.114 217.053 294.145 213.216 288.632C211.48 286.137 211.928 282.777 214.303 280.835C224.316 272.645 225.955 248.328 227.356 235.323C229.341 251.387 228.707 268.546 222.406 284.001Z" fill="#5C0000"/>
</g>
<path d="M180.685 280.335C180.685 280.335 133.104 287.107 131.428 241.519L133.404 234.358L147.066 184.8L151.889 173.37L178.37 174.381L186.516 226.99L189.402 245.638C189.402 245.638 177.576 258.219 180.685 280.335Z" fill="#FFDF46"/>
<g opacity="0.2">
<path d="M189.402 244.488L186.516 225.841C167.401 230.278 153.134 228.78 153.134 228.78C153.134 228.78 146.218 237.664 133.404 233.208L131.428 240.369C133.104 285.958 180.685 279.185 180.685 279.185C177.576 257.069 189.402 244.488 189.402 244.488ZM166.447 268.752C158.282 268.752 151.662 263.323 151.662 256.62C151.662 249.922 158.282 244.488 166.447 244.488C174.612 244.488 181.232 249.922 181.232 256.62C181.232 263.323 174.612 268.752 166.447 268.752Z" fill="#5C0000"/>
</g>
<path d="M174.539 282.113C167.1 282.113 154.77 280.751 145.073 272.965C136.426 266.021 131.788 255.458 131.289 241.567C131.284 241.432 131.3 241.296 131.335 241.165L146.619 184.446C146.634 184.39 146.653 184.334 146.675 184.28L151.389 172.85C151.617 172.297 152.193 171.95 152.797 171.967L178.679 172.978C179.377 173.005 179.957 173.51 180.058 174.178L190.84 245.434C190.902 245.844 190.773 246.26 190.489 246.57C190.379 246.69 179.416 258.991 182.323 280.149C182.427 280.909 181.883 281.609 181.099 281.723C180.808 281.765 178.297 282.113 174.539 282.113ZM134.201 241.673C134.706 254.62 138.983 264.415 146.914 270.792C158.401 280.028 174.467 279.495 179.264 279.092C177.083 259.674 185.746 247.806 187.871 245.223L177.357 175.737L153.708 174.813L149.408 185.238L134.201 241.673Z" fill="#5C0000"/>
<path d="M163.619 275.027C160.166 275.027 156.607 274.508 152.992 273.464C145.399 271.27 140.29 267.59 140.076 267.434C139.542 267.046 139.435 266.312 139.837 265.796C140.239 265.279 140.998 265.177 141.532 265.565C141.728 265.707 161.348 279.653 179.664 268.048C180.223 267.694 180.973 267.845 181.34 268.385C181.707 268.926 181.551 269.651 180.991 270.005C175.726 273.341 169.842 275.027 163.619 275.027Z" fill="#5C0000"/>
<path d="M160.096 257.914C155.159 257.914 150.851 257.417 147.357 256.78C137.974 255.07 132.382 252.077 132.149 251.951C131.566 251.635 131.358 250.921 131.685 250.358C132.012 249.795 132.75 249.593 133.333 249.909C133.574 250.039 155.437 261.527 184.515 251.362C185.143 251.141 185.838 251.457 186.065 252.064C186.293 252.672 185.967 253.343 185.338 253.562C175.962 256.84 167.35 257.914 160.096 257.914Z" fill="#5C0000"/>
<path d="M163.387 206.911C159.312 206.911 155.867 206.348 153.145 205.639C146.159 203.818 142.334 200.721 142.174 200.59C141.665 200.171 141.603 199.433 142.036 198.94C142.468 198.448 143.232 198.388 143.741 198.805C143.884 198.921 158.32 210.345 182.136 200.656C182.75 200.406 183.462 200.685 183.721 201.281C183.981 201.876 183.691 202.563 183.075 202.813C175.521 205.887 168.881 206.911 163.387 206.911Z" fill="#5C0000"/>
<g opacity="0.2">
<path d="M212.764 184.847C204.444 190.66 190.09 194.498 173.774 194.498C160.892 194.498 149.236 192.106 140.804 188.24C142.887 186.976 144.979 185.82 147.066 184.8L151.889 173.37L178.37 174.381L208.396 175.523C208.396 175.523 210.217 178.968 212.764 184.847Z" fill="#5C0000"/>
</g>
<path d="M200.489 315.469C198.657 315.469 196.816 315.122 195.273 314.14C192.854 314.457 187.108 314.9 184.06 312.55C181.965 312.788 177.546 313.108 175.15 311.951C174.346 311.562 173.924 310.69 174.132 309.844C174.274 309.263 177.411 296.95 187.451 293.336C185.497 291.391 182.825 288.3 180.432 284.048C178.62 286.885 176.085 291.585 176.085 295.682C176.085 299.142 174.289 304.086 169.248 307.582C164.873 310.616 156.877 313.308 143.501 309.144C141.803 309.903 137.836 311.13 132.571 309.214C129.658 309.786 123.925 310.567 121.724 308.44C119.696 306.48 121.752 302.084 122.43 300.783C125.293 295.294 131.298 289.911 140.102 289.526C138.406 287.299 136.22 283.995 134.202 279.632C130.624 271.897 126.926 259.227 129.333 242.43C127.939 241.469 125.435 239.489 122.576 236.057C119.425 238.863 112.16 244.5 104.652 244.5C103.948 244.5 103.243 244.451 102.537 244.345C97.5545 243.595 93.5629 240.233 90.6742 234.351C90.3644 233.72 90.443 232.976 90.8783 232.419C92.018 230.961 118.887 196.822 145.543 183.451L150.096 172.663C150.404 171.934 151.147 171.468 151.966 171.5L208.472 173.653C209.172 173.679 209.802 174.069 210.121 174.671C210.205 174.83 218.572 190.77 224.453 212.256C229.855 231.991 234.208 260.574 224.489 285.139C225.99 288.845 231.306 303.315 225.54 309.355C220.051 315.103 211.108 314.129 208.621 313.725C207.228 314.284 203.873 315.469 200.489 315.469ZM195.785 310.299C196.249 310.299 196.701 310.46 197.056 310.759C199.591 312.889 205.661 310.931 207.588 310.077C207.973 309.906 208.404 309.861 208.817 309.951C208.904 309.969 217.928 311.806 222.692 306.816C226.581 302.743 222.391 290.008 220.617 285.867C220.425 285.419 220.421 284.916 220.604 284.465C230.292 260.711 226.019 232.649 220.729 213.29C215.778 195.174 209.035 181.085 207.168 177.351L153.17 175.293L148.859 185.507C148.683 185.925 148.357 186.267 147.94 186.471C124.248 198.054 99.2558 228.126 94.7017 233.761C96.9313 237.822 99.7614 240.135 103.126 240.644C111.593 241.929 121.273 232.064 121.37 231.964C121.764 231.558 122.319 231.338 122.901 231.376C123.476 231.409 124.006 231.688 124.347 232.137C128.658 237.828 132.332 239.863 132.369 239.882C133.072 240.264 133.465 241.032 133.343 241.803C130.74 258.202 134.253 270.502 137.66 277.932C141.357 285.999 145.735 290.245 145.778 290.287C146.373 290.857 146.523 291.733 146.148 292.457C145.772 293.181 144.958 293.591 144.131 293.471C136.554 292.377 131.682 295.499 128.926 298.311C125.883 301.416 124.793 304.76 124.721 305.911C125.848 306.276 129.252 306.087 132.326 305.437C132.713 305.357 133.117 305.39 133.483 305.537C138.744 307.643 142.13 305.633 142.271 305.547C142.765 305.244 143.392 305.162 143.947 305.343C156.245 309.359 163.266 307.123 166.99 304.54C170.843 301.867 172.21 298.098 172.21 295.682C172.21 288.065 178.862 279.557 179.146 279.198C179.559 278.674 180.228 278.402 180.905 278.474C181.583 278.55 182.17 278.963 182.451 279.564C186.559 288.355 192.535 292.787 192.595 292.831C193.226 293.291 193.503 294.077 193.297 294.814C193.09 295.552 192.44 296.094 191.655 296.184C183.593 297.109 179.772 305.299 178.456 308.957C180.218 309.133 182.744 308.969 184.447 308.724C185.131 308.623 185.816 308.885 186.247 309.406C187.406 310.808 192.34 310.84 195.459 310.326C195.568 310.308 195.677 310.299 195.785 310.299Z" fill="#5C0000"/>
<path d="M193.866 311.916C193.95 311.55 194.028 311.292 194.121 310.999C194.208 310.714 194.307 310.437 194.405 310.161C194.605 309.611 194.828 309.075 195.064 308.546C195.537 307.49 196.096 306.476 196.722 305.507C197.023 305.017 197.375 304.554 197.709 304.088C198.078 303.641 198.416 303.179 198.819 302.762C199.575 301.894 200.455 301.136 201.344 300.419C201.662 300.162 202.135 300.203 202.401 300.51C202.637 300.783 202.629 301.175 202.402 301.439L202.371 301.474C201.687 302.269 201.031 303.072 200.505 303.961C200.218 304.386 199.995 304.854 199.745 305.297C199.528 305.762 199.296 306.214 199.113 306.69C198.726 307.63 198.405 308.593 198.168 309.57C198.051 310.059 197.947 310.548 197.866 311.036C197.827 311.28 197.788 311.524 197.761 311.764C197.732 311.994 197.707 312.264 197.704 312.427C197.689 313.469 196.803 314.301 195.726 314.286C194.648 314.271 193.788 313.414 193.803 312.373C193.805 312.246 193.82 312.123 193.846 312.003L193.866 311.916Z" fill="#5C0000"/>
<path d="M182.907 309.954C183.444 308.875 184.001 307.924 184.602 306.945C185.201 305.978 185.834 305.031 186.528 304.12C187.221 303.21 187.946 302.321 188.78 301.509C189.609 300.7 190.512 299.94 191.562 299.379C191.782 299.26 192.061 299.338 192.183 299.551C192.288 299.736 192.243 299.961 192.087 300.096L192.073 300.107C191.282 300.787 190.643 301.624 190.075 302.5C189.505 303.374 189.035 304.322 188.599 305.278C188.164 306.234 187.786 307.221 187.446 308.217C187.111 309.202 186.789 310.243 186.561 311.197C186.32 312.211 185.274 312.844 184.224 312.61C183.175 312.377 182.52 311.366 182.762 310.352C182.794 310.216 182.841 310.087 182.901 309.966L182.907 309.954Z" fill="#5C0000"/>
<path d="M130.807 307.162C130.87 306.728 130.944 306.445 131.031 306.107C131.117 305.785 131.213 305.469 131.322 305.159C131.531 304.537 131.791 303.936 132.075 303.349C132.654 302.179 133.399 301.083 134.295 300.125C134.726 299.633 135.244 299.216 135.739 298.797C136.288 298.431 136.8 298.031 137.396 297.76C138.53 297.123 139.788 296.799 141.007 296.538C141.295 296.477 141.579 296.652 141.642 296.929C141.698 297.172 141.565 297.414 141.338 297.511L141.29 297.531C140.232 297.983 139.207 298.467 138.375 299.182C137.927 299.494 137.577 299.916 137.197 300.283C136.868 300.706 136.525 301.103 136.265 301.564C135.715 302.456 135.309 303.423 135.044 304.426C134.918 304.929 134.812 305.435 134.75 305.944C134.715 306.198 134.693 306.45 134.679 306.7C134.666 306.934 134.659 307.226 134.675 307.371C134.794 308.411 134.017 309.347 132.941 309.462C131.864 309.577 130.896 308.826 130.777 307.786C130.759 307.628 130.762 307.472 130.783 307.322L130.807 307.162Z" fill="#5C0000"/>
<path d="M191.427 292.452L201.858 293.57C202.288 293.616 202.599 293.992 202.552 294.408C202.51 294.768 202.215 295.041 201.858 295.079L191.427 296.197C190.357 296.311 189.394 295.566 189.275 294.532C189.156 293.498 189.927 292.567 190.997 292.452C191.139 292.437 191.29 292.439 191.427 292.452Z" fill="#5C0000"/>
<path d="M144.909 289.808L152.226 293.197C152.431 293.292 152.517 293.529 152.419 293.727C152.344 293.878 152.183 293.962 152.021 293.952L143.925 293.43C142.838 293.36 142.016 292.451 142.088 291.401C142.161 290.35 143.101 289.555 144.188 289.625C144.443 289.642 144.691 289.708 144.909 289.808Z" fill="#5C0000"/>
<path d="M210.769 205.422C210.599 209.513 209.994 213.127 209.035 216.314C208.004 219.745 206.565 222.694 204.827 225.212C204.812 225.235 204.798 225.254 204.783 225.273C204.715 225.366 204.677 225.418 204.677 225.418C203.974 226.424 203.219 227.355 202.42 228.226C187.683 244.388 158.689 238.762 158.689 238.762C144.363 251.198 131.428 241.519 131.428 241.519C131.428 241.519 131.423 241.519 131.418 241.514L122.784 233.244C122.784 233.244 122.973 231.39 123.636 228.895C124.818 224.453 127.515 217.966 133.365 216.295C142.499 213.688 150.8 221.112 150.8 221.112C158.272 216.698 176.326 212.485 176.326 212.485C182.138 201.453 191.063 195.233 191.063 195.233L210.783 200.85C210.793 201.112 210.798 201.369 210.803 201.626C210.832 202.937 210.822 204.201 210.769 205.422Z" fill="#58DA3F"/>
<g opacity="0.6">
<path d="M199.284 191.823C199.284 191.823 188.794 192.638 177.808 209.883L149.606 220.17C149.606 220.17 133.613 206.466 124.896 226.626C124.896 226.626 132.499 214.006 154.434 225.18C154.434 225.18 166.088 216.477 184.927 214.38C184.927 214.38 185.464 199.846 199.284 191.823Z" fill="white"/>
</g>
<g opacity="0.2">
<path d="M204.827 225.212C204.812 225.235 204.798 225.254 204.783 225.273C204.715 225.366 204.677 225.418 204.677 225.418C203.814 226.424 203.069 227.356 202.42 228.226C187.683 244.388 158.689 238.762 158.689 238.762C144.363 251.198 131.428 241.519 131.428 241.519C131.428 241.519 131.423 241.519 131.418 241.514C131.181 241.383 127.312 239.221 122.784 233.244C122.784 233.244 122.973 231.39 123.636 228.895C142.669 243.372 153.134 229.93 153.134 229.93C153.134 229.93 167.546 231.442 186.806 226.925C204.953 222.675 210.217 207.196 210.769 205.422C210.803 205.31 210.817 205.254 210.817 205.254C211.67 215.139 205.844 223.784 204.827 225.212Z" fill="#5C0000"/>
</g>
<path d="M150.8 221.11C150.8 221.11 153.394 223.517 155.47 226.626Z" fill="#91C948"/>
<path d="M211.375 200.829C211.597 203.961 211.622 207.122 211.309 210.283C211.16 211.863 210.915 213.44 210.588 215.009C210.269 216.58 209.757 218.114 209.273 219.658L208.36 221.922C208.018 222.662 207.601 223.372 207.209 224.091L206.909 224.627L206.564 225.139L205.872 226.163C205.437 226.862 204.882 227.481 204.367 228.127C202.253 230.671 199.69 232.861 196.863 234.615C194.035 236.374 190.958 237.708 187.793 238.688C184.625 239.67 181.367 240.308 178.093 240.673C174.818 241.04 171.526 241.162 168.246 241.073C166.605 241.027 164.968 240.925 163.333 240.777C161.688 240.62 160.091 240.431 158.405 240.13L159.653 239.8C157.733 241.466 155.597 242.943 153.253 244.097C152.679 244.403 152.061 244.635 151.462 244.899C151.156 245.018 150.844 245.124 150.535 245.237L150.07 245.403L149.594 245.543C148.335 245.939 147.025 246.194 145.706 246.351C143.064 246.672 140.364 246.463 137.801 245.83C136.519 245.511 135.266 245.092 134.063 244.563C133.458 244.305 132.87 244.011 132.288 243.699C131.998 243.542 131.711 243.377 131.426 243.203C131.132 243.023 130.878 242.861 130.545 242.622C130.506 242.593 130.469 242.562 130.434 242.53L130.413 242.51L121.769 234.235L121.755 234.221C121.44 233.92 121.305 233.503 121.348 233.108C121.452 232.204 121.595 231.4 121.766 230.559C121.936 229.728 122.136 228.904 122.366 228.085C122.829 226.449 123.403 224.832 124.159 223.267C124.535 222.485 124.952 221.714 125.433 220.969C125.908 220.223 126.435 219.496 127.041 218.815C127.33 218.467 127.666 218.148 127.988 217.821C128.338 217.515 128.674 217.197 129.057 216.921C129.421 216.625 129.83 216.379 130.227 216.12C130.648 215.895 131.058 215.649 131.507 215.471C135.052 213.977 138.941 214.06 142.431 215.025C144.179 215.509 145.841 216.199 147.404 217.035C148.186 217.453 148.943 217.908 149.679 218.398C150.048 218.641 150.409 218.896 150.766 219.16C151.131 219.432 151.458 219.682 151.847 220.018L149.997 219.841C152.067 218.619 154.198 217.745 156.337 216.902C158.477 216.069 160.637 215.334 162.808 214.649C164.979 213.962 167.168 213.348 169.361 212.76C171.559 212.174 173.748 211.618 175.982 211.103L175.015 211.84L175.737 210.568C175.979 210.145 176.211 209.716 176.485 209.312C177.011 208.49 177.537 207.669 178.115 206.883C179.225 205.281 180.491 203.788 181.794 202.341C183.113 200.904 184.519 199.547 186.006 198.283C187.5 197.02 189.039 195.837 190.753 194.816C191.004 194.667 191.332 194.742 191.486 194.984C191.622 195.197 191.578 195.469 191.395 195.632L191.375 195.65C189.985 196.893 188.631 198.233 187.355 199.605C186.076 200.98 184.842 202.389 183.7 203.862C183.404 204.222 183.119 204.59 182.843 204.963C182.566 205.337 182.276 205.7 182.011 206.081C181.486 206.845 180.936 207.592 180.44 208.372C179.408 209.907 178.518 211.519 177.639 213.131L177.637 213.134C177.43 213.513 177.07 213.769 176.673 213.868C174.519 214.397 172.343 214.982 170.194 215.588C168.04 216.192 165.903 216.847 163.779 217.52C161.653 218.186 159.545 218.898 157.492 219.693C155.445 220.486 153.408 221.344 151.604 222.383L151.598 222.386C150.996 222.733 150.247 222.639 149.754 222.205C149.517 221.996 149.187 221.733 148.886 221.506C148.576 221.272 148.259 221.043 147.933 220.823C147.284 220.382 146.613 219.969 145.923 219.591C144.544 218.835 143.092 218.22 141.602 217.791C140.111 217.364 138.576 217.139 137.06 217.173C136.303 217.193 135.547 217.258 134.809 217.413C134.439 217.473 134.072 217.583 133.715 217.674C133.377 217.789 133.032 217.888 132.709 218.043C132.375 218.17 132.068 218.359 131.749 218.522C131.449 218.721 131.136 218.9 130.853 219.131C130.556 219.338 130.29 219.593 130.012 219.83C129.753 220.094 129.482 220.343 129.243 220.63C128.745 221.182 128.295 221.791 127.889 222.434C127.477 223.071 127.111 223.748 126.777 224.443C126.105 225.833 125.578 227.309 125.151 228.816C124.94 229.57 124.755 230.334 124.597 231.101C124.441 231.859 124.303 232.664 124.221 233.379L123.8 232.253L132.444 240.528L132.313 240.416C132.478 240.534 132.738 240.707 132.969 240.845C133.208 240.991 133.454 241.132 133.704 241.268C134.206 241.537 134.72 241.795 135.249 242.02C136.302 242.484 137.401 242.85 138.519 243.128C140.756 243.679 143.085 243.859 145.365 243.581C146.504 243.445 147.637 243.227 148.735 242.88L149.149 242.759L149.556 242.613C149.826 242.514 150.099 242.422 150.368 242.318C150.895 242.082 151.438 241.884 151.949 241.609C154.025 240.587 155.958 239.258 157.725 237.725C158.07 237.426 158.522 237.316 158.945 237.389L158.974 237.394C160.453 237.659 162.053 237.854 163.61 238C165.178 238.142 166.753 238.24 168.33 238.284C171.481 238.37 174.637 238.252 177.756 237.903C183.976 237.206 190.116 235.487 195.302 232.269C197.887 230.664 200.204 228.681 202.12 226.377C204.055 224.08 205.509 221.453 206.779 218.727C207.337 217.332 207.934 215.938 208.353 214.48C208.779 213.024 209.134 211.541 209.398 210.037C209.941 207.031 210.165 203.953 210.193 200.87V200.863C210.196 200.547 210.463 200.293 210.79 200.296C211.101 200.299 211.354 200.535 211.375 200.829Z" fill="#5C0000"/>
<path d="M151.806 220.097C152.231 220.625 152.583 221.119 152.945 221.639C153.302 222.154 153.644 222.676 153.971 223.205C154.629 224.259 155.223 225.346 155.747 226.453C155.823 226.615 155.75 226.806 155.583 226.88C155.447 226.94 155.291 226.904 155.196 226.802L155.193 226.799C154.372 225.912 153.504 225.08 152.594 224.299C152.141 223.907 151.678 223.527 151.208 223.16C150.743 222.799 150.249 222.427 149.794 222.123C149.126 221.676 148.959 220.79 149.421 220.144C149.884 219.498 150.8 219.337 151.469 219.784C151.594 219.867 151.701 219.966 151.79 220.076L151.806 220.097Z" fill="#5C0000"/>
<path d="M176.252 211.082C176.788 211.11 177.219 211.164 177.689 211.232C178.149 211.299 178.603 211.382 179.053 211.477C179.953 211.668 180.837 211.917 181.698 212.223C182.559 212.527 183.389 212.918 184.175 213.362C184.962 213.813 185.679 214.367 186.325 214.969C186.444 215.08 186.447 215.263 186.332 215.377C186.233 215.476 186.079 215.493 185.962 215.424L185.947 215.415C185.222 214.991 184.473 214.639 183.681 214.391C182.887 214.149 182.083 213.964 181.262 213.862C180.442 213.758 179.617 213.709 178.795 213.713C178.384 213.717 177.974 213.73 177.568 213.759C177.173 213.785 176.736 213.829 176.406 213.886C175.611 214.024 174.849 213.513 174.706 212.743C174.563 211.974 175.093 211.239 175.889 211.101C176 211.081 176.111 211.075 176.219 211.08L176.252 211.082Z" fill="#5C0000"/>
<path d="M80.6946 131.299C80.6414 133.677 81.0433 136.022 81.7746 138.203C83.5278 143.436 87.1696 147.732 90.9276 149.258C92.3176 149.829 93.7268 150.016 95.0586 149.731C95.0586 149.731 90.9325 180.618 127.535 173.644C127.535 173.644 155.696 186.721 186.937 185.949C196.468 185.715 206.285 184.189 215.675 180.618C249.696 167.667 235.264 138.769 235.783 129.305C235.904 127.04 235.734 123.885 235.197 120.346C234.088 113.101 231.448 104.241 226.673 98.0483C224.039 94.6316 220.75 92.0198 216.707 90.9433C216.707 90.9433 207.946 81.9754 195.572 87.4563C195.572 87.4563 181.141 78.9892 161.551 87.9525C161.551 87.9525 142.126 77.7161 138.417 101.46C138.417 101.465 138.412 101.465 138.412 101.47C138.117 103.379 137.918 105.509 137.84 107.882C137.84 107.882 137.143 108.107 136.184 108.612C136.179 108.617 136.175 108.617 136.175 108.617C135.124 109.174 133.768 110.068 132.688 111.369C132.688 111.369 123.922 108.879 118.769 112.366C118.769 112.366 100.73 105.888 86.8112 118.343C82.5398 122.167 80.7964 126.787 80.6946 131.299Z" fill="#58DA3F"/>
<g opacity="0.6">
<path d="M138.417 101.46C145.245 83.754 164.229 90.7046 164.229 90.7046C166.244 90.2085 168.128 89.8293 169.881 89.5486C169.939 91.0183 173.019 92.207 176.806 92.207C180.632 92.207 183.731 90.9948 183.731 89.5017C183.731 89.4174 183.722 89.3332 183.702 89.2489C188.768 90.082 190.826 91.8606 190.826 91.8606C208.144 84.7883 219.234 96.8173 219.234 96.8173C225.322 99.7333 231.56 112.034 235.197 120.346C234.087 113.101 231.448 104.241 226.673 98.0483C224.039 94.6316 220.75 92.0198 216.706 90.9433C216.706 90.9433 207.946 81.9754 195.572 87.4563C195.572 87.4563 181.14 78.9892 161.551 87.9525C161.551 87.9525 142.126 77.7161 138.417 101.46Z" fill="white"/>
</g>
<g opacity="0.6">
<path d="M80.6946 131.299C80.6414 133.677 81.0433 136.022 81.7746 138.203C82.5979 128.083 88.6031 118.025 102.778 115.512C118.527 112.717 130.973 124.596 131.317 124.929L122.45 114.501C130.015 113.045 146.209 120.562 146.669 120.777L136.175 114.145C145.618 107.583 165.004 113.972 165.508 114.14C150.495 103.45 136.61 108.458 136.184 108.612C136.179 108.617 136.175 108.617 136.175 108.617C135.124 109.174 133.768 110.068 132.688 111.369C132.688 111.369 123.922 108.879 118.769 112.366C118.769 112.366 100.73 105.888 86.8113 118.343C82.5398 122.167 80.7964 126.787 80.6946 131.299Z" fill="white"/>
</g>
<path d="M95.0583 149.731C95.0583 149.731 90.9322 180.618 127.535 173.644C127.535 173.644 155.696 186.721 186.937 185.949C207.994 178.624 202.415 151.907 189.422 144.615C175.033 136.541 171.745 150.583 162.398 155.741C153.047 160.894 144.242 159.279 136.174 157.594C128.106 155.909 121.002 156.157 112.42 154.411C103.838 152.665 100.797 147.339 100.797 147.339C96.8646 149.309 93.586 149.684 90.9272 149.258C92.3172 149.829 93.7264 150.016 95.0583 149.731Z" fill="#FFDF46"/>
<g opacity="0.2">
<path d="M90.9273 148.109C92.3172 148.68 93.7265 148.867 95.0582 148.581C95.0582 148.581 90.9321 179.468 127.534 172.494C127.534 172.494 155.696 185.572 186.937 184.799C196.468 184.565 206.284 183.04 215.675 179.468C249.696 166.517 235.264 137.62 235.782 128.156C236.155 121.247 233.787 106.12 226.673 96.8989C227.792 103.236 228.964 115.083 225.603 128.071C225.603 128.071 233.424 162.37 213.186 168.89C192.952 175.41 166.515 167.987 171.774 145.02C171.774 145.02 159.464 152.841 152.374 152.04C145.284 151.24 130.339 145.221 121.311 147.926C112.279 150.636 100.138 137.095 100.138 137.095C100.138 137.095 87.9973 148.931 80.6943 130.149C80.5103 138.223 85.605 145.946 90.9273 148.109Z" fill="#5C0000"/>
</g>
<path d="M184.219 187.855C156.107 187.856 131.468 177.459 127.283 175.597C115.223 177.783 106.101 176.171 100.165 170.802C93.5014 164.774 92.8778 155.814 92.9853 151.694C92.0545 151.605 91.1066 151.366 90.1696 150.982C84.9193 148.845 80.3701 142.512 79.1049 135.578C77.8013 128.433 80.0707 121.825 85.4948 116.97C98.4496 105.377 114.477 109.112 118.513 110.312C123.144 107.786 129.415 108.725 132.027 109.282C133.383 107.97 134.907 107.115 135.953 106.625C136.502 95.8445 139.652 88.7918 145.327 85.651C151.689 82.1294 159.034 84.7645 161.573 85.8802C178.881 78.3262 192.135 83.6434 195.667 85.376C207.136 80.8301 215.754 87.5506 217.701 89.2738C234.153 94.1465 238.189 120.695 237.717 129.403C237.625 131.079 238.106 133.679 238.663 136.69C239.836 143.038 241.444 151.731 239.177 160.15C236.484 170.155 228.815 177.628 216.385 182.36C207.545 185.721 197.654 187.559 186.986 187.821C186.062 187.843 185.137 187.855 184.219 187.855ZM127.534 171.772C127.823 171.772 128.11 171.834 128.373 171.956C128.651 172.085 156.502 184.832 186.888 184.078C197.102 183.827 206.549 182.076 214.966 178.876C240.715 169.074 237.185 149.982 234.849 137.349C234.25 134.11 233.733 131.312 233.848 129.206C234.331 120.3 229.788 96.3752 216.191 92.7484C215.85 92.6574 215.541 92.4776 215.298 92.2288C214.98 91.9083 207.29 84.3252 196.379 89.1584C195.795 89.4167 195.116 89.3791 194.567 89.0569C194.014 88.7365 180.719 81.2537 162.38 89.6448C161.821 89.9012 161.167 89.883 160.624 89.5962C160.552 89.5588 153.012 85.6955 147.235 88.9097C142.611 91.4814 140.102 97.8845 139.777 107.941C139.751 108.725 139.223 109.41 138.454 109.658C138.435 109.665 135.861 110.534 134.199 112.54C133.708 113.133 132.894 113.379 132.141 113.166C132.064 113.144 124.197 110.979 119.88 113.9C119.359 114.253 118.691 114.336 118.094 114.121C117.404 113.876 100.975 108.22 88.1276 119.717C82.1571 125.061 82.3022 131.541 82.9201 134.928C84.0908 141.343 88.2119 146.124 91.6782 147.532C91.6804 147.533 91.6826 147.534 91.6852 147.535C92.7476 147.972 93.7409 148.096 94.639 147.903C95.2561 147.772 95.8993 147.937 96.3651 148.349C96.8314 148.761 97.0605 149.366 96.9796 149.971C96.9651 150.083 95.5667 161.534 102.83 168.084C107.908 172.663 116.094 173.916 127.16 171.807C127.284 171.783 127.409 171.772 127.534 171.772Z" fill="#5C0000"/>
<path d="M137.041 106.231C137.278 106.171 137.436 106.139 137.624 106.1L138.16 105.999C138.515 105.936 138.867 105.883 139.217 105.835C139.919 105.742 140.618 105.666 141.318 105.619C142.715 105.517 144.112 105.507 145.502 105.569C148.283 105.691 151.039 106.141 153.689 106.907C156.341 107.668 158.873 108.77 161.221 110.134C163.557 111.52 165.704 113.168 167.621 115.015C167.895 115.28 167.896 115.708 167.623 115.974C167.363 116.225 166.949 116.239 166.673 116.013L166.668 116.008C164.687 114.375 162.526 112.972 160.239 111.84C157.939 110.73 155.517 109.89 153.028 109.375C150.541 108.855 147.996 108.636 145.47 108.716C144.208 108.754 142.949 108.858 141.71 109.044C141.09 109.133 140.476 109.247 139.871 109.374C139.569 109.439 139.269 109.508 138.976 109.583L138.543 109.699C138.409 109.737 138.247 109.786 138.165 109.814C137.159 110.171 136.044 109.671 135.675 108.699C135.307 107.726 135.824 106.649 136.83 106.293C136.887 106.273 136.945 106.255 137.002 106.241L137.041 106.231Z" fill="#5C0000"/>
<path d="M132.946 109.542C133.223 109.659 133.423 109.753 133.647 109.861C133.868 109.964 134.081 110.071 134.292 110.18C134.72 110.392 135.128 110.621 135.541 110.846C136.356 111.308 137.156 111.783 137.931 112.289C139.483 113.298 140.981 114.369 142.39 115.537C143.798 116.704 145.16 117.916 146.414 119.223C147.694 120.505 148.856 121.888 149.978 123.285C150.205 123.567 150.152 123.973 149.86 124.193C149.59 124.396 149.208 124.367 148.973 124.136L148.957 124.12C147.706 122.893 146.433 121.695 145.062 120.61C143.716 119.5 142.281 118.498 140.823 117.55C139.364 116.601 137.837 115.759 136.289 114.988C135.515 114.601 134.726 114.249 133.936 113.914C133.54 113.755 133.144 113.588 132.747 113.446C132.549 113.371 132.351 113.298 132.156 113.233C131.967 113.167 131.749 113.096 131.606 113.056C130.576 112.766 129.984 111.725 130.283 110.73C130.583 109.735 131.66 109.162 132.69 109.452C132.766 109.473 132.84 109.498 132.911 109.528L132.946 109.542Z" fill="#5C0000"/>
<path d="M119.732 110.753C119.884 110.826 119.984 110.882 120.095 110.942C120.208 111.001 120.31 111.061 120.413 111.122C120.621 111.241 120.824 111.362 121.019 111.488C121.419 111.731 121.794 111.996 122.174 112.254C122.919 112.787 123.636 113.345 124.319 113.935C125.686 115.113 126.939 116.401 128.033 117.799C129.132 119.19 130.117 120.659 130.899 122.22C131.324 122.983 131.649 123.791 131.985 124.587C132.167 124.98 132.287 125.396 132.426 125.804L132.832 127.026C132.932 127.325 132.761 127.646 132.451 127.742C132.165 127.83 131.859 127.695 131.737 127.437L131.719 127.4C131.013 125.909 130.263 124.447 129.298 123.12C128.382 121.768 127.295 120.538 126.131 119.405C124.972 118.267 123.69 117.255 122.34 116.366C121.666 115.92 120.97 115.512 120.266 115.132C119.909 114.953 119.556 114.765 119.198 114.607C119.02 114.521 118.842 114.445 118.666 114.372C118.577 114.334 118.489 114.297 118.406 114.267C118.323 114.235 118.229 114.198 118.184 114.186C117.145 113.908 116.535 112.869 116.822 111.864C117.109 110.86 118.185 110.271 119.224 110.548C119.342 110.58 119.454 110.621 119.56 110.671L119.732 110.753Z" fill="#5C0000"/>
<path d="M94.6334 148.318C95.0822 148.199 95.583 148.048 96.0515 147.896C96.5257 147.741 96.9959 147.576 97.4513 147.397C98.3577 147.047 99.2496 146.63 99.8894 146.17C100.562 145.686 101.513 145.82 102.014 146.47L102.028 146.49C102.232 146.752 102.509 147.08 102.768 147.371C103.035 147.669 103.311 147.961 103.592 148.249C104.158 148.823 104.751 149.373 105.366 149.893C106.594 150.938 107.915 151.87 109.318 152.62C110.718 153.375 112.204 153.937 113.727 154.242C114.107 154.323 114.49 154.376 114.874 154.425C115.264 154.46 115.623 154.495 116.068 154.51C116.92 154.555 117.775 154.578 118.629 154.61C120.34 154.663 122.059 154.672 123.811 154.701C125.562 154.731 127.35 154.798 129.132 154.975C130.915 155.148 132.684 155.426 134.424 155.77C136.162 156.115 137.889 156.555 139.535 156.965C141.194 157.369 142.844 157.727 144.499 157.982C146.154 158.229 147.813 158.371 149.465 158.36C152.77 158.357 156.03 157.653 159.034 156.314C162.05 154.986 164.742 152.974 167.154 150.688C169.568 148.389 171.672 145.763 173.606 143.021L173.608 143.017C173.815 142.724 174.227 142.649 174.53 142.848C174.819 143.039 174.901 143.414 174.728 143.702C172.955 146.624 170.905 149.415 168.512 151.956C166.09 154.462 163.291 156.721 160.039 158.308C156.81 159.922 153.153 160.791 149.519 160.877C147.701 160.932 145.89 160.818 144.11 160.595C142.331 160.365 140.584 160.027 138.869 159.652C137.142 159.275 135.51 158.871 133.844 158.559C132.182 158.249 130.518 158.008 128.847 157.863C125.517 157.562 122.076 157.701 118.548 157.624C117.668 157.606 116.789 157.569 115.908 157.525C115.487 157.511 114.981 157.467 114.508 157.421C114.032 157.361 113.557 157.292 113.089 157.194C111.214 156.813 109.436 156.129 107.809 155.249C106.178 154.37 104.679 153.313 103.312 152.134C102.63 151.542 101.98 150.92 101.357 150.272C101.047 149.946 100.744 149.615 100.448 149.275C100.147 148.926 99.8762 148.602 99.566 148.19L101.705 148.51C101.169 148.886 100.641 149.168 100.114 149.422C99.5869 149.676 99.0626 149.883 98.5373 150.081C98.012 150.277 97.4845 150.444 96.9562 150.605C96.4209 150.764 95.9104 150.906 95.3384 151.042C94.5592 151.228 93.7721 150.768 93.5802 150.015C93.391 149.274 93.849 148.525 94.6059 148.325L94.6334 148.318Z" fill="#5C0000"/>
<path d="M176.14 153.142C175.919 151.647 175.646 150.153 175.232 148.76C174.823 147.363 174.282 146.047 173.554 144.904C173.195 144.329 172.769 143.815 172.31 143.342C171.844 142.876 171.35 142.434 170.779 142.073C169.664 141.304 168.323 140.786 166.845 140.264L166.816 140.254C166.459 140.128 166.275 139.745 166.405 139.4C166.496 139.16 166.716 139.001 166.961 138.968C167.814 138.858 168.692 138.859 169.571 139.002C170.451 139.127 171.323 139.413 172.146 139.809C173.8 140.609 175.17 141.976 176.028 143.514C176.9 145.055 177.355 146.729 177.501 148.375C177.626 150.029 177.523 151.651 177.037 153.238C176.965 153.472 176.71 153.606 176.468 153.537C176.291 153.486 176.169 153.341 176.145 153.175L176.14 153.142Z" fill="#5C0000"/>
<path d="M196.792 88.986C196.522 89.0971 196.17 89.275 195.858 89.4399C195.537 89.6089 195.219 89.7886 194.902 89.974C194.271 90.3465 193.657 90.7499 193.061 91.1809C191.874 92.0465 190.779 93.0351 189.892 94.2082L189.881 94.2222C189.708 94.4507 189.377 94.5003 189.14 94.3335C188.949 94.1979 188.879 93.9605 188.952 93.7542C189.485 92.2453 190.317 90.832 191.286 89.5314C191.773 88.8814 192.292 88.2525 192.844 87.6466C193.12 87.3444 193.402 87.046 193.696 86.7537C193.997 86.4547 194.272 86.1857 194.643 85.8708L194.721 85.8042C195.538 85.1103 196.782 85.1878 197.501 85.9776C198.219 86.7674 198.138 87.9703 197.321 88.6643C197.161 88.8001 196.977 88.909 196.792 88.986Z" fill="#5C0000"/>
<path d="M218.619 90.107C218.715 90.2741 218.747 90.3592 218.8 90.4747C218.85 90.5851 218.889 90.688 218.932 90.7933C219.013 91.0028 219.089 91.2081 219.155 91.4132C219.293 91.8229 219.407 92.229 219.507 92.6347C219.707 93.4456 219.846 94.2536 219.945 95.0563C220.032 95.8614 220.091 96.6586 220.093 97.4522C220.105 98.2444 220.062 99.0306 220.003 99.8065C219.99 99.976 219.837 100.103 219.662 100.091C219.524 100.081 219.413 99.9874 219.379 99.8655L219.376 99.8569C219.168 99.1209 218.945 98.3974 218.675 97.6948C218.415 96.9905 218.104 96.3097 217.779 95.6495C217.441 94.9934 217.077 94.3605 216.677 93.7675C216.478 93.4714 216.27 93.1835 216.054 92.9151C215.948 92.7789 215.837 92.6502 215.728 92.5274C215.674 92.4681 215.619 92.4041 215.566 92.3529C215.518 92.3052 215.446 92.229 215.433 92.2382C214.825 91.388 215.044 90.2218 215.923 89.6333C216.803 89.0448 218.01 89.2568 218.619 90.107Z" fill="#5C0000"/>
<path d="M112.42 134.936C113.891 134.936 115.084 133.155 115.084 130.957C115.084 128.76 113.891 126.979 112.42 126.979C110.949 126.979 109.756 128.76 109.756 130.957C109.756 133.155 110.949 134.936 112.42 134.936Z" fill="#5C0000"/>
<path d="M91.8379 130.957C93.309 130.957 94.5015 129.176 94.5015 126.979C94.5015 124.782 93.309 123 91.8379 123C90.3669 123 89.1743 124.782 89.1743 126.979C89.1743 129.176 90.3669 130.957 91.8379 130.957Z" fill="#5C0000"/>
<path d="M158.853 157.627C161.469 156.49 164.127 154.795 166.786 152.338C165.537 150.208 163.12 147.494 158.427 144.999C158.427 144.999 158.916 151.617 158.853 157.627Z" fill="white"/>
<path d="M144.243 159.279C145.119 167.1 150.437 170.04 150.437 170.04C151.163 166.061 152.616 162.785 152.616 159.378C149.696 159.789 146.877 159.654 144.243 159.279Z" fill="white"/>
<path d="M127.583 156.307C130.034 156.461 132.683 156.803 136.174 157.594C136.155 154.795 135.656 150.625 133.486 146.169C133.486 146.169 128.997 148.701 127.583 156.307Z" fill="white"/>
<path d="M117.505 167.232C116.624 163.819 117.35 159.2 118.053 156.101C117.273 156.078 116.445 156.045 115.568 155.998C113.253 155.872 111.142 155.254 109.292 154.412C108.628 164.503 117.505 167.232 117.505 167.232Z" fill="white"/>
<path d="M94.0172 149.98L92.0299 157.621C91.6992 158.893 89.8495 158.944 89.4431 157.694L85.1934 144.615C85.1934 144.615 88.9322 149.579 94.0172 149.98Z" fill="white"/>
<path d="M159.507 156.662C159.434 156.533 159.279 156.422 159.129 156.399C159.055 156.387 158.988 156.393 158.938 156.408C158.912 156.415 158.891 156.425 158.875 156.436C158.862 156.446 158.912 156.427 158.926 156.423C159.112 156.367 159.298 156.309 159.481 156.244C159.848 156.117 160.21 155.973 160.566 155.818C161.278 155.504 161.972 155.145 162.637 154.739C163.304 154.334 163.952 153.895 164.549 153.395C165.145 152.895 165.713 152.359 166.194 151.744L166.196 151.742L166.044 152.745C165.072 151.292 163.793 150.039 162.37 148.968C160.948 147.891 159.37 147.001 157.731 146.231L157.727 146.23L159.876 144.899C159.982 147.033 160.046 149.142 160.08 151.265C160.098 152.326 160.102 153.387 160.099 154.449L160.083 156.043L160.077 156.442L160.076 156.491C160.076 156.499 160.075 156.497 160.074 156.5C160.072 156.503 160.069 156.506 160.064 156.507C160.055 156.51 160.04 156.509 160.018 156.508C159.935 156.496 159.706 156.508 159.507 156.662ZM158.201 158.593C158.004 158.22 157.777 157.705 157.697 157.167C157.675 157.034 157.661 156.902 157.652 156.773L157.644 156.583L157.641 156.443L157.631 156.052L157.583 154.487C157.543 153.443 157.496 152.399 157.435 151.354C157.317 149.268 157.166 147.168 156.978 145.099L156.975 145.064C156.907 144.308 157.485 143.642 158.267 143.575C158.58 143.549 158.878 143.622 159.128 143.769L159.131 143.771C160.821 144.788 162.442 145.936 163.888 147.288C165.331 148.635 166.611 150.18 167.529 151.932L167.587 152.042C167.75 152.355 167.654 152.729 167.376 152.934L167.374 152.936C166.688 153.398 166.051 153.9 165.403 154.393C164.756 154.887 164.121 155.395 163.464 155.883C162.807 156.37 162.138 156.848 161.449 157.309L160.407 157.997L159.877 158.337C159.847 158.355 159.851 158.358 159.793 158.388C159.731 158.42 159.664 158.45 159.593 158.478C159.452 158.534 159.293 158.581 159.128 158.61C158.794 158.669 158.456 158.64 158.201 158.593Z" fill="#5C0000"/>
<path d="M145.25 160.291C145.453 160.406 145.662 160.424 145.771 160.41C145.826 160.405 145.859 160.398 145.874 160.405C145.881 160.409 145.885 160.415 145.885 160.426C145.885 160.436 145.909 160.531 145.92 160.579C146.044 161.05 146.115 161.537 146.283 161.994L146.503 162.688L146.776 163.361L146.912 163.698L147.074 164.023C147.185 164.237 147.283 164.459 147.402 164.669C147.87 165.515 148.436 166.304 149.077 167.021C149.393 167.385 149.743 167.715 150.099 168.031C150.28 168.181 150.461 168.339 150.649 168.472C150.742 168.543 150.834 168.611 150.925 168.67C150.971 168.701 151.019 168.735 151.059 168.759L151.158 168.821H151.158L149.006 169.796L149.007 169.791C149.407 167.93 149.983 166.155 150.5 164.437C151.014 162.718 151.46 161.041 151.521 159.379V159.378L152.775 160.425C151.333 160.686 149.868 160.824 148.404 160.856C147.672 160.872 146.94 160.862 146.211 160.83C145.846 160.813 145.482 160.791 145.119 160.765L144.575 160.72C144.531 160.716 144.574 160.723 144.603 160.724C144.633 160.725 144.666 160.724 144.701 160.719C144.77 160.71 144.846 160.687 144.92 160.649C145.069 160.573 145.194 160.434 145.25 160.291ZM143.235 158.268C143.466 158.149 143.764 158.033 144.086 157.981C144.246 157.955 144.41 157.943 144.565 157.946C144.643 157.948 144.719 157.952 144.793 157.959C144.866 157.966 144.951 157.979 144.951 157.979L145.45 158.062C145.782 158.114 146.114 158.161 146.447 158.204C147.113 158.289 147.781 158.353 148.449 158.394C149.786 158.475 151.126 158.46 152.458 158.331L152.501 158.327C153.106 158.268 153.645 158.694 153.706 159.279C153.709 159.311 153.711 159.346 153.711 159.378V159.379C153.767 161.357 153.377 163.253 152.968 165.044C152.553 166.839 152.12 168.565 151.868 170.279L151.868 170.284L151.861 170.32C151.713 171.075 150.96 171.571 150.179 171.428C150.013 171.397 149.853 171.337 149.715 171.259L149.715 171.259C149.601 171.195 149.543 171.155 149.467 171.109C149.391 171.062 149.329 171.018 149.262 170.973C149.127 170.883 149 170.792 148.877 170.699C148.624 170.516 148.396 170.32 148.163 170.125C147.711 169.726 147.277 169.312 146.886 168.866C146.094 167.981 145.406 167.017 144.84 165.994C144.696 165.739 144.576 165.474 144.443 165.214L144.249 164.823L144.084 164.42L143.76 163.613L143.496 162.789C143.301 162.243 143.21 161.677 143.069 161.12C143.052 161.039 143.038 161.007 143.018 160.885C142.999 160.764 142.982 160.64 142.97 160.512C142.945 160.257 142.938 159.988 142.954 159.721C142.983 159.183 143.113 158.677 143.235 158.268Z" fill="#5C0000"/>
<path d="M136.175 158.998C136.064 158.998 135.953 158.986 135.843 158.962C132.77 158.265 130.194 157.879 127.489 157.708C127.076 157.682 126.694 157.487 126.439 157.172C126.184 156.858 126.08 156.453 126.153 156.059C127.669 147.909 132.548 145.073 132.754 144.956C133.107 144.758 133.528 144.711 133.918 144.828C134.308 144.945 134.628 145.215 134.801 145.571C137.101 150.295 137.608 154.712 137.627 157.585C137.63 158.016 137.429 158.424 137.081 158.692C136.821 158.892 136.501 158.998 136.175 158.998ZM129.354 155.039C131.075 155.205 132.789 155.461 134.644 155.83C134.479 153.771 134.017 151.204 132.918 148.452C131.811 149.563 130.262 151.624 129.354 155.039Z" fill="#5C0000"/>
<path d="M117.505 168.636C117.358 168.636 117.209 168.614 117.065 168.57C116.965 168.539 107.115 165.38 107.842 154.322C107.872 153.858 108.138 153.439 108.553 153.203C108.967 152.966 109.476 152.943 109.911 153.141C111.801 154.002 113.732 154.492 115.65 154.596C116.452 154.639 117.253 154.672 118.097 154.698C118.529 154.711 118.933 154.909 119.198 155.238C119.464 155.567 119.564 155.994 119.472 156.402C118.487 160.745 118.289 164.47 118.915 166.891C119.042 167.385 118.884 167.907 118.499 168.255C118.226 168.503 117.869 168.636 117.505 168.636ZM110.749 156.495C111.098 160.996 113.702 163.504 115.682 164.776C115.541 162.335 115.862 159.702 116.291 157.44C116.023 157.428 115.755 157.415 115.488 157.4C113.901 157.314 112.314 157.01 110.749 156.495Z" fill="#5C0000"/>
<path d="M90.722 160.008C89.4919 160.008 88.4277 159.256 88.0567 158.114L83.8072 145.036C83.5939 144.38 83.9042 143.671 84.5396 143.361C85.1759 143.051 85.9494 143.233 86.3681 143.789C86.4004 143.831 89.7921 148.238 94.1356 148.581C94.5608 148.615 94.9497 148.827 95.1984 149.163C95.447 149.498 95.5301 149.923 95.4261 150.323L93.439 157.963C93.1305 159.15 92.0724 159.971 90.8069 160.007C90.7784 160.008 90.75 160.008 90.722 160.008ZM88.2424 149.313L90.7142 156.92L92.2263 151.106C90.7347 150.736 89.3909 150.066 88.2424 149.313Z" fill="#5C0000"/>
<path d="M162.606 86.3824C162.752 86.4933 162.794 86.5427 162.871 86.6158C162.944 86.6848 163.001 86.7491 163.064 86.8151C163.185 86.9469 163.299 87.0762 163.404 87.2075C163.619 87.4681 163.809 87.7323 163.989 87.9986C164.348 88.5312 164.651 89.0765 164.919 89.6262C165.18 90.1799 165.411 90.7353 165.598 91.2984C165.791 91.8586 165.939 92.4256 166.071 92.9876C166.145 93.3042 165.94 93.6191 165.612 93.6906C165.364 93.7448 165.118 93.6446 164.98 93.4553L164.967 93.437C164.644 92.9931 164.316 92.5638 163.959 92.1634C163.608 91.76 163.231 91.3868 162.846 91.038C162.455 90.6946 162.053 90.3781 161.639 90.1056C161.433 89.9701 161.225 89.842 161.019 89.7352C160.916 89.6786 160.814 89.6315 160.716 89.5876C160.668 89.5681 160.617 89.5436 160.575 89.5312C160.54 89.5206 160.468 89.4887 160.496 89.5227C159.599 88.9595 159.344 87.8 159.926 86.9328C160.509 86.0656 161.709 85.8192 162.606 86.3824Z" fill="#5C0000"/>
<path d="M84.1641 173.509C84.1641 173.509 77.9117 184.491 84.1641 184.491C90.4166 184.491 84.1641 173.509 84.1641 173.509Z" fill="#FF8D06"/>
<path d="M106.839 173.509C106.839 173.509 100.586 184.491 106.839 184.491C113.091 184.491 106.839 173.509 106.839 173.509Z" fill="#FF8D06"/>
<path d="M129.981 173.509C129.981 173.509 123.729 184.491 129.981 184.491C136.233 184.491 129.981 173.509 129.981 173.509Z" fill="#FF8D06"/>
<path d="M84.1639 185.661C82.1851 185.661 81.2184 184.76 80.7565 184.004C78.8092 180.822 82.3695 174.233 83.1033 172.944C83.3161 172.571 83.7225 172.338 84.1639 172.338C84.6054 172.338 85.0118 172.571 85.2246 172.944C85.9583 174.233 89.5187 180.821 87.5718 184.004C87.1093 184.76 86.1431 185.661 84.1639 185.661ZM84.1639 176.165C83.0128 178.701 82.1283 181.649 82.841 182.814C82.9258 182.953 83.1513 183.321 84.1639 183.321C85.1764 183.321 85.4019 182.952 85.4871 182.814C86.1999 181.649 85.3154 178.701 84.1639 176.165Z" fill="#5C0000"/>
<path d="M106.839 185.661C104.86 185.661 103.893 184.76 103.431 184.004C101.484 180.821 105.044 174.233 105.778 172.944C105.991 172.571 106.398 172.338 106.839 172.338C107.28 172.338 107.687 172.571 107.9 172.944C108.633 174.233 112.194 180.822 110.246 184.004C109.784 184.76 108.818 185.661 106.839 185.661ZM106.839 176.165C105.687 178.701 104.803 181.649 105.516 182.814C105.601 182.952 105.826 183.321 106.839 183.321C107.851 183.321 108.077 182.953 108.162 182.814C108.874 181.649 107.99 178.701 106.839 176.165Z" fill="#5C0000"/>
<path d="M129.981 185.661C128.002 185.661 127.036 184.76 126.573 184.004C124.626 180.821 128.187 174.233 128.92 172.944C129.133 172.571 129.54 172.338 129.981 172.338C130.422 172.338 130.829 172.571 131.042 172.944C131.775 174.233 135.336 180.822 133.389 184.004C132.926 184.76 131.96 185.661 129.981 185.661ZM129.981 176.165C128.829 178.701 127.945 181.649 128.658 182.814C128.743 182.952 128.968 183.321 129.981 183.321C130.993 183.321 131.219 182.953 131.304 182.814C132.017 181.649 131.132 178.701 129.981 176.165Z" fill="#5C0000"/>
<path d="M87.6405 189.24H80.6875V198.262H87.6405V189.24Z" fill="white"/>
<path d="M110.315 189.24H103.362V198.262H110.315V189.24Z" fill="white"/>
<path d="M133.457 189.24H126.504V198.262H133.457V189.24Z" fill="white"/>
<path d="M139.632 232.945H71.3997C68.534 232.945 66.2109 230.699 66.2109 227.93H144.821C144.821 230.699 142.498 232.945 139.632 232.945Z" fill="white"/>
<path d="M139.84 202.722H73.8384V227.93H139.84V202.722Z" fill="#AD5833"/>
<g opacity="0.2">
<path d="M139.84 202.208V215.094C138.484 214.729 137.385 213.765 136.857 212.515C136.615 211.935 136.053 211.537 135.409 211.537H135.404C134.76 211.537 134.198 211.935 133.956 212.515C133.278 214.125 131.651 215.258 129.757 215.258C127.859 215.258 126.232 214.125 125.554 212.515C125.312 211.935 124.75 211.537 124.106 211.537H124.101C123.457 211.537 122.895 211.935 122.653 212.515C121.975 214.125 120.352 215.258 118.454 215.258C116.556 215.258 114.928 214.125 114.25 212.515C114.008 211.935 113.446 211.537 112.802 211.537C112.158 211.537 111.596 211.935 111.354 212.515C110.676 214.125 109.049 215.258 107.151 215.258C105.252 215.258 103.625 214.125 102.947 212.515C102.705 211.935 102.143 211.537 101.499 211.537C100.855 211.537 100.293 211.935 100.051 212.515C99.3729 214.125 97.7457 215.258 95.8473 215.258C93.949 215.258 92.3218 214.125 91.6437 212.515C91.4015 211.935 90.8398 211.537 90.1957 211.537C89.5516 211.537 88.9899 211.935 88.7477 212.515C88.0697 214.125 86.4424 215.258 84.544 215.258C82.6456 215.258 81.0184 214.125 80.3404 212.515C80.0982 211.935 79.5364 211.537 78.8924 211.537C78.2482 211.537 77.6865 211.935 77.4444 212.515C76.839 213.952 75.4733 215.01 73.8364 215.216V202.208H139.84Z" fill="#5C0000"/>
</g>
<path d="M139.839 229.099H73.8379C73.1693 229.099 72.6274 228.576 72.6274 227.93V202.722C72.6274 202.075 73.1694 201.552 73.8379 201.552H139.839C140.508 201.552 141.05 202.076 141.05 202.722V227.93C141.05 228.576 140.508 229.099 139.839 229.099ZM75.0484 226.76H138.629V203.892H75.0484V226.76Z" fill="#5C0000"/>
<path d="M139.632 234.114H71.3997C67.8712 234.114 65.0005 231.34 65.0005 227.93C65.0005 227.283 65.5424 226.76 66.211 226.76H144.821C145.49 226.76 146.032 227.284 146.032 227.93C146.032 231.34 143.161 234.114 139.632 234.114ZM67.6099 229.1C68.1233 230.649 69.628 231.774 71.3997 231.774H139.632C141.404 231.774 142.909 230.649 143.422 229.1H67.6099Z" fill="#5C0000"/>
<path d="M68.7615 210.445H68.7034C67.6336 210.445 66.7661 209.606 66.7661 208.572V207.87C66.7661 206.836 67.6335 205.998 68.7034 205.998C69.7732 205.998 70.6407 206.836 70.6407 207.87C70.6407 208.006 70.6517 208.142 70.674 208.273C70.7649 208.815 70.605 209.368 70.2369 209.786C69.8689 210.204 69.3297 210.445 68.7615 210.445Z" fill="#5C0000"/>
<path d="M87.6404 199.432H80.6875C80.0189 199.432 79.4771 198.908 79.4771 198.262V189.24C79.4771 188.594 80.019 188.07 80.6875 188.07H87.6404C88.3091 188.07 88.8509 188.594 88.8509 189.24V198.262C88.851 198.908 88.3091 199.432 87.6404 199.432ZM81.8981 197.092H86.4299V190.41H81.8981V197.092Z" fill="#5C0000"/>
<path d="M84.1637 190.176C83.6288 190.176 83.1953 189.757 83.1953 189.24V184.491C83.1953 183.974 83.6289 183.555 84.1637 183.555C84.6986 183.555 85.1321 183.974 85.1321 184.491V189.24C85.1321 189.757 84.6986 190.176 84.1637 190.176Z" fill="#5C0000"/>
<path d="M110.316 199.432H103.363C102.694 199.432 102.152 198.908 102.152 198.262V189.24C102.152 188.594 102.694 188.07 103.363 188.07H110.316C110.984 188.07 111.526 188.594 111.526 189.24V198.262C111.526 198.908 110.984 199.432 110.316 199.432ZM104.573 197.092H109.105V190.41H104.573V197.092Z" fill="#5C0000"/>
<path d="M106.839 190.176C106.304 190.176 105.871 189.757 105.871 189.24V184.491C105.871 183.974 106.304 183.555 106.839 183.555C107.374 183.555 107.807 183.974 107.807 184.491V189.24C107.807 189.757 107.374 190.176 106.839 190.176Z" fill="#5C0000"/>
<path d="M133.457 199.432H126.504C125.836 199.432 125.294 198.908 125.294 198.262V189.24C125.294 188.594 125.836 188.07 126.504 188.07H133.457C134.126 188.07 134.668 188.594 134.668 189.24V198.262C134.668 198.908 134.126 199.432 133.457 199.432ZM127.715 197.092H132.247V190.41H127.715V197.092Z" fill="#5C0000"/>
<path d="M129.981 190.176C129.446 190.176 129.013 189.757 129.013 189.24V184.491C129.013 183.974 129.446 183.555 129.981 183.555C130.516 183.555 130.949 183.974 130.949 184.491V189.24C130.949 189.757 130.516 190.176 129.981 190.176Z" fill="#5C0000"/>
<path d="M139.84 217.449H73.8384V227.93H139.84V217.449Z" fill="#AD5833"/>
<path d="M139.84 221.11H73.8384V223.316H139.84V221.11Z" fill="#FC4F8B"/>
<path d="M139.839 229.1H73.8379C73.1693 229.1 72.6274 228.576 72.6274 227.93V217.449C72.6274 216.802 73.1694 216.279 73.8379 216.279H139.839C140.508 216.279 141.05 216.803 141.05 217.449V227.93C141.05 228.576 140.508 229.1 139.839 229.1ZM75.0484 226.76H138.629V218.619H75.0484V226.76Z" fill="#5C0000"/>
<path d="M139.467 198.262C142.146 198.262 144.318 200.361 144.318 202.95V206.888C144.318 207.127 144.299 207.361 144.26 207.59C143.916 209.701 142.037 211.311 139.776 211.311C137.882 211.311 136.254 210.177 135.576 208.565C135.333 207.986 134.775 207.59 134.129 207.59H134.124C133.478 207.59 132.92 207.986 132.677 208.565C131.999 210.177 130.371 211.311 128.477 211.311C126.579 211.311 124.951 210.177 124.273 208.565C124.03 207.986 123.472 207.59 122.825 207.59H122.821C122.175 207.59 121.616 207.987 121.373 208.566C120.696 210.177 119.072 211.311 117.174 211.311C115.276 211.311 113.647 210.177 112.969 208.565C112.726 207.986 112.168 207.59 111.522 207.59C110.876 207.59 110.318 207.986 110.075 208.565C109.397 210.177 107.768 211.311 105.871 211.311C103.973 211.311 102.344 210.177 101.666 208.565C101.423 207.986 100.865 207.59 100.219 207.59C99.5728 207.59 99.0148 207.986 98.7716 208.565C98.0938 210.177 96.4653 211.311 94.5672 211.311C92.6692 211.311 91.0407 210.177 90.3629 208.565C90.1197 207.986 89.5617 207.59 88.9156 207.59C88.2695 207.59 87.7115 207.986 87.4683 208.565C86.7904 210.177 85.1618 211.311 83.2639 211.311C81.366 211.311 79.7374 210.177 79.0596 208.565C78.8163 207.986 78.2584 207.59 77.6122 207.59C76.9661 207.59 76.4082 207.986 76.1649 208.565C75.4872 210.177 73.8586 211.311 71.9606 211.311C69.699 211.311 67.8248 209.701 67.4809 207.59C67.4422 207.361 67.4229 207.127 67.4229 206.888V202.95C67.4229 200.361 69.5947 198.262 72.2737 198.262H139.467V198.262Z" fill="#FC4F8B"/>
<g opacity="0.6">
<path d="M144.318 202.951V206.738C144.318 204.145 142.148 202.048 139.465 202.048H72.2755C69.5925 202.048 67.4229 204.145 67.4229 206.738V202.951C67.4229 200.363 69.5925 198.261 72.2755 198.261H139.465C142.148 198.261 144.318 200.363 144.318 202.951Z" fill="white"/>
</g>
<path d="M139.775 212.716C137.332 212.716 135.155 211.294 134.23 209.094C134.178 208.97 134.067 208.987 134.023 209.093C133.097 211.294 130.921 212.716 128.477 212.716C126.03 212.716 123.852 211.294 122.926 209.094C122.874 208.97 122.764 208.988 122.719 209.093C121.796 211.294 119.618 212.716 117.173 212.716C114.727 212.716 112.549 211.294 111.623 209.094C111.575 208.979 111.468 208.979 111.421 209.094C110.495 211.294 108.317 212.716 105.87 212.716C103.424 212.716 101.245 211.294 100.32 209.094C100.272 208.979 100.164 208.979 100.117 209.094C99.192 211.294 97.0135 212.716 94.5671 212.716C92.1202 212.716 89.9417 211.294 89.0166 209.094C88.9685 208.98 88.8615 208.98 88.8138 209.094C87.8886 211.294 85.7101 212.716 83.2637 212.716C80.8168 212.716 78.6383 211.294 77.7132 209.094C77.6651 208.98 77.5576 208.98 77.5104 209.094C76.5852 211.294 74.4067 212.716 71.9603 212.716C68.996 212.716 66.5086 210.652 66.0453 207.808C65.9955 207.515 65.9692 207.202 65.9692 206.888V202.95C65.9692 199.591 68.7972 196.857 72.2732 196.857H139.467C142.943 196.857 145.771 199.591 145.771 202.95V206.888C145.771 207.199 145.745 207.511 145.694 207.815C145.232 210.652 142.742 212.716 139.775 212.716ZM134.124 206.186C135.353 206.186 136.45 206.913 136.922 208.037C137.399 209.173 138.519 209.907 139.775 209.907C141.303 209.907 142.585 208.841 142.825 207.372C142.852 207.21 142.865 207.049 142.865 206.888V202.95C142.865 201.139 141.341 199.666 139.467 199.666H72.2736C70.4001 199.666 68.8758 201.139 68.8758 202.95V206.888C68.8758 207.051 68.8889 207.21 68.9148 207.363C69.1555 208.841 70.436 209.907 71.9607 209.907C73.2194 209.907 74.3412 209.173 74.8188 208.036C75.2916 206.912 76.3881 206.186 77.6122 206.186C78.8363 206.186 79.9328 206.912 80.4056 208.036C80.8832 209.173 82.0055 209.907 83.264 209.907C84.5226 209.907 85.6445 209.173 86.1221 208.036C86.595 206.912 87.6914 206.186 88.9155 206.186C90.1396 206.186 91.2361 206.912 91.7089 208.036C92.1866 209.173 93.3088 209.907 94.5674 209.907C95.8261 209.907 96.9479 209.173 97.4255 208.036C97.8984 206.912 98.9948 206.186 100.219 206.186C101.443 206.186 102.539 206.912 103.012 208.036C103.49 209.173 104.612 209.907 105.87 209.907C107.129 209.907 108.251 209.173 108.729 208.036C109.202 206.912 110.298 206.186 111.522 206.186C112.746 206.186 113.843 206.912 114.316 208.036C114.793 209.173 115.915 209.907 117.174 209.907C118.43 209.907 119.55 209.173 120.027 208.037C120.499 206.913 121.596 206.186 122.821 206.186C124.05 206.186 125.147 206.913 125.619 208.037C126.097 209.173 127.218 209.907 128.477 209.907C129.733 209.907 130.853 209.173 131.331 208.036C131.802 206.913 132.899 206.186 134.124 206.186Z" fill="#5C0000"/>
<path d="M188.284 244.742C188.677 244.336 189.011 244.039 189.386 243.724C189.751 243.411 190.131 243.124 190.513 242.84C190.894 242.556 191.296 242.302 191.686 242.034C192.094 241.791 192.498 241.543 192.909 241.309C194.564 240.385 196.35 239.687 198.191 239.241L198.879 239.067C199.111 239.021 199.347 238.989 199.58 238.949C200.049 238.882 200.511 238.781 200.982 238.744L202.394 238.655L202.745 238.633L203.098 238.644L203.802 238.67L204.504 238.697L204.854 238.712L205.201 238.761L206.585 238.956C207.049 239.001 207.493 239.145 207.944 239.249L209.286 239.585C209.532 239.646 209.68 239.889 209.616 240.127C209.556 240.351 209.33 240.491 209.098 240.455L209.047 240.447L207.738 240.242C207.302 240.181 206.872 240.08 206.43 240.079L205.118 240.01L204.791 239.993L204.463 240.008L203.81 240.042L203.159 240.075L202.835 240.092L202.513 240.142L201.231 240.338C200.806 240.408 200.392 240.541 199.975 240.638C199.767 240.692 199.558 240.739 199.352 240.799L198.746 241.012C197.126 241.561 195.59 242.326 194.196 243.279L193.172 244.018C192.851 244.287 192.516 244.541 192.207 244.82C191.896 245.098 191.589 245.377 191.304 245.672C191.021 245.953 190.723 246.283 190.522 246.533L190.496 246.566C190.003 247.18 189.088 247.291 188.454 246.815C187.819 246.338 187.704 245.455 188.197 244.841C188.224 244.808 188.254 244.773 188.284 244.742Z" fill="#5C0000"/>
<path d="M201.354 93.6022C206.753 94.1023 210.482 100.644 209.682 108.213C208.882 115.781 203.857 121.512 198.459 121.012C193.06 120.511 189.331 113.97 190.131 106.401C190.931 98.8324 195.956 93.102 201.354 93.6022Z" fill="#5C0000"/>
<path d="M201.083 96.785C202.629 97.7908 202.832 100.459 201.537 102.744C200.243 105.03 197.941 106.067 196.395 105.061C194.85 104.055 194.646 101.387 195.941 99.102C197.235 96.8166 199.538 95.7792 201.083 96.785Z" fill="white"/>
<path d="M203.457 113.847C204.138 114.572 203.947 115.985 203.031 117.002C202.115 118.019 200.822 118.256 200.141 117.531C199.461 116.806 199.652 115.394 200.568 114.377C201.483 113.359 202.777 113.122 203.457 113.847Z" fill="#B199C5"/>
<path d="M152.393 89.8581C156.157 90.2068 158.756 94.7675 158.199 100.045C157.641 105.322 154.138 109.317 150.374 108.968C146.61 108.62 144.01 104.059 144.567 98.7818C145.125 93.5047 148.628 89.5093 152.393 89.8581Z" fill="#5C0000"/>
<path d="M152.204 92.0774C153.281 92.7787 153.423 94.6389 152.52 96.2323C151.618 97.8257 150.013 98.5489 148.935 97.8476C147.858 97.1464 147.716 95.2862 148.619 93.6929C149.521 92.0994 151.126 91.3762 152.204 92.0774Z" fill="white"/>
<path d="M153.859 103.973C154.333 104.479 154.2 105.463 153.561 106.173C152.923 106.882 152.021 107.047 151.547 106.541C151.073 106.036 151.206 105.051 151.844 104.342C152.482 103.633 153.385 103.468 153.859 103.973Z" fill="#B199C5"/>
</g>
<defs>
<clipPath id="clip0_15_398">
<rect width="358" height="346" fill="white"/>
</clipPath>
</defs>
</svg>
