<svg width="589" height="523" viewBox="0 0 589 523" fill="none" xmlns="http://www.w3.org/2000/svg">
<g filter="url(#filter0_bd_15_1094)">
<g clip-path="url(#clip0_15_1094)">
<path d="M466.379 176.964C482.27 176.991 498.16 177.017 514.878 177.343C517.786 178.096 519.866 178.551 522.368 179.023C526.701 180.942 531.076 182.351 534.433 184.841C542.644 190.931 544.365 199.63 544.427 208.481C544.615 235.3 544.479 262.121 544.505 288.941C544.512 296.72 543.617 304.29 538.443 310.864C533.459 305.341 532.466 299.13 532.466 292.651C532.466 276.745 532.704 260.834 532.307 244.935C531.99 232.262 520.33 222.536 506.301 222.472C492.589 222.41 480.152 232.498 480.057 244.885C479.796 279.203 480.054 313.524 480.001 348.252C477.652 361.1 469.756 368.67 457.232 370.387C446.176 371.902 435.179 366.951 430.211 357.802C428.527 354.7 427.851 351.167 426.81 347.378C426.9 329.837 427.186 312.744 426.794 295.664C426.504 282.99 414.771 273.366 400.651 273.38C386.357 273.394 375.231 282.854 374.474 295.638C373.652 309.538 363.634 319.37 349.741 319.911C335.142 320.479 324.19 312.016 322.389 297.636C321.268 288.69 321.761 279.588 321.443 270.558C321.082 260.337 313.818 251.612 303.225 248.528C286.914 243.78 270.099 254.119 269.027 269.556C268.069 283.366 259.072 292.738 245.649 293.909C228.974 295.364 216.973 285.555 215.981 269.661C215.207 257.235 204.034 247.599 190.22 247.444C176.425 247.288 163.97 256.796 163.777 268.944C163.361 295.235 163.721 321.535 163.616 348.214C161.484 365.269 145.131 372.634 131.871 370.236C120.542 368.187 113.183 360.724 110.444 347.39C110.528 330.033 110.704 313.13 110.48 296.231C110.333 285.075 100.589 275.194 88.8356 273.617C75.3653 271.81 63.1697 278.292 59.2302 289.59C58.2972 292.266 58.1518 295.169 57.7589 297.98C55.9762 310.737 47.8702 318.057 33.4716 319.928C32.6289 320.038 31.8549 320.563 30.5953 320.884C20.0048 319.294 11.3029 315.846 6.76895 306.869C6.66619 306.666 5.69787 306.807 5.1333 306.787C5.1333 269.214 5.1333 231.641 5.1333 193.597C5.87616 192.825 7.00052 192.706 7.30568 192.199C13.7066 181.559 24.1955 177.137 37.2158 177.073C65.8204 176.932 94.4264 177.025 123.902 177.284C143.829 177.633 162.886 177.722 182.469 177.868C190.932 177.889 198.868 177.85 207.333 177.884C226.424 177.894 244.986 177.833 264.071 177.845C272.908 177.881 281.222 177.843 290.064 177.877C309.151 177.887 327.71 177.827 346.791 177.842C355.629 177.879 363.945 177.841 372.788 177.874C391.877 177.886 410.438 177.827 429.521 177.843C440.399 177.933 450.755 177.994 461.11 177.917C462.869 177.904 464.623 177.297 466.379 176.964Z" fill="#FEE6C9"/>
<path d="M585.335 306.316C584.77 306.816 583.819 306.676 583.695 306.899C578.885 315.541 570.5 319.422 559.513 320.628C550.735 319.563 543.39 317.626 538.774 311.067C543.617 304.29 544.512 296.72 544.505 288.941C544.479 262.121 544.615 235.3 544.427 208.481C544.365 199.63 542.644 190.93 534.433 184.841C531.076 182.351 526.701 180.941 522.712 178.749C534.509 178.303 546.381 178.149 558.254 177.995C568.415 177.478 575.174 182.402 580.817 189.11C582.111 190.648 583.399 192.19 585.012 193.427C585.335 230.698 585.335 268.271 585.335 306.316Z" fill="#FFD597"/>
<path d="M231.574 85.479C239.036 59.0831 254.484 37.2286 279.128 20.47C283.44 24.0693 287.341 27.4187 290.988 30.9725C293.694 33.6081 296.07 36.5094 298.124 39.2828C293.207 38.8857 288.875 39.6019 287.428 43.6704C286.602 45.9914 287.168 49.245 288.437 51.4849C290.42 54.9848 294.739 55.1368 298.395 54.0379C302.818 52.7088 304.409 49.2931 304.537 45.4424C305.645 46.5567 306.642 47.3849 307.21 48.4016C311.142 55.4389 314.986 62.5155 318.457 69.5033C316.647 68.9681 315.277 68.3306 313.822 68.0832C309.306 67.3151 306.179 69.1605 304.211 72.6252C302.179 76.2034 303.716 79.2384 306.837 81.5164C312.804 85.8696 319.718 82.4131 321.591 74.682C323.948 82.0952 326.009 89.2541 327.676 96.5096C322.732 97.9886 319.771 100.64 320.432 105.073C321.072 109.358 324.363 111.645 329.231 112.48C328.478 117.474 327.727 122.046 326.571 126.709C323.828 127.51 321.49 128.22 318.775 129.027C308.662 132.946 301.136 139.046 294.956 146.614C291.398 142.968 288.45 139.231 284.794 136.158C272.168 125.546 249.286 122.635 235.624 129.683C234.155 129.689 233.089 129.689 231.887 129.32C230.649 123.067 228.572 117.169 228.674 111.3C228.823 102.682 230.53 94.0851 231.574 85.479ZM263.466 96.735C255.473 96.5119 250.544 100.946 252.792 106.451C254.302 110.152 257.267 111.997 261.897 111.792C266.397 111.592 269.018 109.278 269.833 105.804C270.774 101.793 268.733 98.6623 263.466 96.735ZM304.14 104.167C303.78 103.045 303.819 101.4 302.985 100.897C300.233 99.239 297.268 97.0874 294.193 96.8136C290.083 96.4475 286.622 99.3258 286.695 102.898C286.751 105.613 288.61 109.169 291.006 110.795C295.894 114.11 301.555 111.273 304.14 104.167ZM278.657 67.7814C271.546 69.1383 268.081 72.8582 269.77 77.4491C271.222 81.3976 274.424 83.6348 279.064 83.2483C283.414 82.886 286.438 80.3126 286.929 76.4844C287.527 71.8211 284.445 69.0823 278.657 67.7814Z" fill="#FA4A59"/>
<path d="M298.593 39.2922C296.07 36.5093 293.694 33.608 290.988 30.9724C287.341 27.4186 283.44 24.0693 279.48 20.3242C286.35 13.2848 302.937 13.7767 310.507 19.1055C334.796 36.2045 351.04 57.9742 358.737 85.4952C358.852 86.95 358.929 87.6082 359.068 88.2559C362.059 102.162 364.647 116.062 358.091 129.845C347.701 126.718 337.637 124.406 326.975 126.618C327.727 122.046 328.479 117.474 329.655 112.374C335.396 111.25 338.008 108.32 338.087 103.817C338.162 99.5858 334.533 97.1095 328.069 96.4129C326.009 89.254 323.948 82.0952 321.435 74.4012C320.699 73.0772 320.416 72.2884 320.108 71.1902C319.7 70.3995 319.317 69.918 318.943 69.4842C318.953 69.5319 318.858 69.5794 318.858 69.5794C314.986 62.5155 311.142 55.4389 307.21 48.4015C306.642 47.3848 305.645 46.5566 304.361 45.1545C302.495 43.1374 301.115 41.607 299.59 39.8894C299.204 39.4737 298.913 39.3187 298.6 39.2435C298.628 39.2496 298.593 39.2922 298.593 39.2922Z" fill="#F83040"/>
<path d="M181.943 177.81C162.886 177.721 143.829 177.633 124.429 177.247C124.281 170.606 123.519 164.098 124.863 157.953C127.949 143.843 137.974 134.387 153.346 128.963C165.041 134.463 173.714 141.696 178.72 152.189C182.685 160.498 181.759 169.184 181.943 177.81Z" fill="#A96A53"/>
<path d="M466.372 176.536C464.623 177.297 462.869 177.904 461.11 177.917C450.755 177.994 440.399 177.933 429.535 177.438C432.022 164.682 429.683 153.111 420.771 143.494C415.55 137.859 408.226 133.76 402.188 128.798C404.178 127.951 405.828 127.275 407.478 126.599C435.532 121.235 462.539 136.151 466.27 160.948C467.018 165.916 466.37 171.05 466.372 176.536Z" fill="#925B46"/>
<path d="M183.004 126.622C176.337 115.661 174.328 103.866 175.158 91.5905C175.254 90.1674 175.887 88.773 176.78 86.948C181.227 87.6131 185.316 88.3836 189.075 89.8295C210.42 98.0387 223.671 112.212 228.072 132.739C222.678 137.577 217.599 142.204 212.314 146.55C205.22 136.436 194.909 130.599 183.004 126.622Z" fill="#83D167"/>
<path d="M407.631 126.274C405.828 127.275 404.178 127.951 401.808 128.882C391.331 132.921 383.867 139.068 377.677 146.606C375.312 143.854 373.229 141.316 371.327 138.481C383.373 126.292 389.932 112.386 389.029 96.5276C388.572 88.4921 385.483 80.5746 383.584 72.6037C389.474 71.5319 395.375 69.6595 401.249 69.7233C404.223 69.7555 408.461 72.724 409.876 75.3286C417.016 88.4667 417.162 102.207 412.247 116.008C411.039 119.4 409.286 122.64 407.631 126.274Z" fill="#6CC94E"/>
<path d="M182.523 126.659C194.909 130.599 205.22 136.436 212.258 146.917C206.189 157.012 206.604 167.428 206.805 177.812C198.868 177.85 190.932 177.889 182.469 177.868C181.759 169.184 182.685 160.498 178.72 152.189C173.714 141.696 165.041 134.463 153.753 128.893C162.777 124.958 172.336 124.965 182.523 126.659Z" fill="#925B46"/>
<path d="M383.16 72.5432C385.483 80.5746 388.572 88.4921 389.029 96.5277C389.932 112.386 383.373 126.292 370.992 138.332C366.492 135.61 362.507 132.742 358.521 129.874C364.647 116.062 362.059 102.162 359.068 88.2559C358.929 87.6082 358.852 86.95 358.811 85.8908C365.861 79.7504 373.472 74.9224 383.16 72.5432Z" fill="#83D167"/>
<path d="M228.389 132.529C223.671 112.212 210.42 98.0387 189.075 89.8295C185.316 88.3836 181.227 87.6131 176.855 86.5201C176.847 84.6032 177.12 82.6571 177.728 80.7972C181.296 69.8817 186.879 67.1692 201.295 70.5669C212.422 73.1897 222.829 77.4639 231.239 85.3378C230.53 94.085 228.823 102.682 228.673 111.3C228.572 117.169 230.649 123.067 231.72 129.603C230.588 131.012 229.488 131.77 228.389 132.529Z" fill="#6CC94E"/>
<path d="M558.002 177.611C546.381 178.149 534.508 178.303 522.291 178.731C519.866 178.551 517.786 178.096 515.405 177.417C529.32 177.204 543.535 177.216 558.002 177.611Z" fill="#FFDFAE"/>
<path d="M163.763 347.831C163.721 321.535 163.361 295.235 163.777 268.944C163.969 256.796 176.425 247.288 190.22 247.443C204.034 247.599 215.206 257.235 215.981 269.661C216.972 285.555 228.974 295.364 245.649 293.909C259.072 292.738 268.069 283.366 269.027 269.556C270.099 254.119 286.914 243.78 303.225 248.528C313.818 251.612 321.082 260.337 321.442 270.558C321.761 279.588 321.268 288.69 322.388 297.636C324.189 312.016 335.142 320.479 349.741 319.911C363.634 319.37 373.652 309.538 374.474 295.638C375.231 282.854 386.357 273.394 400.651 273.38C414.771 273.366 426.504 282.989 426.794 295.664C427.186 312.744 426.9 329.837 426.277 347.405C418.458 347.899 411.267 347.913 404.047 347.721C404.019 347.516 403.957 347.104 403.976 346.625C404.001 330.729 404.118 315.311 403.872 299.897C403.841 297.964 401.894 296.056 400.835 294.137C399.635 295.931 397.462 297.692 397.382 299.524C396.399 322.221 375.418 340.019 349.37 340.785C327.42 341.43 309.993 329.958 301.891 311.075C297.644 301.178 298.836 290.968 298.622 280.809C298.562 277.962 298.953 275.045 298.354 272.295C298.058 270.935 295.982 269.88 294.711 268.687C293.759 269.933 292.364 271.079 291.966 272.452C291.463 274.189 291.987 276.138 291.698 277.948C288.831 295.912 271.346 311.191 249.783 314.659C230.707 317.728 207.799 307.76 199.185 291.807C196.097 286.089 195.267 279.428 193.134 273.272C192.558 271.611 190.987 270.221 189.872 268.707C188.74 270.205 187.521 271.66 186.526 273.227C186.201 273.739 186.455 274.543 186.456 275.213C186.473 299.176 186.492 323.14 186.479 347.308C186.448 347.513 186.393 347.924 185.866 347.914C178.147 347.88 170.955 347.856 163.763 347.831Z" fill="#F83041"/>
<path d="M538.443 310.864C543.39 317.626 550.735 319.563 559.055 320.654C559.311 329.59 559.262 338.232 558.626 347.367C532.061 347.854 506.084 347.849 480.107 347.844C480.054 313.524 479.796 279.203 480.057 244.884C480.152 232.498 492.589 222.409 506.301 222.472C520.33 222.536 531.99 232.261 532.307 244.935C532.704 260.833 532.466 276.745 532.466 292.651C532.466 299.13 533.459 305.341 538.443 310.864Z" fill="#F83040"/>
<path d="M480.001 348.252C506.084 347.849 532.061 347.854 558.556 347.819C559.117 363.704 559.16 379.631 558.583 396.075C539.912 396.572 521.861 396.549 503.785 396.042C503.76 382.974 503.76 370.391 503.76 357.807C503.249 357.737 502.738 357.668 502.227 357.598C499.188 365.96 494.521 373.262 487.271 379.41C473.141 391.394 452.179 394.824 433.227 387.618C415.895 381.027 403.804 364.565 404.075 347.927C411.267 347.913 418.458 347.899 426.182 347.858C427.851 351.167 428.527 354.7 430.211 357.802C435.179 366.95 446.176 371.902 457.232 370.386C469.756 368.67 477.652 361.1 480.001 348.252Z" fill="#925B46"/>
<path d="M31.3988 340.945C31.3229 334.573 31.2469 328.202 31.1099 321.363C31.8548 320.563 32.6288 320.038 33.4714 319.928C47.8701 318.057 55.9761 310.737 57.7588 297.98C58.1517 295.169 58.2971 292.266 59.2301 289.59C63.1695 278.292 75.3652 271.81 88.8354 273.617C100.589 275.194 110.333 285.075 110.48 296.231C110.704 313.13 110.528 330.033 109.925 347.413C102.177 347.906 95.0263 347.921 87.7284 347.751C87.3328 347.353 87.0535 347.18 86.7435 346.573C86.7437 330.352 86.8182 314.604 86.6271 298.859C86.6079 297.278 84.9799 295.712 84.0984 294.139C83.087 295.764 81.285 297.351 81.183 299.019C79.7171 323.015 57.8725 340.425 31.3988 340.945Z" fill="#F83041"/>
<path d="M87.8759 347.936C95.0262 347.921 102.176 347.906 109.846 347.868C113.183 360.724 120.542 368.187 131.871 370.236C145.131 372.634 161.484 365.269 163.616 348.214C170.955 347.856 178.147 347.88 185.885 348.367C186.831 370.665 164.412 392.193 134.875 391.424C110.237 390.783 86.3916 370.25 87.8759 347.936Z" fill="#935C47"/>
<path d="M377.959 146.819C383.867 139.068 391.331 132.921 401.468 129.053C408.226 133.76 415.55 137.859 420.771 143.494C429.683 153.111 432.022 164.682 429.013 177.363C410.438 177.827 391.877 177.886 372.796 177.419C371.883 166.528 371.73 156.198 377.959 146.819Z" fill="#A96A53"/>
<path d="M295.242 146.828C301.136 139.046 308.662 132.946 319.012 129.266C341.133 140.047 350.531 155.942 346.269 177.767C327.71 177.827 309.151 177.887 290.073 177.422C288.925 166.497 289.466 156.272 295.242 146.828Z" fill="#A96A53"/>
<path d="M228.072 132.739C229.489 131.77 230.588 131.012 231.855 129.971C233.089 129.688 234.156 129.689 236.049 129.744C257.689 137.62 268.491 158.63 263.549 177.771C244.986 177.833 226.424 177.894 207.333 177.884C206.604 167.428 206.189 157.012 212.465 147.198C217.599 142.204 222.678 137.577 228.072 132.739Z" fill="#AA6C55"/>
<path d="M264.071 177.845C268.491 158.63 257.689 137.62 236.45 129.737C249.286 122.635 272.169 125.546 284.794 136.157C288.45 139.23 291.398 142.968 294.956 146.614C289.466 156.272 288.925 166.497 289.545 177.351C281.222 177.843 272.908 177.881 264.071 177.845Z" fill="#935B46"/>
<path d="M346.791 177.842C350.531 155.942 341.133 140.047 319.388 129.169C321.49 128.22 323.828 127.51 326.571 126.709C337.637 124.406 347.701 126.718 358.091 129.845C362.507 132.742 366.492 135.61 370.812 138.628C373.229 141.316 375.312 143.854 377.677 146.606C371.729 156.198 371.883 166.528 372.268 177.348C363.944 177.841 355.629 177.879 346.791 177.842Z" fill="#935B46"/>
<path d="M496.91 501.735C493.705 501.798 490.499 501.916 487.294 501.916C340.283 501.925 193.271 501.924 46.2593 501.923C34.8005 501.923 31.193 498.743 31.1978 488.625C31.2052 472.879 31.2231 457.133 31.8312 440.946C33.3696 440.523 34.3134 440.558 35.2571 440.558C189.536 440.561 343.815 440.561 498.094 440.555C499.602 440.555 501.11 440.465 502.906 440.494C503.386 440.62 503.579 440.67 503.758 441.181C503.738 452.963 503.748 464.283 503.723 475.603C503.702 484.772 504.834 494.186 496.91 501.735Z" fill="#A96A53"/>
<path d="M502.618 440.417C501.11 440.465 499.602 440.555 498.094 440.555C343.815 440.561 189.536 440.561 35.2572 440.558C34.3135 440.558 33.3697 440.523 31.9084 440.471C31.3498 426.395 31.3086 412.353 31.8262 397.772C33.7057 397.202 35.0265 397.144 36.3474 397.144C190.445 397.14 344.543 397.139 498.641 397.147C500.337 397.147 502.033 397.261 503.717 397.793C503.703 406.719 503.829 415.176 503.651 423.628C503.533 429.228 502.978 434.821 502.618 440.417Z" fill="#FEE7C9"/>
<path d="M503.728 397.322C502.032 397.261 500.337 397.147 498.641 397.147C344.543 397.139 190.445 397.14 36.3473 397.144C35.0265 397.144 33.7057 397.201 31.8698 397.306C31.3091 380.905 31.2635 364.431 31.8137 347.512C50.5206 347.06 68.6317 347.053 86.7427 347.047C87.0534 347.18 87.3327 347.353 87.7283 347.751C86.3915 370.25 110.237 390.783 134.875 391.424C164.412 392.193 186.831 370.665 186.412 348.377C186.393 347.924 186.448 347.513 187.003 347.311C259.691 347.107 331.824 347.106 403.957 347.104C403.957 347.104 404.019 347.516 404.047 347.721C403.804 364.565 415.894 381.027 433.227 387.618C452.178 394.824 473.141 391.394 487.271 379.41C494.52 373.262 499.188 365.96 502.227 357.599C502.738 357.668 503.249 357.738 503.76 357.807C503.76 370.391 503.76 382.974 503.766 396.241C503.773 396.924 503.728 397.322 503.728 397.322Z" fill="#AA6B54"/>
<path d="M497.437 501.815C504.834 494.186 503.703 484.772 503.723 475.603C503.748 464.283 503.738 452.963 504.284 441.123C522.921 440.561 541.019 440.519 559.117 440.477C559.172 457.519 559.291 474.561 559.25 491.603C559.234 497.735 554.246 501.907 547.098 501.925C530.72 501.966 514.342 501.911 497.437 501.815Z" fill="#925B46"/>
<path d="M559.182 440.014C541.019 440.519 522.921 440.561 504.298 440.661C503.579 440.67 503.386 440.621 502.906 440.494C502.977 434.821 503.533 429.228 503.651 423.628C503.829 415.176 503.703 406.719 503.717 397.793C503.728 397.322 503.773 396.925 503.791 396.726C521.861 396.55 539.911 396.572 558.473 396.551C559.071 410.855 559.159 425.203 559.182 440.014Z" fill="#FFD597"/>
<path d="M86.7437 346.573C68.6319 347.053 50.5209 347.06 31.891 347.045C31.3333 345.285 31.2944 343.547 31.3273 341.377C57.8727 340.425 79.7173 323.014 81.1832 299.019C81.2851 297.351 83.0872 295.764 84.0986 294.139C84.98 295.712 86.6081 297.278 86.6273 298.859C86.8183 314.604 86.7439 330.352 86.7437 346.573Z" fill="#FB4A59"/>
<path d="M327.676 96.5095C334.533 97.1094 338.162 99.5858 338.088 103.817C338.008 108.32 335.396 111.25 329.656 111.952C324.364 111.645 321.072 109.357 320.433 105.073C319.771 100.64 322.732 97.9885 327.676 96.5095Z" fill="#8B5140"/>
<path d="M299.736 40.0767C301.116 41.6071 302.495 43.1375 304.052 44.9558C304.409 49.2932 302.818 52.7089 298.395 54.038C294.739 55.1369 290.42 54.9848 288.437 51.485C287.168 49.2451 286.602 45.9914 287.428 43.6705C288.875 39.602 293.207 38.8857 298.124 39.2829C298.594 39.2923 298.628 39.2497 298.728 39.4483C299.068 39.8928 299.371 40.0361 299.736 40.0767Z" fill="#8B5241"/>
<path d="M263.891 96.8652C268.733 98.6622 270.774 101.793 269.833 105.804C269.019 109.278 266.397 111.592 261.897 111.791C257.267 111.997 254.302 110.151 252.792 106.451C250.544 100.945 255.474 96.5118 263.891 96.8652Z" fill="#8B5241"/>
<path d="M304.137 104.552C301.555 111.273 295.894 114.11 291.006 110.795C288.61 109.169 286.751 105.613 286.695 102.898C286.622 99.3256 290.083 96.4474 294.193 96.8134C297.268 97.0873 300.233 99.2389 302.985 100.897C303.82 101.399 303.78 103.045 304.137 104.552Z" fill="#8B5241"/>
<path d="M320.134 71.4995C320.416 72.2883 320.699 73.0771 321.138 74.1468C319.718 82.4129 312.804 85.8694 306.838 81.5162C303.716 79.2383 302.179 76.2032 304.211 72.625C306.179 69.1603 309.306 67.3149 313.822 68.083C315.277 68.3305 316.647 68.968 318.457 69.5032C318.858 69.5793 318.953 69.5318 318.95 69.7913C319.342 70.5337 319.738 71.0166 320.134 71.4995Z" fill="#8A5241"/>
<path d="M279.06 67.8657C284.445 69.0823 287.528 71.8212 286.929 76.4845C286.438 80.3126 283.414 82.886 279.064 83.2483C274.424 83.6348 271.222 81.3976 269.77 77.4492C268.081 72.8583 271.546 69.1383 279.06 67.8657Z" fill="#8A5241"/>
<path d="M320.108 71.1901C319.738 71.0166 319.342 70.5337 318.94 69.7437C319.317 69.9179 319.7 70.3994 320.108 71.1901Z" fill="#FA4A59"/>
<path d="M299.59 39.8895C299.371 40.036 299.068 39.8928 298.7 39.442C298.913 39.3187 299.204 39.4737 299.59 39.8895Z" fill="#FA4A59"/>
<path d="M403.976 346.625C331.824 347.106 259.692 347.107 187.034 347.106C186.492 323.14 186.473 299.176 186.456 275.213C186.456 274.543 186.202 273.739 186.526 273.227C187.521 271.66 188.74 270.205 189.872 268.707C190.987 270.221 192.559 271.611 193.134 273.272C195.267 279.428 196.097 286.089 199.185 291.807C207.799 307.76 230.707 317.728 249.783 314.659C271.346 311.191 288.831 295.912 291.698 277.948C291.987 276.138 291.463 274.189 291.966 272.452C292.364 271.079 293.759 269.933 294.711 268.687C295.982 269.88 298.058 270.935 298.354 272.295C298.953 275.045 298.562 277.962 298.622 280.809C298.836 290.968 297.644 301.177 301.891 311.075C309.993 329.958 327.42 341.43 349.37 340.785C375.418 340.019 396.4 322.221 397.383 299.524C397.462 297.692 399.635 295.931 400.835 294.137C401.894 296.056 403.841 297.964 403.872 299.897C404.118 315.311 404.001 330.729 403.976 346.625Z" fill="#FB4A59"/>
</g>
</g>
<defs>
<filter id="filter0_bd_15_1094" x="-8" y="-12" width="604.202" height="539" filterUnits="userSpaceOnUse" color-interpolation-filters="sRGB">
<feFlood flood-opacity="0" result="BackgroundImageFix"/>
<feGaussianBlur in="BackgroundImageFix" stdDeviation="6"/>
<feComposite in2="SourceAlpha" operator="in" result="effect1_backgroundBlur_15_1094"/>
<feColorMatrix in="SourceAlpha" type="matrix" values="0 0 0 0 0 0 0 0 0 0 0 0 0 0 0 0 0 0 127 0" result="hardAlpha"/>
<feOffset dy="4"/>
<feGaussianBlur stdDeviation="2"/>
<feComposite in2="hardAlpha" operator="out"/>
<feColorMatrix type="matrix" values="0 0 0 0 0 0 0 0 0 0 0 0 0 0 0 0 0 0 0.25 0"/>
<feBlend mode="normal" in2="effect1_backgroundBlur_15_1094" result="effect2_dropShadow_15_1094"/>
<feBlend mode="normal" in="SourceGraphic" in2="effect2_dropShadow_15_1094" result="shape"/>
</filter>
<clipPath id="clip0_15_1094">
<rect width="580.202" height="515" fill="white" transform="translate(4)"/>
</clipPath>
</defs>
</svg>
