<svg version="1.1" id="Layer_1" xmlns="http://www.w3.org/2000/svg" xmlns:xlink="http://www.w3.org/1999/xlink" x="0px" y="0px"
	 width="100%" viewBox="0 0 512 512" enable-background="new 0 0 512 512" xml:space="preserve">
<path fill="#000000" opacity="1.000000" stroke="none" 
	d="
M296.000000,513.000000 
	C197.357285,513.000000 99.214561,513.000000 1.035923,513.000000 
	C1.035923,342.398926 1.035923,171.797836 1.035923,1.098378 
	C171.559402,1.098378 342.118866,1.098378 512.839172,1.098378 
	C512.839172,171.666550 512.839172,342.333252 512.839172,513.000000 
	C440.797821,513.000000 368.648895,513.000000 296.000000,513.000000 
M238.500000,477.000061 
	C303.998444,477.000031 369.496857,477.007599 434.995300,476.993866 
	C448.831848,476.990967 456.992218,468.811554 456.993652,454.931519 
	C457.005096,343.767334 457.000916,232.603165 456.990143,121.438980 
	C456.990021,120.008461 456.840851,118.577957 456.753021,116.999847 
	C433.890869,116.999847 411.406860,117.019997 388.922913,116.989281 
	C380.698608,116.978043 377.022949,113.306000 377.010620,105.093384 
	C376.979126,84.093903 377.000092,63.094341 377.000061,42.094810 
	C377.000061,40.488262 377.000061,38.881710 377.000061,37.000000 
	C375.516693,37.000000 374.546997,37.000000 373.577301,37.000000 
	C301.745575,37.000076 229.913849,36.984734 158.082123,37.014572 
	C145.291809,37.019886 137.015854,45.473392 137.010498,58.471416 
	C136.986496,116.803436 136.998795,175.135468 137.009171,233.467499 
	C137.009369,234.573608 137.147171,235.679688 137.235046,237.000076 
	C139.366562,237.000076 141.175766,237.000076 142.984985,237.000076 
	C225.149811,237.000092 307.314636,236.993195 389.479462,237.004547 
	C412.319275,237.007706 426.981201,251.640259 426.994110,274.448669 
	C427.015594,312.447815 427.003418,350.446991 426.998688,388.446136 
	C426.995667,412.675629 412.722534,426.997742 388.573944,426.998718 
	C306.575775,427.002014 224.577606,426.999939 142.579437,426.999939 
	C140.807465,426.999939 139.035507,426.999939 137.395004,426.999939 
	C137.179825,427.828033 137.031830,428.133179 137.031158,428.438660 
	C137.011719,437.271576 136.988419,446.104584 137.004257,454.937500 
	C137.029160,468.822754 145.151077,476.983002 159.001755,476.993988 
	C185.167816,477.014740 211.333923,477.000031 238.500000,477.000061 
M56.998337,331.500000 
	C56.998386,344.493652 56.981007,357.487366 57.002373,370.480988 
	C57.038689,392.567352 71.498085,406.991943 93.674454,406.995239 
	C192.293564,407.009796 290.912689,407.004059 389.531799,406.998077 
	C401.155396,406.997375 406.995331,401.144440 406.998108,389.502380 
	C407.007141,351.520691 407.002716,313.539001 407.000916,275.557312 
	C407.000305,262.477417 401.569458,256.999359 388.598969,256.999176 
	C291.812317,256.997833 195.025528,257.066101 98.239090,256.922119 
	C84.449371,256.901581 70.282982,259.348480 56.998337,251.712311 
	C56.998337,278.534637 56.998337,304.517303 56.998337,331.500000 
M93.500267,237.001770 
	C101.247459,237.001770 108.994659,237.001770 116.658844,237.001770 
	C116.658844,223.309479 116.658844,210.272263 116.658844,197.045959 
	C102.699196,197.045959 89.072708,196.748123 75.466301,197.142807 
	C65.096230,197.443604 56.990143,206.625839 57.006050,217.035995 
	C57.022274,227.650238 65.347755,236.474976 76.040382,236.938080 
	C81.517754,237.175323 87.013260,236.993958 93.500267,237.001770 
M429.171570,83.328575 
	C418.697968,72.856941 408.224365,62.385303 397.220825,51.383835 
	C397.220825,67.178955 397.220825,81.894485 397.220825,96.640358 
	C412.234100,96.640358 427.023651,96.640358 442.989441,96.640358 
	C438.027161,91.866684 433.849335,87.847649 429.171570,83.328575 
z"/>
<path fill="#FFF5F5" opacity="1.000000" stroke="none" 
	d="
M238.000000,477.000061 
	C211.333923,477.000031 185.167816,477.014740 159.001755,476.993988 
	C145.151077,476.983002 137.029160,468.822754 137.004257,454.937500 
	C136.988419,446.104584 137.011719,437.271576 137.031158,428.438660 
	C137.031830,428.133179 137.179825,427.828033 137.395004,426.999939 
	C139.035507,426.999939 140.807465,426.999939 142.579437,426.999939 
	C224.577606,426.999939 306.575775,427.002014 388.573944,426.998718 
	C412.722534,426.997742 426.995667,412.675629 426.998688,388.446136 
	C427.003418,350.446991 427.015594,312.447815 426.994110,274.448669 
	C426.981201,251.640259 412.319275,237.007706 389.479462,237.004547 
	C307.314636,236.993195 225.149811,237.000092 142.984985,237.000076 
	C141.175766,237.000076 139.366562,237.000076 137.235046,237.000076 
	C137.147171,235.679688 137.009369,234.573608 137.009171,233.467499 
	C136.998795,175.135468 136.986496,116.803436 137.010498,58.471416 
	C137.015854,45.473392 145.291809,37.019886 158.082123,37.014572 
	C229.913849,36.984734 301.745575,37.000076 373.577301,37.000000 
	C374.546997,37.000000 375.516693,37.000000 377.000061,37.000000 
	C377.000061,38.881710 377.000061,40.488262 377.000061,42.094810 
	C377.000092,63.094341 376.979126,84.093903 377.010620,105.093384 
	C377.022949,113.306000 380.698608,116.978043 388.922913,116.989281 
	C411.406860,117.019997 433.890869,116.999847 456.753021,116.999847 
	C456.840851,118.577957 456.990021,120.008461 456.990143,121.438980 
	C457.000916,232.603165 457.005096,343.767334 456.993652,454.931519 
	C456.992218,468.811554 448.831848,476.990967 434.995300,476.993866 
	C369.496857,477.007599 303.998444,477.000031 238.000000,477.000061 
M294.500000,147.000992 
	C308.488678,146.998840 322.477905,147.069061 336.465790,146.960999 
	C342.560669,146.913910 346.843872,142.758148 346.969849,137.213470 
	C347.100769,131.450729 342.741577,127.237724 336.400726,127.007065 
	C335.735443,126.982864 335.068604,126.999222 334.402496,126.999222 
	C282.777588,126.998993 231.152710,126.998627 179.527817,127.001503 
	C178.362534,127.001564 177.185684,126.940277 176.033951,127.075516 
	C170.929764,127.674858 167.136505,131.794815 167.028442,136.778046 
	C166.916214,141.954300 170.786484,146.332840 176.098526,146.923126 
	C177.580719,147.087830 179.092926,146.998520 180.591354,146.998627 
	C218.227570,147.001617 255.863785,147.000992 294.500000,147.000992 
M306.500000,166.999008 
	C263.867828,166.999084 221.235626,166.986359 178.603470,167.011765 
	C171.454575,167.016022 166.898178,171.109009 167.028503,177.202805 
	C167.154526,183.095612 171.613327,186.983719 178.518127,186.987015 
	C230.809158,187.012009 283.100189,187.011642 335.391205,186.988007 
	C342.536224,186.984772 347.096405,182.883270 346.969879,176.789551 
	C346.847748,170.907303 342.376709,167.048126 335.477295,167.011551 
	C326.151764,166.962112 316.825775,166.999100 306.500000,166.999008 
M199.500000,86.997910 
	C192.675888,86.997925 185.851685,86.975479 179.027695,87.004044 
	C171.675003,87.034821 167.164856,90.727249 167.027298,96.766891 
	C166.885605,102.988815 171.538651,106.987724 179.069443,106.994019 
	C204.368515,107.015152 229.667648,107.015144 254.966721,106.993858 
	C262.305145,106.987679 266.826447,103.260361 266.971008,97.225739 
	C267.119781,91.018066 262.451233,87.015350 254.926315,87.005569 
	C236.784241,86.982010 218.642105,86.997917 199.500000,86.997910 
z"/>
<path fill="#6680FE" opacity="1.000000" stroke="none" 
	d="
M56.998337,331.000000 
	C56.998337,304.517303 56.998337,278.534637 56.998337,251.712311 
	C70.282982,259.348480 84.449371,256.901581 98.239090,256.922119 
	C195.025528,257.066101 291.812317,256.997833 388.598969,256.999176 
	C401.569458,256.999359 407.000305,262.477417 407.000916,275.557312 
	C407.002716,313.539001 407.007141,351.520691 406.998108,389.502380 
	C406.995331,401.144440 401.155396,406.997375 389.531799,406.998077 
	C290.912689,407.004059 192.293564,407.009796 93.674454,406.995239 
	C71.498085,406.991943 57.038689,392.567352 57.002373,370.480988 
	C56.981007,357.487366 56.998386,344.493652 56.998337,331.000000 
M193.159607,366.479828 
	C193.160706,369.646301 193.075562,372.815674 193.180786,375.978699 
	C193.402863,382.653778 197.731186,387.178192 203.579224,386.974640 
	C209.352188,386.773712 213.065384,382.516327 213.149658,375.814514 
	C213.226593,369.695831 213.165955,363.575409 213.165955,357.304932 
	C226.741501,357.304932 239.800735,357.304932 253.160004,357.304932 
	C253.160004,363.412567 252.933548,369.234497 253.260025,375.025269 
	C253.412567,377.730927 254.056503,380.754669 255.502380,382.963501 
	C257.884888,386.603088 261.775970,387.882568 266.065094,386.500854 
	C270.943451,384.929321 273.184601,381.374359 273.172729,376.263031 
	C273.125458,355.931488 273.200439,335.599121 273.020203,315.268921 
	C272.989746,311.833008 272.303650,308.288605 271.277283,304.994751 
	C265.524170,286.531311 246.950363,274.607178 228.388321,277.251892 
	C208.060638,280.148163 193.537872,296.357208 193.218689,316.989929 
	C192.968674,333.151703 193.162842,349.320374 193.159607,366.479828 
M156.242859,350.594910 
	C158.403915,359.949951 153.149780,366.870331 143.581161,366.967194 
	C131.584824,367.088623 119.585670,366.925110 107.589119,367.035400 
	C101.441322,367.091919 97.172867,371.179138 97.031464,376.742859 
	C96.885124,382.500580 101.245171,386.904053 107.589378,386.959412 
	C120.252266,387.069916 132.921310,387.183380 145.579758,386.915314 
	C161.840607,386.570923 175.404648,373.631927 176.892944,357.477264 
	C178.387650,341.253174 167.535217,326.059967 151.449478,322.995178 
	C144.991043,321.764618 138.202698,322.162903 131.560272,322.026184 
	C122.819695,321.846252 117.113564,317.083954 117.020844,309.635895 
	C116.925926,302.010956 122.718063,297.027527 131.772354,297.007965 
	C143.103317,296.983490 154.434692,297.052948 165.765274,296.981293 
	C172.537109,296.938477 177.034317,292.787964 176.965912,286.880646 
	C176.899414,281.140686 172.515213,277.061920 166.041687,277.023499 
	C153.544815,276.949310 141.043930,276.841217 128.550507,277.067261 
	C112.302765,277.361237 98.665108,290.226318 97.110466,306.367584 
	C95.549583,322.573608 106.397606,337.915283 122.408966,340.962158 
	C129.030289,342.222229 135.987579,341.894196 142.794739,341.947296 
	C148.877335,341.994781 153.450256,344.122864 156.242859,350.594910 
M340.959229,343.446625 
	C339.740784,346.045441 338.522369,348.644287 336.980072,351.933960 
	C335.851746,349.567383 335.116302,348.112000 334.454590,346.623871 
	C325.612244,326.738159 316.780396,306.847809 307.945343,286.958862 
	C307.473206,285.895966 307.028290,284.819458 306.515930,283.776184 
	C303.602661,277.844116 298.370819,275.563171 293.073944,277.897247 
	C287.565277,280.324677 285.580963,285.919556 288.341370,292.156433 
	C301.182861,321.170624 314.137695,350.134674 326.973053,379.151520 
	C328.942200,383.603149 331.670288,386.886993 336.866547,386.935791 
	C342.305939,386.986908 345.084686,383.563873 347.115570,378.930328 
	C354.650940,361.737885 362.338257,344.612061 369.969940,327.461823 
	C375.237793,315.623627 380.596558,303.824799 385.742554,291.933868 
	C388.629028,285.264038 385.686340,278.888672 379.295380,277.268860 
	C374.368591,276.020172 369.772430,278.655090 367.176605,284.456268 
	C358.491272,303.866272 349.869812,323.304779 340.959229,343.446625 
z"/>
<path fill="#3355FE" opacity="1.000000" stroke="none" 
	d="
M93.000412,237.001770 
	C87.013260,236.993958 81.517754,237.175323 76.040382,236.938080 
	C65.347755,236.474976 57.022274,227.650238 57.006050,217.035995 
	C56.990143,206.625839 65.096230,197.443604 75.466301,197.142807 
	C89.072708,196.748123 102.699196,197.045959 116.658844,197.045959 
	C116.658844,210.272263 116.658844,223.309479 116.658844,237.001770 
	C108.994659,237.001770 101.247459,237.001770 93.000412,237.001770 
z"/>
<path fill="#D3CBE4" opacity="1.000000" stroke="none" 
	d="
M429.421570,83.578598 
	C433.849335,87.847649 438.027161,91.866684 442.989441,96.640358 
	C427.023651,96.640358 412.234100,96.640358 397.220825,96.640358 
	C397.220825,81.894485 397.220825,67.178955 397.220825,51.383835 
	C408.224365,62.385303 418.697968,72.856941 429.421570,83.578598 
z"/>
<path fill="#010101" opacity="1.000000" stroke="none" 
	d="
M294.000000,147.000992 
	C255.863785,147.000992 218.227570,147.001617 180.591354,146.998627 
	C179.092926,146.998520 177.580719,147.087830 176.098526,146.923126 
	C170.786484,146.332840 166.916214,141.954300 167.028442,136.778046 
	C167.136505,131.794815 170.929764,127.674858 176.033951,127.075516 
	C177.185684,126.940277 178.362534,127.001564 179.527817,127.001503 
	C231.152710,126.998627 282.777588,126.998993 334.402496,126.999222 
	C335.068604,126.999222 335.735443,126.982864 336.400726,127.007065 
	C342.741577,127.237724 347.100769,131.450729 346.969849,137.213470 
	C346.843872,142.758148 342.560669,146.913910 336.465790,146.960999 
	C322.477905,147.069061 308.488678,146.998840 294.000000,147.000992 
z"/>
<path fill="#010101" opacity="1.000000" stroke="none" 
	d="
M307.000000,166.999008 
	C316.825775,166.999100 326.151764,166.962112 335.477295,167.011551 
	C342.376709,167.048126 346.847748,170.907303 346.969879,176.789551 
	C347.096405,182.883270 342.536224,186.984772 335.391205,186.988007 
	C283.100189,187.011642 230.809158,187.012009 178.518127,186.987015 
	C171.613327,186.983719 167.154526,183.095612 167.028503,177.202805 
	C166.898178,171.109009 171.454575,167.016022 178.603470,167.011765 
	C221.235626,166.986359 263.867828,166.999084 307.000000,166.999008 
z"/>
<path fill="#010101" opacity="1.000000" stroke="none" 
	d="
M200.000000,86.997910 
	C218.642105,86.997917 236.784241,86.982010 254.926315,87.005569 
	C262.451233,87.015350 267.119781,91.018066 266.971008,97.225739 
	C266.826447,103.260361 262.305145,106.987679 254.966721,106.993858 
	C229.667648,107.015144 204.368515,107.015152 179.069443,106.994019 
	C171.538651,106.987724 166.885605,102.988815 167.027298,96.766891 
	C167.164856,90.727249 171.675003,87.034821 179.027695,87.004044 
	C185.851685,86.975479 192.675888,86.997925 200.000000,86.997910 
z"/>
<path fill="#010103" opacity="1.000000" stroke="none" 
	d="
M193.159637,365.982910 
	C193.162842,349.320374 192.968674,333.151703 193.218689,316.989929 
	C193.537872,296.357208 208.060638,280.148163 228.388321,277.251892 
	C246.950363,274.607178 265.524170,286.531311 271.277283,304.994751 
	C272.303650,308.288605 272.989746,311.833008 273.020203,315.268921 
	C273.200439,335.599121 273.125458,355.931488 273.172729,376.263031 
	C273.184601,381.374359 270.943451,384.929321 266.065094,386.500854 
	C261.775970,387.882568 257.884888,386.603088 255.502380,382.963501 
	C254.056503,380.754669 253.412567,377.730927 253.260025,375.025269 
	C252.933548,369.234497 253.160004,363.412567 253.160004,357.304932 
	C239.800735,357.304932 226.741501,357.304932 213.165955,357.304932 
	C213.165955,363.575409 213.226593,369.695831 213.149658,375.814514 
	C213.065384,382.516327 209.352188,386.773712 203.579224,386.974640 
	C197.731186,387.178192 193.402863,382.653778 193.180786,375.978699 
	C193.075562,372.815674 193.160706,369.646301 193.159637,365.982910 
M215.789810,336.995972 
	C228.181946,336.995972 240.574097,336.995972 253.154968,336.995972 
	C253.154968,330.013092 253.234146,323.708679 253.137756,317.406952 
	C252.961182,305.863770 244.660706,297.223877 233.665344,297.012299 
	C222.524933,296.797974 213.589722,305.468201 213.205658,317.058228 
	C213.024170,322.534821 213.073441,328.025208 213.242996,333.502380 
	C213.279297,334.675110 214.287994,335.817780 215.789810,336.995972 
z"/>
<path fill="#010102" opacity="1.000000" stroke="none" 
	d="
M156.126801,350.220520 
	C153.450256,344.122864 148.877335,341.994781 142.794739,341.947296 
	C135.987579,341.894196 129.030289,342.222229 122.408966,340.962158 
	C106.397606,337.915283 95.549583,322.573608 97.110466,306.367584 
	C98.665108,290.226318 112.302765,277.361237 128.550507,277.067261 
	C141.043930,276.841217 153.544815,276.949310 166.041687,277.023499 
	C172.515213,277.061920 176.899414,281.140686 176.965912,286.880646 
	C177.034317,292.787964 172.537109,296.938477 165.765274,296.981293 
	C154.434692,297.052948 143.103317,296.983490 131.772354,297.007965 
	C122.718063,297.027527 116.925926,302.010956 117.020844,309.635895 
	C117.113564,317.083954 122.819695,321.846252 131.560272,322.026184 
	C138.202698,322.162903 144.991043,321.764618 151.449478,322.995178 
	C167.535217,326.059967 178.387650,341.253174 176.892944,357.477264 
	C175.404648,373.631927 161.840607,386.570923 145.579758,386.915314 
	C132.921310,387.183380 120.252266,387.069916 107.589378,386.959412 
	C101.245171,386.904053 96.885124,382.500580 97.031464,376.742859 
	C97.172867,371.179138 101.441322,367.091919 107.589119,367.035400 
	C119.585670,366.925110 131.584824,367.088623 143.581161,366.967194 
	C153.149780,366.870331 158.403915,359.949951 156.126801,350.220520 
z"/>
<path fill="#010203" opacity="1.000000" stroke="none" 
	d="
M341.091553,343.089478 
	C349.869812,323.304779 358.491272,303.866272 367.176605,284.456268 
	C369.772430,278.655090 374.368591,276.020172 379.295380,277.268860 
	C385.686340,278.888672 388.629028,285.264038 385.742554,291.933868 
	C380.596558,303.824799 375.237793,315.623627 369.969940,327.461823 
	C362.338257,344.612061 354.650940,361.737885 347.115570,378.930328 
	C345.084686,383.563873 342.305939,386.986908 336.866547,386.935791 
	C331.670288,386.886993 328.942200,383.603149 326.973053,379.151520 
	C314.137695,350.134674 301.182861,321.170624 288.341370,292.156433 
	C285.580963,285.919556 287.565277,280.324677 293.073944,277.897247 
	C298.370819,275.563171 303.602661,277.844116 306.515930,283.776184 
	C307.028290,284.819458 307.473206,285.895966 307.945343,286.958862 
	C316.780396,306.847809 325.612244,326.738159 334.454590,346.623871 
	C335.116302,348.112000 335.851746,349.567383 336.980072,351.933960 
	C338.522369,348.644287 339.740784,346.045441 341.091553,343.089478 
z"/>
<path fill="#657FFD" opacity="1.000000" stroke="none" 
	d="
M215.319275,336.985107 
	C214.287994,335.817780 213.279297,334.675110 213.242996,333.502380 
	C213.073441,328.025208 213.024170,322.534821 213.205658,317.058228 
	C213.589722,305.468201 222.524933,296.797974 233.665344,297.012299 
	C244.660706,297.223877 252.961182,305.863770 253.137756,317.406952 
	C253.234146,323.708679 253.154968,330.013092 253.154968,336.995972 
	C240.574097,336.995972 228.181946,336.995972 215.319275,336.985107 
z"/>
</svg>